<svg xmlns="http://www.w3.org/2000/svg" version="1.1" xmlnsXlink="http://www.w3.org/1999/xlink" xmlnsSvgjs="http://svgjs.com/svgjs" width="100" height="100" viewBox="0 0 100 100"><g class="wrap" transform="matrix(1,0,0,1,0,0)"><defs class="background">
<g id="background">
<path fill="url(#background-gradient)" stroke="none" d=" M 85.35 85.35 Q 100 70.6 100 50 100 29.3 85.35 14.65 70.7 0 50 0 29.3 0 14.65 14.65 0 29.3 0 50 0 70.6 14.65 85.35 29.3 100 50 100 70.7 100 85.35 85.35 Z"></path>
</g><g id="middle-1">
<path fill="#FFFFFF" fill-opacity="0.30196078431372547" stroke="none" d=" M 85.35 85.35 Q 100 70.6 100 50 100 29.3 85.35 14.65 70.7 0 50 0 29.3 0 14.65 14.65 0 29.3 0 50 0 70.6 14.65 85.35 29.3 100 50 100 70.7 100 85.35 85.35 M 50 7.05 Q 67.75 7.05 80.35 19.65 92.85 32.25 92.85 50 92.85 67.75 80.35 80.25 67.75 92.85 50 92.85 32.25 92.85 19.65 80.25 7.15 67.75 7.15 50 7.15 32.25 19.65 19.65 32.25 7.05 50 7.05 Z"></path>
</g><mask id="mask">
<path fill="#FFFFFF" stroke="none" d=" M 85.35 85.35 Q 100 70.6 100 50 100 29.3 85.35 14.65 70.7 0 50 0 29.3 0 14.65 14.65 0 29.3 0 50 0 70.6 14.65 85.35 29.3 100 50 100 70.7 100 85.35 85.35 Z"></path>
</mask>			
<linearGradient id="background-gradient" x1="0" y1="0" y2="1" x2="0" gradientTransform="rotate(144 0.5 0.5)">
	<stop stop-color="#005927" offset="0%"></stop>
	<stop stop-color="#01c51f" offset="100%"></stop>
</linearGradient>
<filter width="200%" height="200%" x="-50%" y="-50%" id="SvgjsFilter1497"><feGaussianBlur id="SvgjsFeGaussianBlur1492" result="SvgjsFeGaussianBlur1492" in="SourceAlpha" stdDeviation="5 5"></feGaussianBlur><feOffset id="SvgjsFeOffset1493" result="SvgjsFeOffset1493" in="SvgjsFeGaussianBlur1492" dy="2.82842712474619" dx="2.8284271247461903"></feOffset><feFlood id="SvgjsFeFlood1494" result="SvgjsFeFlood1494" in="SourceGraphic" flood-opacity="0.94" flood-color="#013212"></feFlood><feComposite id="SvgjsFeComposite1495" result="SvgjsFeComposite1495" in="SvgjsFeFlood1494" operator="in" in2="SvgjsFeOffset1493"></feComposite><feBlend id="SvgjsFeBlend1496" result="SvgjsFeBlend1496" in="SourceGraphic"></feBlend></filter><linearGradient class="shapgradient" gradientTransform="rotate(0 0.5 0.5)" id="SvgjsLinearGradient1500"><stop stop-color="#0d0d0d" offset="0"></stop><stop stop-color="#ffffff" offset="0"></stop></linearGradient></defs><use xlinkHref="#background" fill="url(#background-gradient)" class="background"></use><use xlinkHref="#middle-1" class="background"></use><g class="geditable" mask="url(#mask)"><g mask="url(#mask)" fill="url(#SvgjsLinearGradient1500)" class="editable" transform="matrix(0.75,0,0,0.75,12.499999046325684,12.499999046325684)" filter="url(#SvgjsFilter1497)"><path d="M511.75241994671575 320.02570524995485C456.6524199467157 456.72570524995484 324.6524199467157 374.02570524995485 324.6524199467157 374.02570524995485C284.1524199467157 455.82570524995486 217.25241994671575 508.4257052499549 140.05241994671576 508.72570524995484C123.95241994671574 508.72570524995484 123.45241994671574 484.32570524995486 140.05241994671576 484.32570524995486C204.45241994671574 484.02570524995485 260.55241994671576 441.6257052499549 297.25241994671575 374.22570524995484C256.1524199467157 390.1257052499548 178.65241994671572 402.1257052499548 135.65241994671572 292.02570524995485C244.65241994671572 247.12570524995485 294.75241994671575 303.22570524995484 313.95241994671574 337.52570524995485C323.85241994671577 313.1257052499549 330.95241994671574 286.6257052499549 335.55241994671576 257.82570524995486C335.55241994671576 257.82570524995486 195.85241994671577 279.72570524995484 186.05241994671576 159.72570524995487C305.1524199467157 111.82570524995486 338.6524199467157 236.4257052499549 338.6524199467157 236.4257052499549C340.25241994671575 219.7257052499549 341.95241994671574 183.8257052499549 341.95241994671574 183.02570524995488C341.95241994671574 183.02570524995488 235.65241994671575 109.32570524995488 303.85241994671577 17.825705249954893C428.4524199467158 60.82570524995489 365.25241994671575 180.2257052499549 365.25241994671575 180.2257052499549C365.75241994671575 181.8257052499549 365.75241994671575 204.0257052499549 365.25241994671575 213.6257052499549C365.25241994671575 213.6257052499549 410.4524199467158 124.6257052499549 501.6524199467158 156.1257052499549C497.4524199467158 290.12570524995493 359.75241994671575 262.5257052499549 359.75241994671575 262.5257052499549C355.35241994671577 289.9257052499549 348.55241994671576 315.9257052499549 339.75241994671575 340.0257052499549C339.75241994671575 340.0257052499549 422.75241994671575 248.2257052499549 511.75241994671575 320.0257052499549Z " transform="matrix(0.15626496468245524,0,0,0.15626496468245524,0.031024829632509777,8.859230745209148)"></path></g></g></g></svg>