<svg id="Layer_1" data-name="Layer 1" xmlns="http://www.w3.org/2000/svg" viewBox="0 0 1252 477"><defs><style>.cls-1{fill:#b0d8ff;}.cls-2{fill:#106812;}.cls-3{fill:#003580;}.cls-4{fill:#a7cf2f;}.cls-16,.cls-5{fill:#6cb119;}.cls-18,.cls-6{fill:#4c76b2;}.cls-7{fill:#fff;}.cls-8,.cls-9{fill:none;}.cls-16,.cls-18,.cls-8,.cls-9{stroke:#000;}.cls-14,.cls-16,.cls-18,.cls-8,.cls-9{stroke-miterlimit:10;}.cls-9{stroke-width:5px;}.cls-10{fill:#c17d11;}.cls-11{fill:#8f5902;}.cls-12{fill:#7da81d;}.cls-13{fill:#469315;}.cls-14{fill:#00d41d;stroke:#009500;}.cls-14,.cls-16,.cls-18{stroke-width:2px;}.cls-15{fill:#d2ab00;}.cls-16,.cls-18{font-size:200px;font-family:SegoeUI-SemiboldItalic, Segoe UI;font-weight:600;font-style:italic;}.cls-17{letter-spacing:0em;}.cls-19{letter-spacing:-0.1em;}</style></defs><polygon class="cls-1" points="711.22 148.3 765.17 121.81 819.22 148.49 819.22 149.07 818.35 149.07 764.22 175.83 711.04 149.34 711.04 148.39 711.22 148.3"/><polygon class="cls-2" points="819.22 288.92 819.16 342.17 765.04 368.75 764.22 368.35 764.56 367.68 765.65 315.5 818.68 288.88 818.76 288.7 819.22 288.92"/><polygon class="cls-3" points="819.22 149.07 819.16 201.73 765.79 227.94 765.08 228.29 765.04 228.31 764.22 227.9 764.22 175.83 818.35 149.07 819.22 149.07"/><polygon class="cls-4" points="818.76 288.7 818.68 288.88 765.65 315.5 711.97 289.1 711.97 288.38 765.15 262.26 765.17 262.25 765.71 262.52 818.76 288.7"/><polygon class="cls-5" points="710.98 341.96 710.98 339.85 711.04 290.03 711.97 289.57 711.97 289.1 765.65 315.5 764.56 367.68 764.22 368.35 710.98 342.08 710.98 341.97 710.98 341.96"/><polygon class="cls-6" points="764.22 175.83 764.22 227.9 712.07 202.18 712.07 201.07 710.98 200.53 711.04 149.34 764.22 175.83"/><polygon class="cls-7" points="712.07 201.07 712.07 202.18 710.98 201.65 710.98 200.53 712.07 201.07"/><polygon class="cls-7" points="712.07 202.18 711.97 288.38 711.04 288.84 711.04 290.03 623.57 333.31 622.3 332.68 621.41 333.12 534.57 289.95 534.57 288.7 533.49 288.16 533.59 201.55 534.51 201.09 534.51 200.44 622.52 156.9 623.26 157.26 623.61 157.09 710.98 200.53 710.98 201.65 712.07 202.18"/><polygon class="cls-7" points="711.97 289.1 711.97 289.57 711.04 290.03 711.04 288.84 711.97 288.38 711.97 289.1"/><polygon class="cls-2" points="677.27 130.73 623.61 157.09 622.87 156.73 622.78 156.2 623.86 104.02 676.89 77.39 676.98 77.21 677.43 77.43 677.37 128.97 677.37 130.69 677.27 130.73"/><polygon class="cls-4" points="676.98 77.21 676.89 77.39 623.86 104.02 569.75 77.39 569.63 77.17 623.38 50.77 676.98 77.21"/><polygon class="cls-3" points="676.35 359.68 676.29 412.59 622.18 439.18 621.57 438.87 621.9 438.22 621.9 385.57 675.65 359 676.35 359.35 676.35 359.68"/><polygon class="cls-1" points="675.65 359 621.9 385.57 568.65 359.04 621.41 333.12 622.68 333.75 623.57 333.31 675.65 359"/><polygon class="cls-5" points="569.29 130.64 569.21 130.59 569.21 127.99 569.27 77.35 569.63 77.17 569.75 77.39 623.86 104.02 622.78 156.2 622.87 156.73 622.52 156.9 569.29 130.64"/><polygon class="cls-7" points="623.61 157.09 623.26 157.26 622.52 156.9 622.87 156.73 623.61 157.09"/><polygon class="cls-7" points="623.57 333.31 622.68 333.75 621.41 333.12 622.3 332.68 623.57 333.31"/><polygon class="cls-6" points="568.19 359.33 568.19 359.26 568.65 359.04 621.9 385.57 621.9 438.22 621.57 438.87 568.13 412.5 568.19 359.33"/><polygon class="cls-7" points="533.49 288.92 533.49 288.16 534.57 288.7 534.57 289.95 533.49 289.42 533.49 288.92"/><polygon class="cls-3" points="534.57 147.85 534.51 200.44 533.59 200.9 533.59 201.55 480.47 226.93 480.47 174.53 534.52 147.82 534.55 147.83 534.57 147.85"/><polygon class="cls-2" points="534.51 341.94 534.51 341.94 480.39 368.52 479.58 368.12 479.91 367.46 480.99 315.27 533.49 288.92 533.49 289.42 534.57 289.95 534.51 339.95 534.51 341.94"/><polygon class="cls-1" points="480.51 121.18 534.52 147.82 480.47 174.53 426.57 147.67 480.51 121.18"/><polygon class="cls-7" points="534.51 200.44 534.51 201.09 533.59 201.55 533.59 200.9 534.51 200.44"/><polygon class="cls-6" points="480.47 226.93 533.59 201.55 480.39 227.68 480.08 227.52 479.94 227.45 479.94 227.18 480.47 226.93"/><polygon class="cls-4" points="480.47 262.06 480.51 262.03 533.49 288.16 533.49 288.92 480.99 315.27 426.88 288.66 426.77 288.42 479.99 262.29 480.47 262.06"/><polygon class="cls-5" points="480.99 315.27 479.91 367.46 479.58 368.12 426.34 341.86 426.4 288.6 426.77 288.42 426.88 288.66 480.99 315.27"/><polygon class="cls-6" points="480.47 174.53 480.47 226.93 479.94 227.18 479.94 227.45 426.34 201.01 426.4 147.76 426.57 147.67 480.47 174.53"/><polyline class="cls-8" points="533.59 201.55 480.39 227.68 480.08 227.52"/><polyline class="cls-8" points="677.37 130.69 677.27 130.73 623.61 157.09"/><polyline class="cls-8" points="622.52 156.9 569.29 130.64 569.21 130.59"/><line class="cls-8" x1="569.52" y1="130.52" x2="593.97" y2="119.29"/><line class="cls-8" x1="534.57" y1="147.85" x2="534.51" y2="200.45"/><polyline class="cls-8" points="533.59 201.55 480.47 226.93 479.94 227.18"/><line class="cls-8" x1="712.07" y1="202.18" x2="711.97" y2="288.38"/><polyline class="cls-8" points="533.49 288.16 533.59 201.55 533.59 200.9 534.51 200.44 622.52 156.9 622.87 156.73 623.61 157.09 710.98 200.53"/><line class="cls-8" x1="621.41" y1="333.12" x2="534.57" y2="289.95"/><line class="cls-8" x1="711.05" y1="290.03" x2="623.57" y2="333.31"/><polyline class="cls-8" points="710.98 341.96 710.98 339.85 711.04 290.03 711.04 288.84 711.97 288.38 765.15 262.26 765.17 262.25"/><line class="cls-8" x1="710.98" y1="342.08" x2="710.98" y2="341.97"/><line class="cls-8" x1="711.53" y1="288.88" x2="711.97" y2="289.1"/><polyline class="cls-8" points="480.51 262.03 533.49 288.16 534.57 288.7 534.57 289.95 534.51 339.95 534.51 341.94 534.51 341.94"/><line class="cls-8" x1="534.03" y1="288.66" x2="533.49" y2="288.92"/><polyline class="cls-8" points="765.04 228.31 764.22 227.9 712.07 202.18 710.98 201.65 710.98 200.53 711.04 149.34 711.04 148.39"/><polyline class="cls-8" points="568.19 359.26 568.65 359.04 621.41 333.12 622.3 332.68 623.57 333.31 675.65 359 676.35 359.35"/><line class="cls-8" x1="711.05" y1="341.93" x2="735.4" y2="329.9"/><polyline class="cls-8" points="710.96 341.98 710.98 341.97 710.98 341.96"/><line class="cls-8" x1="765.09" y1="288.03" x2="765.09" y2="263.06"/><line class="cls-8" x1="480.47" y1="288.9" x2="480.47" y2="262.29"/><polyline class="cls-8" points="677.49 130.84 677.27 130.73 655.96 120.16"/><polyline class="cls-8" points="534.6 341.98 534.51 341.94 511.03 329.9"/><polyline class="cls-9" points="569.21 130.59 569.21 127.99 569.27 77.35 569.63 77.17 623.38 50.77 676.98 77.21 677.43 77.43 677.37 128.97 677.37 130.69"/><polyline class="cls-9" points="534.55 147.83 569.29 130.64 569.52 130.51"/><polyline class="cls-9" points="480.08 227.52 479.94 227.45 426.34 201.01 426.4 147.76 426.57 147.67 480.51 121.18 534.52 147.82 534.55 147.83 534.57 147.85"/><polyline class="cls-9" points="765.17 262.25 765.71 262.52 818.76 288.7 819.22 288.92 819.16 342.17 765.04 368.75 764.22 368.35 710.98 342.08"/><polyline class="cls-9" points="534.51 341.94 480.39 368.52 479.58 368.12 426.34 341.86 426.4 288.6 426.77 288.42 479.99 262.29 480.47 262.06 480.51 262.03"/><polyline class="cls-9" points="711.04 148.39 711.22 148.3 765.17 121.81 819.22 148.49 819.22 149.07 819.16 201.73 765.79 227.94 765.08 228.29 765.04 228.31"/><polyline class="cls-9" points="676.35 359.35 676.35 359.68 676.29 412.59 622.18 439.18 621.57 438.87 568.13 412.5 568.19 359.33 568.19 359.26"/><polyline class="cls-9" points="676.19 359.77 676.35 359.68 676.45 359.63 710.96 341.98 710.98 341.96 711.05 341.93"/><line class="cls-9" x1="765.09" y1="262.14" x2="765.18" y2="228.48"/><polyline class="cls-9" points="480.47 262.29 480.47 262.06 479.94 227.45 479.94 227.18"/><polyline class="cls-9" points="711.55 148.49 711.22 148.3 677.49 130.84"/><polyline class="cls-9" points="568.67 359.6 568.19 359.33 534.6 341.98"/><g id="layer1"><g id="g9775"><path id="path9777" class="cls-10" d="M621.74,244.88l-88.64,43.8,89.47,44.23,88.63-43.8-89.46-44.23Z"/><path id="path9779" class="cls-11" d="M543.44,293.79s24.36-10,25.66-10.76S585,271.16,585,271.16l19.57-8.78L614.8,259l17.28-9,11.81,5.84L626.13,263,626,265l-17.75,8.77-23.5,13.69-15.67,7.23-13.84,5-11.82-5.85Z"/><path id="path9781" class="cls-11" d="M575.66,309.71s23.42-10.09,24.74-10.86,17.48-4.91,17.48-4.91l31.34-22.2,10.18-5.17,4.83-.7L674.58,271l-17.26,9.78-17.77,8.78-24,12.05-15.18,8.86-14.46,4.32Z"/><path id="path9783" class="cls-11" d="M600.77,322.18s24.11-9.27,25.43-10.05,17.49-4.89,17.49-4.89L675,285l10.17-5.15,4.07-1.64,13.33,6.6-19.48,9.23-17.77,8.78-23.5,13.68-15.65,7.23-12.14,5-13.29-6.57Z"/></g></g><path class="cls-12" d="M562.89,293.53a1,1,0,0,1-1.07.85h0a1,1,0,0,1-1.08-.85V221a1,1,0,0,1,1.08-.85h0a1,1,0,0,1,1.07.85Z"/><ellipse class="cls-12" cx="561.82" cy="295.91" rx="4.23" ry="3.34"/><path class="cls-12" d="M561.86,201.72c-4.47,1.73-7.86,9.51-7.86,13.22s3.39,6.8,7.86,7.46Z"/><path class="cls-13" d="M561.78,201.72c4.47,1.73,7.85,9.51,7.85,13.22s-3.38,6.8-7.85,7.46Z"/><path class="cls-12" d="M581.61,224.9c-4.72-1.26-14.09,2.35-17.42,5s-3.7,6.69-1.13,9.65Z"/><path class="cls-13" d="M581.56,224.86c1.6,3.72-3,11.11-6.31,13.73a11.63,11.63,0,0,1-12.24.9Z"/><path class="cls-12" d="M581.61,242.07c-4.72-1.26-14.09,2.35-17.42,5s-3.7,6.69-1.13,9.64Z"/><path class="cls-13" d="M581.56,242c1.6,3.72-3,11.11-6.31,13.74a11.65,11.65,0,0,1-12.24.89Z"/><path class="cls-12" d="M581.61,259.24c-4.72-1.27-14.09,2.35-17.42,5s-3.7,6.69-1.13,9.64Z"/><path class="cls-13" d="M581.56,259.2c1.6,3.72-3,11.11-6.31,13.73a11.63,11.63,0,0,1-12.24.9Z"/><path class="cls-12" d="M578.3,279c-3.87-1-11.58,1.93-14.31,4.09a5.28,5.28,0,0,0-.94,7.93Z"/><path class="cls-13" d="M578.26,279c1.32,3-2.45,9.13-5.19,11.29A9.54,9.54,0,0,1,563,291Z"/><path class="cls-12" d="M542,224.9c4.71-1.26,14.08,2.35,17.42,5s3.7,6.69,1.13,9.65Z"/><path class="cls-13" d="M542.08,224.86c-1.61,3.72,3,11.11,6.31,13.73a11.63,11.63,0,0,0,12.24.9Z"/><path class="cls-12" d="M542,242.07c4.71-1.26,14.08,2.35,17.42,5s3.7,6.69,1.13,9.64Z"/><path class="cls-13" d="M542.08,242c-1.61,3.72,3,11.11,6.31,13.74a11.65,11.65,0,0,0,12.24.89Z"/><path class="cls-12" d="M542,259.24c4.71-1.27,14.08,2.35,17.42,5s3.7,6.69,1.13,9.64Z"/><path class="cls-13" d="M542.08,259.2c-1.61,3.72,3,11.11,6.31,13.73a11.63,11.63,0,0,0,12.24.9Z"/><path class="cls-12" d="M545.33,279c3.88-1,11.59,1.93,14.32,4.09s3.05,5.5.93,7.93Z"/><path class="cls-13" d="M560.29,290.49a9.09,9.09,0,0,1-9.61-.71c-2.62-2.07-6.22-7.91-5-10.84Z"/><path class="cls-12" d="M599.71,314.51a1,1,0,0,1-1.08.85h0a1,1,0,0,1-1.07-.85V242a1,1,0,0,1,1.07-.85h0a1,1,0,0,1,1.08.85Z"/><ellipse class="cls-12" cx="598.63" cy="316.89" rx="4.23" ry="3.34"/><path class="cls-12" d="M598.67,222.7c-4.47,1.73-7.85,9.51-7.85,13.22s3.38,6.8,7.85,7.46Z"/><path class="cls-13" d="M598.6,222.7c4.47,1.73,7.85,9.51,7.85,13.22s-3.39,6.8-7.85,7.46Z"/><path class="cls-12" d="M618.42,245.88c-4.71-1.26-14.08,2.35-17.42,5s-3.7,6.69-1.13,9.64Z"/><path class="cls-13" d="M618.37,245.84c1.61,3.72-3,11.11-6.31,13.73a11.63,11.63,0,0,1-12.24.9Z"/><path class="cls-12" d="M618.42,263.05c-4.71-1.26-14.08,2.35-17.42,5s-3.7,6.69-1.13,9.64Z"/><path class="cls-13" d="M618.37,263c1.61,3.72-3,11.11-6.31,13.73a11.61,11.61,0,0,1-12.24.89Z"/><path class="cls-12" d="M618.42,280.22c-4.71-1.27-14.08,2.35-17.42,5s-3.7,6.69-1.13,9.64Z"/><path class="cls-13" d="M618.37,280.18c1.61,3.72-3,11.11-6.31,13.73a11.63,11.63,0,0,1-12.24.9Z"/><path class="cls-12" d="M615.12,300c-3.87-1-11.59,1.93-14.32,4.09a5.29,5.29,0,0,0-.93,7.93Z"/><path class="cls-13" d="M615.08,300c1.32,3.05-2.45,9.13-5.19,11.29a9.54,9.54,0,0,1-10.06.73Z"/><path class="cls-12" d="M578.84,245.88c4.72-1.26,14.09,2.35,17.42,5s3.7,6.69,1.13,9.64Z"/><path class="cls-13" d="M578.9,245.84c-1.61,3.72,3,11.11,6.31,13.73a11.61,11.61,0,0,0,12.23.9Z"/><path class="cls-12" d="M578.84,263.05c4.72-1.26,14.09,2.35,17.42,5s3.7,6.69,1.13,9.64Z"/><path class="cls-13" d="M578.9,263c-1.61,3.72,3,11.11,6.31,13.73a11.59,11.59,0,0,0,12.23.89Z"/><path class="cls-12" d="M578.84,280.22c4.72-1.27,14.09,2.35,17.42,5s3.7,6.69,1.13,9.64Z"/><path class="cls-13" d="M578.9,280.18c-1.61,3.72,3,11.11,6.31,13.73a11.61,11.61,0,0,0,12.23.9Z"/><path class="cls-12" d="M582.15,300c3.87-1,11.58,1.93,14.32,4.09a5.29,5.29,0,0,1,.93,7.93Z"/><path class="cls-13" d="M597.11,311.46a9.11,9.11,0,0,1-9.62-.7c-2.61-2.07-6.22-7.91-5-10.84Z"/><path class="cls-12" d="M646.39,314.51a1,1,0,0,1-1.07.85h0a1,1,0,0,1-1.08-.85V242a1,1,0,0,1,1.08-.85h0a1,1,0,0,1,1.07.85Z"/><ellipse class="cls-12" cx="645.32" cy="316.89" rx="4.23" ry="3.34"/><path class="cls-12" d="M645.36,222.7c-4.47,1.73-7.86,9.51-7.86,13.22s3.39,6.8,7.86,7.46Z"/><path class="cls-13" d="M645.28,222.7c4.47,1.73,7.85,9.51,7.85,13.22s-3.38,6.8-7.85,7.46Z"/><path class="cls-12" d="M665.11,245.88c-4.72-1.26-14.09,2.35-17.42,5s-3.7,6.69-1.13,9.64Z"/><path class="cls-13" d="M665.06,245.84c1.6,3.72-3,11.11-6.31,13.73a11.63,11.63,0,0,1-12.24.9Z"/><path class="cls-12" d="M665.11,263.05c-4.72-1.26-14.09,2.35-17.42,5s-3.7,6.69-1.13,9.64Z"/><path class="cls-13" d="M665.06,263c1.6,3.72-3,11.11-6.31,13.73a11.61,11.61,0,0,1-12.24.89Z"/><path class="cls-12" d="M665.11,280.22c-4.72-1.27-14.09,2.35-17.42,5s-3.7,6.69-1.13,9.64Z"/><path class="cls-13" d="M665.06,280.18c1.6,3.72-3,11.11-6.31,13.73a11.63,11.63,0,0,1-12.24.9Z"/><path class="cls-12" d="M661.8,300c-3.87-1-11.58,1.93-14.31,4.09a5.29,5.29,0,0,0-.94,7.93Z"/><path class="cls-13" d="M661.76,300c1.32,3.05-2.45,9.13-5.19,11.29a9.54,9.54,0,0,1-10.06.73Z"/><path class="cls-12" d="M625.53,245.88c4.71-1.26,14.08,2.35,17.42,5s3.7,6.69,1.13,9.64Z"/><path class="cls-13" d="M625.58,245.84c-1.61,3.72,3,11.11,6.31,13.73a11.63,11.63,0,0,0,12.24.9Z"/><path class="cls-12" d="M625.53,263.05c4.71-1.26,14.08,2.35,17.42,5s3.7,6.69,1.13,9.64Z"/><path class="cls-13" d="M625.58,263c-1.61,3.72,3,11.11,6.31,13.73a11.61,11.61,0,0,0,12.24.89Z"/><path class="cls-12" d="M625.53,280.22c4.71-1.27,14.08,2.35,17.42,5s3.7,6.69,1.13,9.64Z"/><path class="cls-13" d="M625.58,280.18c-1.61,3.72,3,11.11,6.31,13.73a11.63,11.63,0,0,0,12.24.9Z"/><path class="cls-12" d="M628.83,300c3.88-1,11.59,1.93,14.32,4.09s3.05,5.5.93,7.93Z"/><path class="cls-13" d="M643.8,311.46a9.11,9.11,0,0,1-9.62-.7c-2.62-2.07-6.22-7.91-5-10.84Z"/><path class="cls-12" d="M687.89,295.52a1,1,0,0,1-1.07.85h0a1,1,0,0,1-1.08-.85V223a1,1,0,0,1,1.08-.85h0a1,1,0,0,1,1.07.85Z"/><ellipse class="cls-12" cx="686.82" cy="297.9" rx="4.23" ry="3.34"/><path class="cls-12" d="M686.86,203.71c-4.47,1.73-7.86,9.51-7.86,13.22s3.39,6.8,7.86,7.46Z"/><path class="cls-13" d="M686.78,203.71c4.47,1.73,7.85,9.51,7.85,13.22s-3.39,6.8-7.85,7.46Z"/><path class="cls-12" d="M706.6,226.89c-4.71-1.26-14.08,2.35-17.42,5s-3.7,6.69-1.12,9.65Z"/><path class="cls-13" d="M706.55,226.85c1.61,3.72-3,11.11-6.3,13.73a11.63,11.63,0,0,1-12.24.9Z"/><path class="cls-12" d="M706.6,244.06c-4.71-1.26-14.08,2.35-17.42,5s-3.7,6.69-1.12,9.64Z"/><path class="cls-13" d="M706.55,244c1.61,3.72-3,11.11-6.3,13.74a11.65,11.65,0,0,1-12.24.89Z"/><path class="cls-12" d="M706.6,261.23c-4.71-1.27-14.08,2.35-17.42,5s-3.7,6.69-1.12,9.64Z"/><path class="cls-13" d="M706.55,261.19c1.61,3.72-3,11.11-6.3,13.73a11.63,11.63,0,0,1-12.24.9Z"/><path class="cls-12" d="M703.3,281c-3.87-1-11.58,1.93-14.32,4.09a5.29,5.29,0,0,0-.93,7.93Z"/><path class="cls-13" d="M703.26,281c1.32,3-2.45,9.13-5.19,11.29A9.54,9.54,0,0,1,688,293Z"/><path class="cls-12" d="M667,226.89c4.71-1.26,14.08,2.35,17.42,5s3.7,6.69,1.12,9.65Z"/><path class="cls-13" d="M667.08,226.85c-1.61,3.72,3,11.11,6.31,13.73a11.61,11.61,0,0,0,12.23.9Z"/><path class="cls-12" d="M667,244.06c4.71-1.26,14.08,2.35,17.42,5s3.7,6.69,1.12,9.64Z"/><path class="cls-13" d="M667.08,244c-1.61,3.72,3,11.11,6.31,13.74a11.63,11.63,0,0,0,12.23.89Z"/><path class="cls-12" d="M667,261.23c4.71-1.27,14.08,2.35,17.42,5s3.7,6.69,1.12,9.64Z"/><path class="cls-13" d="M667.08,261.19c-1.61,3.72,3,11.11,6.31,13.73a11.61,11.61,0,0,0,12.23.9Z"/><path class="cls-12" d="M670.33,281c3.88-1,11.58,1.93,14.32,4.09s3.05,5.5.93,7.93Z"/><path class="cls-13" d="M685.29,292.48a9.09,9.09,0,0,1-9.61-.71c-2.62-2.07-6.22-7.91-5-10.84Z"/><path class="cls-13" d="M588.35,229.31h0a6.51,6.51,0,0,0,7.86-.71c2.14-2,5.08-7.65,4.09-10.53l0,0h0v0l0,0c-3.07-.93-9.06,1.83-11.2,3.84a5.51,5.51,0,0,0-.83,1v-7a.91.91,0,0,0,.07.14h0s0,0,0,0h0a6.51,6.51,0,0,0,7.86-.71c2.14-2,5.08-7.65,4.09-10.53l0,0h0a0,0,0,0,1,0,0l0,0c-3.07-.93-9.06,1.83-11.2,3.84a5.51,5.51,0,0,0-.83,1v-7a5.87,5.87,0,0,0,4.35-5.55c0-2.85-2.16-8.79-5-10.17v0h-.05v0c-2.86,1.38-5,7.32-5,10.17a5.86,5.86,0,0,0,4.35,5.55v7a5.25,5.25,0,0,0-.83-1c-2.14-2-8.14-4.77-11.2-3.84l0,0s0,0,0,0h0l0,0c-1,2.88,2,8.52,4.08,10.53a6.51,6.51,0,0,0,7.86.71h0s0,0,0,0h0s.05-.09.08-.14v7a5.25,5.25,0,0,0-.83-1c-2.14-2-8.14-4.77-11.2-3.84l0,0s0,0,0,0h0l0,0c-1,2.88,2,8.52,4.08,10.53a6.53,6.53,0,0,0,7.87.71h0v0h0s.05-.09.08-.14v7a5.51,5.51,0,0,0-.83-1c-2.14-2-8.14-4.78-11.2-3.85l0,0s0,0,0,0h0l0,0c-1,2.88,2,8.52,4.08,10.54a6.53,6.53,0,0,0,7.87.71h0v0h0l.08-.14v8.15a4.65,4.65,0,0,0-.7-.85c-1.76-1.66-6.69-3.93-9.2-3.17h0v0h0l0,0c-.82,2.37,1.6,7,3.36,8.66a5.34,5.34,0,0,0,6.46.59h0c0-.05.05-.1.08-.14v1.46a2.6,2.6,0,0,0-2,2.48,2.74,2.74,0,0,0,5.47,0,2.62,2.62,0,0,0-2-2.49v-1.45s0,.09.08.14h0v0h0a5.35,5.35,0,0,0,6.47-.59c1.76-1.65,4.17-6.3,3.35-8.66l0,0h0v0h0c-2.51-.76-7.45,1.51-9.2,3.17a4.71,4.71,0,0,0-.71.85v-8.15s0,.09.08.14h0v0h0a6.51,6.51,0,0,0,7.86-.71c2.14-2,5.07-7.66,4.09-10.54l0,0h0v0l0,0c-3.06-.93-9.06,1.84-11.19,3.85a6,6,0,0,0-.84,1v-7s0,.09.08.14h0Z"/><path class="cls-13" d="M654.94,226.72h0a6.53,6.53,0,0,0,7.87-.71c2.13-2,5.07-7.65,4.08-10.53l0,0h0v0l0,0c-3.07-.93-9.06,1.83-11.2,3.84a5.51,5.51,0,0,0-.83,1v-7a.64.64,0,0,0,.08.14h0v0h0a6.53,6.53,0,0,0,7.87-.71c2.13-2,5.07-7.65,4.08-10.53l0,0h0a0,0,0,0,1,0,0l0,0c-3.07-.93-9.06,1.83-11.2,3.84a5.25,5.25,0,0,0-.83,1v-7a5.88,5.88,0,0,0,4.35-5.56c0-2.85-2.16-8.79-5-10.17v0h0v0c-2.87,1.38-5,7.32-5,10.17a5.9,5.9,0,0,0,4.35,5.56v7a5.25,5.25,0,0,0-.83-1c-2.14-2-8.14-4.77-11.2-3.84l0,0s0,0,0,0h0l0,0c-1,2.88,2,8.52,4.09,10.53a6.51,6.51,0,0,0,7.86.71h0a0,0,0,0,0,0,0h0s0-.09.08-.14v7a5.25,5.25,0,0,0-.83-1c-2.14-2-8.14-4.77-11.2-3.84l0,0s0,0,0,0h0l0,0c-1,2.88,2,8.52,4.09,10.53a6.51,6.51,0,0,0,7.86.71h0v0h0s0-.09.08-.14v7a5.51,5.51,0,0,0-.83-1c-2.14-2-8.14-4.77-11.2-3.85l0,0s0,0,0,0h0l0,0c-1,2.87,2,8.51,4.09,10.53a6.51,6.51,0,0,0,7.86.71h0v0h0l.08-.14V248a4.65,4.65,0,0,0-.7-.85c-1.76-1.66-6.69-3.93-9.2-3.17h0v0h0l0,0c-.81,2.37,1.6,7,3.36,8.66a5.34,5.34,0,0,0,6.46.59h0c0-.05,0-.1.08-.14v1.46a2.6,2.6,0,0,0-2,2.48,2.74,2.74,0,0,0,5.47,0,2.61,2.61,0,0,0-2-2.49V253s0,.09.09.14h0l0,0h0a5.34,5.34,0,0,0,6.46-.59c1.76-1.65,4.18-6.29,3.36-8.66l0,0h0v0h0c-2.51-.76-7.44,1.51-9.2,3.17a4.65,4.65,0,0,0-.7.85V239.8s0,.09.08.14h0v0h0a6.53,6.53,0,0,0,7.87-.71c2.13-2,5.07-7.66,4.08-10.53l0,0h0v0l0,0c-3.07-.92-9.06,1.84-11.2,3.85a5.51,5.51,0,0,0-.83,1v-7l.08.14h0Z"/><line class="cls-14" x1="588.42" y1="277.48" x2="588.42" y2="235.34"/><path class="cls-15" d="M589.2,205.06a9.56,9.56,0,0,0-1,2.17,11.73,11.73,0,0,0-.62,3.26,5.42,5.42,0,0,0,.77,3.48,1.72,1.72,0,0,0,.67.53.76.76,0,0,0,.43.1.61.61,0,0,0,.35-.07,1.15,1.15,0,0,0,.52-.68,2.77,2.77,0,0,0,.05-.78,2.89,2.89,0,0,0-1.16-2.61,6,6,0,0,1-.8-.94,3,3,0,0,1,0-1.58,7.35,7.35,0,0,1,.46-1.49,7.88,7.88,0,0,0,.47-1.32C589.37,205,589.32,204.93,589.2,205.06Z"/><path class="cls-15" d="M588.41,236.06a3.47,3.47,0,0,0-1-1.58,4.67,4.67,0,0,0-1.58-1l-.35-.07a1,1,0,0,1-.65-.31c-.87-.79-1.3-2.26-1.45-4.9v-.28l.15.53a11.2,11.2,0,0,0,.86,2.19,7.23,7.23,0,0,0,2.61,3.08,1.56,1.56,0,0,0,.8.17c.41,0,.52,0,.61-.21s.06-.16.06-.52a1.63,1.63,0,0,0-.08-.64,3.76,3.76,0,0,0-.93-1.47,4.27,4.27,0,0,0-2.15-1.18c-.11,0-.16,0-.34-.21a5.11,5.11,0,0,1-.39-.42,7.77,7.77,0,0,1-.93-1.84,17.76,17.76,0,0,1-.26-2.55c0-.49,0-.63.06-.43l.24.79a10.55,10.55,0,0,0,1,2.49,7.23,7.23,0,0,0,1.39,1.84,2.43,2.43,0,0,0,1.83.85c.44,0,.55-.14.57-.57a2.4,2.4,0,0,0-.38-1.4,4,4,0,0,0-.88-1.06,3.83,3.83,0,0,0-1.65-.93c-.51-.13-.56-.17-1-.76a5.62,5.62,0,0,1-1.16-3.5c0-.54-.06-1.4,0-1.37s.09.24.17.51a10.58,10.58,0,0,0,2.09,4.24,3.73,3.73,0,0,0,1.59,1.24,1.44,1.44,0,0,0,.54.06,1,1,0,0,0,.46,0c.2-.09.23-.19.23-.64a2,2,0,0,0-.24-1,4,4,0,0,0-1-1.33,3.83,3.83,0,0,0-1.65-.9c-.5-.13-.56-.18-1.11-.93a3.67,3.67,0,0,1-.72-1.42,11.61,11.61,0,0,1-.31-2.81l0-.49.06.17.24.78a12.87,12.87,0,0,0,1,2.55,6.42,6.42,0,0,0,2.13,2.35,1.75,1.75,0,0,0,1,.22c.51,0,.53,0,.62-.22a2.32,2.32,0,0,0-.25-1.66,4.49,4.49,0,0,0-2.69-2,1.36,1.36,0,0,1-.33-.12,5.4,5.4,0,0,1-1.08-1.32,5.93,5.93,0,0,1-.6-2.36c0-.31-.09-1.52-.09-1.75v-.13l.06.18a14.56,14.56,0,0,0,1.29,3.34,7.19,7.19,0,0,0,1.24,1.66,4,4,0,0,0,1.27.93c.55.24,1,.18,1.17-.17.06-.11.06-.15.06-.49a1.61,1.61,0,0,0-.08-.62,3.67,3.67,0,0,0-.61-1.09,6.42,6.42,0,0,0-1-1,3.11,3.11,0,0,0-1.31-.62.72.72,0,0,1-.27-.08,2.86,2.86,0,0,1-.65-.72c-.81-1.08-1-2-1.12-4.18a2.26,2.26,0,0,1,0-.6,6.68,6.68,0,0,1,.33,1,9.78,9.78,0,0,0,2,3.9,3.63,3.63,0,0,0,1.89,1.25.71.71,0,0,0,.36,0c.35-.08.48-.3.48-.75a2.19,2.19,0,0,0-.16-.84,3.68,3.68,0,0,0-1.09-1.47,3.78,3.78,0,0,0-1.83-1,.92.92,0,0,1-.58-.36,4.72,4.72,0,0,1-1-1.58,8.81,8.81,0,0,1-.46-2.94,3.51,3.51,0,0,0-.09-1.06s0,0,0,.09a11.22,11.22,0,0,0-.05,2.63,7.6,7.6,0,0,1,0,1.72,7.1,7.1,0,0,0,0,1.73,7.68,7.68,0,0,1,0,1.8,7.1,7.1,0,0,0,0,1.73,7.28,7.28,0,0,1,0,1.75,7.54,7.54,0,0,0,0,1.78,7.31,7.31,0,0,1,0,1.75,7.46,7.46,0,0,0,0,1.77,7,7,0,0,1,0,1.72,7,7,0,0,0,0,1.65c0,.23,0,.59,0,1.12a21.49,21.49,0,0,0,.26,3.39,4.87,4.87,0,0,0,.31,1.53c.42,1.2,1.58,2,2.24,2.82"/><path class="cls-15" d="M591.28,206.58c0,.07,0,.12.11.68a6.93,6.93,0,0,1,.23,1.52,9.53,9.53,0,0,1-.41,2.94c-.18.68-.18.65,0,.65s.28-.07.44-.45a10.93,10.93,0,0,0,.48-2.7,7.5,7.5,0,0,0-.39-2.36,1.07,1.07,0,0,0-.09-.3.43.43,0,0,0-.21,0C591.35,206.53,591.31,206.54,591.28,206.58Z"/><path class="cls-15" d="M585.75,206.83s-.09.17-.24.85a6.2,6.2,0,0,0-.28,1.92,5.11,5.11,0,0,0,0,.89,4.75,4.75,0,0,0,.24,1,.38.38,0,0,0,.37.08c.17,0,.17,0,.09-.48a9.93,9.93,0,0,1-.17-2.38,4.39,4.39,0,0,1,.28-1.34,3.27,3.27,0,0,0,.14-.46.14.14,0,0,0-.05-.09A.47.47,0,0,0,585.75,206.83Z"/><path class="cls-15" d="M593.9,209.13c0,.07-.06.37-.09.67a6.51,6.51,0,0,1-1.14,3.3l-.49.89-.3,0a2.85,2.85,0,0,0-.85.22,4.58,4.58,0,0,0-2,1.8,1.7,1.7,0,0,0-.27,1c0,.66,0,.81.26.91a1.9,1.9,0,0,0,1.19-.12,7.16,7.16,0,0,0,2.5-2.9,9.65,9.65,0,0,0,1.22-3.67A7.7,7.7,0,0,0,594,209,.18.18,0,0,0,593.9,209.13Z"/><path class="cls-15" d="M593.94,212.57a2.71,2.71,0,0,0-.13.75,7.66,7.66,0,0,1-.38,1.85,5.39,5.39,0,0,1-1.47,2.29h0a3.66,3.66,0,0,0-2,1,4.11,4.11,0,0,0-1.25,1.78c-.13.46-.05,1,.16,1.17.06,0,.14,0,.48,0a1.57,1.57,0,0,0,.62-.06,2.05,2.05,0,0,0,.78-.46,10.81,10.81,0,0,0,2.41-3.5,10.47,10.47,0,0,0,.79-3.26,11.79,11.79,0,0,0,0-1.61S594,212.55,593.94,212.57Z"/><path class="cls-15" d="M593.89,216.14a2.69,2.69,0,0,0-.06.48,6.11,6.11,0,0,1-.25,1.5,8,8,0,0,1-1.05,2.24c-.29.44-.37.5-.7.59a4.42,4.42,0,0,0-1.73.87,3.31,3.31,0,0,0-1.44,2.52.62.62,0,0,0,.07.39c.09.17.17.2.6.2a1.79,1.79,0,0,0,1.42-.48,10.71,10.71,0,0,0,2.29-3.2,10.41,10.41,0,0,0,.85-3.18,7.7,7.7,0,0,0,.12-1.91C594,216.08,593.93,216.07,593.89,216.14Z"/><path class="cls-15" d="M593.87,219.74a1.39,1.39,0,0,0,0,.3,8.64,8.64,0,0,1-.46,2.26,6.89,6.89,0,0,1-1.24,2,1,1,0,0,1-.33.13,3.38,3.38,0,0,0-1.09.44,4.68,4.68,0,0,0-2,2.24,1.69,1.69,0,0,0,.06,1.22l.07.08h.45a1.77,1.77,0,0,0,1.42-.45,9.65,9.65,0,0,0,1.92-2.61,7.29,7.29,0,0,0,.94-2.22,11.83,11.83,0,0,0,.4-3.46C594,219.58,593.9,219.6,593.87,219.74Z"/><path class="cls-15" d="M593.93,223a3.25,3.25,0,0,0-.14.84,6.78,6.78,0,0,1-.61,2.35,10.24,10.24,0,0,1-1,1.6c-.09.09-.18.12-.47.18a4.63,4.63,0,0,0-2.74,2,2.76,2.76,0,0,0-.35,1.39c0,.29.08.41.25.49a1.78,1.78,0,0,0,1.23-.08,6.75,6.75,0,0,0,2.54-2.94,9.48,9.48,0,0,0,1.16-3.26,13.57,13.57,0,0,0,.18-1.91C594,223.09,594,222.87,593.93,223Z"/><path class="cls-15" d="M589.93,235.4c.76-.26,1.54-1.06,2.47-2.55a9.87,9.87,0,0,0,1.49-4.16,13,13,0,0,0,.1-2.15c0-.08-.09,0-.12.09a2.93,2.93,0,0,0,0,.52,6.93,6.93,0,0,1-1.37,3.78c-.34.56-.26.5-.71.55a2.42,2.42,0,0,0-1.56.77,6.18,6.18,0,0,0-1.36,1.68,2.74,2.74,0,0,0-.17,1.11"/><path class="cls-15" d="M588.73,236.43c1.31-.8.3.36,2.94-2.82a11.39,11.39,0,0,0,1.16-2c0-.06,0-.09-.07-.05a6.14,6.14,0,0,0-.5.75,7,7,0,0,1-2.47,2.42c-.76.52-.87.56-1.13.45"/><line class="cls-14" x1="562.07" y1="289.76" x2="562.07" y2="247.62"/><path class="cls-15" d="M562.84,217.34a9.09,9.09,0,0,0-1,2.16,11.8,11.8,0,0,0-.62,3.26,5.34,5.34,0,0,0,.76,3.48,1.69,1.69,0,0,0,.68.54.73.73,0,0,0,.42.1.57.57,0,0,0,.35-.07,1.19,1.19,0,0,0,.53-.69,2.63,2.63,0,0,0,0-.77,2.89,2.89,0,0,0-1.17-2.62,6.84,6.84,0,0,1-.8-.93,2.93,2.93,0,0,1,0-1.58,7.06,7.06,0,0,1,.45-1.49,7.51,7.51,0,0,0,.47-1.33C563,217.23,563,217.21,562.84,217.34Z"/><path class="cls-15" d="M562.05,248.33a3.41,3.41,0,0,0-1-1.57,4.58,4.58,0,0,0-1.58-1l-.34-.08a1.06,1.06,0,0,1-.66-.3c-.86-.79-1.29-2.26-1.44-4.9l0-.28.16.53a10.52,10.52,0,0,0,.86,2.18,7.2,7.2,0,0,0,2.6,3.09,1.62,1.62,0,0,0,.81.17c.41,0,.52,0,.61-.22s.06-.16.05-.51a2,2,0,0,0-.07-.65,3.78,3.78,0,0,0-.93-1.46,3.63,3.63,0,0,0-1.35-.92,3.36,3.36,0,0,0-.81-.26c-.11,0-.15,0-.34-.21a3.7,3.7,0,0,1-.38-.42,7.41,7.41,0,0,1-.93-1.84,16.54,16.54,0,0,1-.26-2.55c0-.49,0-.63.06-.43l.23.79a11.47,11.47,0,0,0,1,2.49,7.49,7.49,0,0,0,1.4,1.84,2.43,2.43,0,0,0,1.83.85c.44,0,.55-.14.57-.58a2.49,2.49,0,0,0-.38-1.4,4.28,4.28,0,0,0-.88-1,3.76,3.76,0,0,0-1.66-.93c-.5-.13-.55-.17-1-.76a5.68,5.68,0,0,1-1.16-3.5c0-.54-.06-1.4,0-1.37l.17.51a10.72,10.72,0,0,0,2.08,4.24,3.72,3.72,0,0,0,1.59,1.23,1.25,1.25,0,0,0,.54.07,1.09,1.09,0,0,0,.47,0c.19-.09.23-.19.23-.64a2.08,2.08,0,0,0-.24-1,4.13,4.13,0,0,0-1-1.33,3.89,3.89,0,0,0-1.65-.9c-.5-.13-.57-.18-1.11-.93a3.7,3.7,0,0,1-.73-1.42A12.73,12.73,0,0,1,557,230l0-.5.06.18c0,.1.15.45.25.78a12.87,12.87,0,0,0,1,2.55,6.42,6.42,0,0,0,2.13,2.35,1.71,1.71,0,0,0,1,.22c.51,0,.53,0,.62-.22a2.27,2.27,0,0,0-.26-1.66,4.4,4.4,0,0,0-2.69-2.05,2.2,2.2,0,0,1-.32-.12,5.64,5.64,0,0,1-1.09-1.32,6,6,0,0,1-.6-2.36c0-.31-.09-1.52-.08-1.75V226l.05.18a14.44,14.44,0,0,0,1.3,3.34,7.38,7.38,0,0,0,1.23,1.66,4.33,4.33,0,0,0,1.27.93c.56.24,1,.18,1.17-.17.06-.11.07-.15.07-.49a1.4,1.4,0,0,0-.09-.62,3.43,3.43,0,0,0-.6-1.09,6.87,6.87,0,0,0-1-1,3.22,3.22,0,0,0-1.31-.62.78.78,0,0,1-.28-.08,3.11,3.11,0,0,1-.64-.72c-.81-1.08-1.06-2-1.12-4.18a1.79,1.79,0,0,1,0-.6,6.68,6.68,0,0,1,.33,1,9.78,9.78,0,0,0,2,3.9,3.59,3.59,0,0,0,1.89,1.25.71.71,0,0,0,.36,0c.34-.09.48-.3.47-.75a2,2,0,0,0-.16-.84,4.78,4.78,0,0,0-2.91-2.51.9.9,0,0,1-.58-.36,4.75,4.75,0,0,1-1-1.58,9.13,9.13,0,0,1-.46-2.94,3.38,3.38,0,0,0-.08-1.06s0,0,0,.09a11.73,11.73,0,0,0-.06,2.63,7.51,7.51,0,0,1,0,1.72,7.1,7.1,0,0,0,0,1.73,7.68,7.68,0,0,1,0,1.8,7.1,7.1,0,0,0,0,1.73,7.28,7.28,0,0,1,0,1.75,7.54,7.54,0,0,0,0,1.78,7.3,7.3,0,0,1,0,1.75,6.54,6.54,0,0,0,0,1.77,7,7,0,0,1,0,1.71,7.77,7.77,0,0,0,0,1.66,9.79,9.79,0,0,1,0,1.11,24.3,24.3,0,0,0,.26,3.4,5.62,5.62,0,0,0,.31,1.53c.43,1.2,1.59,2,2.25,2.82"/><path class="cls-15" d="M564.93,218.86c0,.07,0,.12.1.68a5.91,5.91,0,0,1,.23,1.52,9.27,9.27,0,0,1-.41,2.94c-.18.68-.18.65,0,.65s.29-.07.45-.45a10.93,10.93,0,0,0,.48-2.7,7.5,7.5,0,0,0-.39-2.36c0-.15-.08-.28-.09-.3a.43.43,0,0,0-.21,0C565,218.81,565,218.82,564.93,218.86Z"/><path class="cls-15" d="M559.4,219.11s-.09.17-.24.85a6.89,6.89,0,0,0-.24,2.81,4,4,0,0,0,.25,1,.36.36,0,0,0,.36.08c.17,0,.18,0,.1-.49a10.43,10.43,0,0,1-.18-2.37,4.53,4.53,0,0,1,.29-1.35c.07-.22.14-.42.14-.45a.22.22,0,0,0-.06-.1A.45.45,0,0,0,559.4,219.11Z"/><path class="cls-15" d="M567.54,221.41c0,.07-.06.37-.09.67a6.43,6.43,0,0,1-1.13,3.3l-.5.89-.3,0a2.94,2.94,0,0,0-.85.22,4.68,4.68,0,0,0-2,1.79,1.72,1.72,0,0,0-.27,1c0,.67,0,.82.26.92a1.91,1.91,0,0,0,1.19-.13,7,7,0,0,0,2.51-2.89,9.82,9.82,0,0,0,1.22-3.67,7.69,7.69,0,0,0,.07-2.26A.24.24,0,0,0,567.54,221.41Z"/><path class="cls-15" d="M567.59,224.85a3,3,0,0,0-.14.75,6.8,6.8,0,0,1-.38,1.85,5.39,5.39,0,0,1-1.47,2.29h0a3.71,3.71,0,0,0-2,1,4,4,0,0,0-1.25,1.79c-.13.46-.05,1,.15,1.17a1.31,1.31,0,0,0,.49,0,1.57,1.57,0,0,0,.62-.07,1.9,1.9,0,0,0,.78-.45,10.75,10.75,0,0,0,2.41-3.51,10.61,10.61,0,0,0,.79-3.25,11.46,11.46,0,0,0,0-1.61S567.6,224.83,567.59,224.85Z"/><path class="cls-15" d="M567.54,228.42a1.92,1.92,0,0,0-.06.47,5.7,5.7,0,0,1-.26,1.51,7.76,7.76,0,0,1-1,2.23c-.29.44-.38.51-.7.6a4.29,4.29,0,0,0-1.73.87,3.27,3.27,0,0,0-1.44,2.52.72.72,0,0,0,.06.39c.09.17.18.2.61.2a1.8,1.8,0,0,0,1.42-.48,10.88,10.88,0,0,0,2.29-3.2,11,11,0,0,0,.85-3.19,8.15,8.15,0,0,0,.12-1.9C567.63,228.36,567.58,228.35,567.54,228.42Z"/><path class="cls-15" d="M567.51,232a2.53,2.53,0,0,0,0,.3,8.59,8.59,0,0,1-.45,2.26,7,7,0,0,1-1.24,2,1.07,1.07,0,0,1-.33.13,3.43,3.43,0,0,0-1.1.44,4.66,4.66,0,0,0-2,2.24,1.65,1.65,0,0,0,.05,1.22l.07.07H563a1.75,1.75,0,0,0,1.42-.45,9.6,9.6,0,0,0,1.92-2.61,7.29,7.29,0,0,0,.94-2.22,11.62,11.62,0,0,0,.41-3.47C567.61,231.86,567.55,231.87,567.51,232Z"/><path class="cls-15" d="M567.57,235.31a4.13,4.13,0,0,0-.13.84,6.79,6.79,0,0,1-.62,2.35,10,10,0,0,1-1,1.6.88.88,0,0,1-.47.18,4.57,4.57,0,0,0-2.74,2,2.66,2.66,0,0,0-.35,1.39c0,.29.07.41.24.49a1.81,1.81,0,0,0,1.24-.08,6.87,6.87,0,0,0,2.54-2.94,9.25,9.25,0,0,0,1.15-3.27,12,12,0,0,0,.18-1.9C567.67,235.36,567.64,235.14,567.57,235.31Z"/><path class="cls-15" d="M563.57,247.68c.76-.26,1.54-1.07,2.48-2.55a9.87,9.87,0,0,0,1.49-4.16,13,13,0,0,0,.1-2.15c0-.08-.1,0-.13.09s0,.31,0,.52a6.9,6.9,0,0,1-1.36,3.78c-.34.56-.26.5-.72.55a2.37,2.37,0,0,0-1.56.77,5.83,5.83,0,0,0-1.35,1.68,2.43,2.43,0,0,0-.17,1.11"/><path class="cls-15" d="M562.38,248.71c1.31-.8.29.36,2.94-2.82a12.2,12.2,0,0,0,1.15-2c0-.07,0-.09-.06-.05a5.34,5.34,0,0,0-.5.74,6.92,6.92,0,0,1-2.47,2.43c-.76.52-.88.56-1.14.45"/><line class="cls-14" x1="616.09" y1="261.94" x2="616.09" y2="219.81"/><path class="cls-15" d="M616.86,189.53a8.89,8.89,0,0,0-1,2.16,11.8,11.8,0,0,0-.62,3.26,5.36,5.36,0,0,0,.76,3.48,1.69,1.69,0,0,0,.68.54.78.78,0,0,0,.42.09.57.57,0,0,0,.35-.07,1.17,1.17,0,0,0,.53-.68,2.52,2.52,0,0,0,0-.77,2.85,2.85,0,0,0-1.16-2.62,7.4,7.4,0,0,1-.8-.94,2.93,2.93,0,0,1,0-1.58,7,7,0,0,1,.45-1.48,7.82,7.82,0,0,0,.47-1.33C617,189.42,617,189.4,616.86,189.53Z"/><path class="cls-15" d="M616.07,220.52a3.36,3.36,0,0,0-1-1.57,4.88,4.88,0,0,0-1.58-1l-.35-.07a1,1,0,0,1-.65-.31c-.86-.78-1.29-2.26-1.44-4.9l0-.28.16.53a10.61,10.61,0,0,0,.86,2.19,7.1,7.1,0,0,0,2.6,3.08,1.6,1.6,0,0,0,.81.17c.41,0,.52,0,.61-.21s.06-.16,0-.51a2,2,0,0,0-.07-.65,4.16,4.16,0,0,0-2.28-2.39,3.26,3.26,0,0,0-.81-.25c-.11,0-.15-.05-.34-.22a2.53,2.53,0,0,1-.38-.42,7.35,7.35,0,0,1-.93-1.83,16.54,16.54,0,0,1-.26-2.55c0-.49,0-.64.06-.43l.23.79a11.47,11.47,0,0,0,1,2.49,7.93,7.93,0,0,0,1.39,1.84,2.45,2.45,0,0,0,1.83.84c.45,0,.56-.13.57-.57a2.33,2.33,0,0,0-.38-1.4,4.27,4.27,0,0,0-.87-1.06,3.86,3.86,0,0,0-1.66-.93c-.5-.12-.55-.17-1-.76a5.63,5.63,0,0,1-1.16-3.49c0-.55-.06-1.41,0-1.37l.17.5A10.72,10.72,0,0,0,613.3,210a3.76,3.76,0,0,0,1.59,1.24,1.47,1.47,0,0,0,.54.06c.3,0,.37,0,.47-.05s.23-.18.23-.63a2.06,2.06,0,0,0-.24-1,4.16,4.16,0,0,0-1-1.34,3.87,3.87,0,0,0-1.65-.89c-.5-.13-.57-.19-1.11-.93a3.74,3.74,0,0,1-.73-1.43,12.65,12.65,0,0,1-.31-2.81l0-.49.06.18c0,.09.15.44.25.77a12.41,12.41,0,0,0,1,2.56,6.42,6.42,0,0,0,2.13,2.35,1.8,1.8,0,0,0,1,.22c.51,0,.53,0,.62-.22a2.3,2.3,0,0,0-.26-1.67,4.47,4.47,0,0,0-2.69-2.05,1.44,1.44,0,0,1-.32-.12,5.21,5.21,0,0,1-1.09-1.32,5.88,5.88,0,0,1-.6-2.35c0-.32-.09-1.53-.08-1.76v-.12l.05.17a14.58,14.58,0,0,0,1.3,3.35,7.32,7.32,0,0,0,1.23,1.65,4.21,4.21,0,0,0,1.27.94c.56.24,1,.18,1.17-.17.06-.11.07-.16.07-.49A1.45,1.45,0,0,0,616,203a3.54,3.54,0,0,0-.6-1.09,7.94,7.94,0,0,0-1-1,3,3,0,0,0-1.31-.62,1.07,1.07,0,0,1-.28-.08,3.35,3.35,0,0,1-.64-.72c-.82-1.09-1.06-2-1.12-4.18,0-.43,0-.62,0-.6a5.7,5.7,0,0,1,.33,1,9.83,9.83,0,0,0,2,3.91,3.51,3.51,0,0,0,1.89,1.24.72.72,0,0,0,.36,0c.34-.09.48-.3.47-.75a2,2,0,0,0-.16-.84,3.71,3.71,0,0,0-1.09-1.48,3.75,3.75,0,0,0-1.82-1,.9.9,0,0,1-.58-.35,5,5,0,0,1-1-1.58,9.19,9.19,0,0,1-.46-3c0-.8,0-1-.08-1s0,0-.06.08a12.54,12.54,0,0,0,0,2.64,7.42,7.42,0,0,1,0,1.71,6.22,6.22,0,0,0,0,1.73,7.69,7.69,0,0,1,0,1.8,6.22,6.22,0,0,0,0,1.73,7.36,7.36,0,0,1,0,1.76,6.54,6.54,0,0,0,0,1.77,7.39,7.39,0,0,1,0,1.76,6.46,6.46,0,0,0,0,1.76,7,7,0,0,1,0,1.72,7.17,7.17,0,0,0,0,1.66,9.57,9.57,0,0,1,0,1.11,24.19,24.19,0,0,0,.26,3.39,5.71,5.71,0,0,0,.31,1.54c.43,1.2,1.59,2,2.25,2.82"/><path class="cls-15" d="M619,191c-.05.08,0,.13.1.69a5.84,5.84,0,0,1,.23,1.51,9.33,9.33,0,0,1-.41,2.95c-.18.67-.18.65,0,.65s.29-.08.45-.46a12,12,0,0,0,.48-2.69,7.58,7.58,0,0,0-.39-2.37c0-.14-.08-.28-.09-.3a.6.6,0,0,0-.21,0C619,191,619,191,619,191Z"/><path class="cls-15" d="M613.42,191.29s-.09.17-.24.86a6.89,6.89,0,0,0-.24,2.81,4.58,4.58,0,0,0,.24,1,.42.42,0,0,0,.37.09c.17,0,.18-.05.1-.49a10.43,10.43,0,0,1-.18-2.37,4.53,4.53,0,0,1,.29-1.35c.07-.22.14-.42.14-.45a.18.18,0,0,0-.06-.1A.48.48,0,0,0,613.42,191.29Z"/><path class="cls-15" d="M621.56,193.6a6,6,0,0,0-.09.67,6.49,6.49,0,0,1-1.13,3.29l-.5.89-.3,0a2.93,2.93,0,0,0-.85.23,4.56,4.56,0,0,0-2.05,1.79,1.7,1.7,0,0,0-.27,1c0,.66,0,.81.26.92a1.91,1.91,0,0,0,1.19-.13,7,7,0,0,0,2.51-2.89,9.75,9.75,0,0,0,1.21-3.67,7.55,7.55,0,0,0,.08-2.27S621.58,193.54,621.56,193.6Z"/><path class="cls-15" d="M621.61,197a2.63,2.63,0,0,0-.14.76,6.81,6.81,0,0,1-.38,1.84,5.32,5.32,0,0,1-1.47,2.29h0a3.61,3.61,0,0,0-2,1,4.05,4.05,0,0,0-1.25,1.78c-.13.46-.06,1.05.15,1.17s.15,0,.49,0a1.57,1.57,0,0,0,.62-.07,2.16,2.16,0,0,0,.78-.45,10.8,10.8,0,0,0,2.4-3.51,10.39,10.39,0,0,0,.8-3.25,11.6,11.6,0,0,0,0-1.62S621.62,197,621.61,197Z"/><path class="cls-15" d="M621.56,200.6a2,2,0,0,0-.06.48,5.56,5.56,0,0,1-.26,1.5,7.69,7.69,0,0,1-1,2.24c-.29.44-.38.51-.7.59a4.19,4.19,0,0,0-1.73.88,3.25,3.25,0,0,0-1.44,2.52.7.7,0,0,0,.06.38c.09.17.18.2.61.2a1.8,1.8,0,0,0,1.42-.48,10.75,10.75,0,0,0,2.29-3.2,11,11,0,0,0,.85-3.18,8.19,8.19,0,0,0,.12-1.9C621.65,200.54,621.6,200.53,621.56,200.6Z"/><path class="cls-15" d="M621.53,204.21a2.33,2.33,0,0,0,0,.3,8.67,8.67,0,0,1-.45,2.26,7,7,0,0,1-1.24,2,.87.87,0,0,1-.33.13,3.67,3.67,0,0,0-1.1.44,4.7,4.7,0,0,0-2,2.24,1.64,1.64,0,0,0,.05,1.22l.07.08H617a1.76,1.76,0,0,0,1.42-.45,9.6,9.6,0,0,0,1.92-2.61,7.34,7.34,0,0,0,.94-2.23,11.94,11.94,0,0,0,.41-3.46C621.62,204,621.57,204.06,621.53,204.21Z"/><path class="cls-15" d="M621.59,207.49a3.61,3.61,0,0,0-.13.85,6.91,6.91,0,0,1-.62,2.35,9.42,9.42,0,0,1-1,1.59.81.81,0,0,1-.47.18,4.61,4.61,0,0,0-2.74,2,2.68,2.68,0,0,0-.35,1.39c0,.3.07.41.24.5a1.77,1.77,0,0,0,1.24-.09,6.81,6.81,0,0,0,2.54-2.94,9.19,9.19,0,0,0,1.15-3.26,12.21,12.21,0,0,0,.18-1.9C621.69,207.55,621.66,207.33,621.59,207.49Z"/><path class="cls-15" d="M617.59,219.86c.76-.26,1.54-1.06,2.48-2.55a9.82,9.82,0,0,0,1.49-4.16,12.91,12.91,0,0,0,.1-2.14c0-.09-.1,0-.13.09s0,.3,0,.51a6.88,6.88,0,0,1-1.36,3.78c-.34.57-.26.51-.72.56a2.41,2.41,0,0,0-1.56.76,6.1,6.1,0,0,0-1.35,1.68,2.61,2.61,0,0,0-.18,1.12"/><path class="cls-15" d="M616.4,220.9c1.3-.81.29.35,2.94-2.82a12.2,12.2,0,0,0,1.15-2c0-.07,0-.1-.06-.06a6.7,6.7,0,0,0-.5.75,7.08,7.08,0,0,1-2.47,2.43c-.76.51-.88.56-1.14.44"/><line class="cls-14" x1="603.12" y1="301.65" x2="603.12" y2="259.51"/><path class="cls-15" d="M603.9,229.23a8.65,8.65,0,0,0-1,2.16,11.8,11.8,0,0,0-.62,3.26,5.34,5.34,0,0,0,.76,3.48,1.69,1.69,0,0,0,.68.54.74.74,0,0,0,.42.1.57.57,0,0,0,.35-.07A1.15,1.15,0,0,0,605,238a2.63,2.63,0,0,0,0-.77,2.91,2.91,0,0,0-1.16-2.62,6.05,6.05,0,0,1-.8-.93,2.9,2.9,0,0,1,0-1.58,6.6,6.6,0,0,1,.46-1.49,8,8,0,0,0,.46-1.33C604.06,229.12,604,229.1,603.9,229.23Z"/><path class="cls-15" d="M603.1,260.22a3.36,3.36,0,0,0-1-1.57,4.77,4.77,0,0,0-1.58-1l-.34-.07a1.06,1.06,0,0,1-.66-.3c-.86-.79-1.29-2.27-1.44-4.91v-.28l.15.54a10.52,10.52,0,0,0,.86,2.18,7.2,7.2,0,0,0,2.6,3.09,1.62,1.62,0,0,0,.81.17c.41,0,.52,0,.61-.22s.06-.16.06-.51a2.2,2.2,0,0,0-.08-.65,3.78,3.78,0,0,0-.93-1.46,3.63,3.63,0,0,0-1.35-.92,3.45,3.45,0,0,0-.8-.26c-.12,0-.16,0-.35-.21a5,5,0,0,1-.38-.42,7.41,7.41,0,0,1-.93-1.84,16.54,16.54,0,0,1-.26-2.55c0-.49,0-.63.06-.43s.12.42.24.79a11,11,0,0,0,1,2.49,7.49,7.49,0,0,0,1.4,1.84,2.38,2.38,0,0,0,1.83.84c.44,0,.55-.13.57-.57a2.49,2.49,0,0,0-.38-1.4,4.28,4.28,0,0,0-.88-1.05,3.7,3.7,0,0,0-1.66-.93c-.5-.13-.55-.17-1-.76a5.63,5.63,0,0,1-1.17-3.5c0-.54-.06-1.4,0-1.37a5.24,5.24,0,0,1,.17.51,10.72,10.72,0,0,0,2.08,4.24,3.72,3.72,0,0,0,1.59,1.23,1.5,1.5,0,0,0,.54.06c.31,0,.37,0,.47,0s.23-.18.23-.63a2,2,0,0,0-.24-1,4.13,4.13,0,0,0-1-1.33,3.89,3.89,0,0,0-1.65-.9c-.5-.13-.56-.18-1.11-.93a3.77,3.77,0,0,1-.73-1.42,12.73,12.73,0,0,1-.31-2.81v-.5l.06.18.24.78a13.13,13.13,0,0,0,1,2.55,6.42,6.42,0,0,0,2.13,2.35,1.71,1.71,0,0,0,1,.22c.51,0,.53,0,.62-.22a2.27,2.27,0,0,0-.26-1.66,4.46,4.46,0,0,0-2.68-2.06,1.4,1.4,0,0,1-.33-.11,5.64,5.64,0,0,1-1.09-1.32,6.16,6.16,0,0,1-.6-2.36c0-.31-.09-1.52-.08-1.75v-.13l.06.18a14.56,14.56,0,0,0,1.29,3.34,7.12,7.12,0,0,0,1.24,1.66,4.3,4.3,0,0,0,1.26.93c.56.24,1,.18,1.17-.17.06-.11.07-.15.07-.49a1.55,1.55,0,0,0-.08-.62,3.67,3.67,0,0,0-.61-1.09,6.87,6.87,0,0,0-1-1,3,3,0,0,0-1.31-.62,1.2,1.2,0,0,1-.28-.08,3.11,3.11,0,0,1-.64-.72c-.81-1.08-1.06-2-1.12-4.18a2.26,2.26,0,0,1,0-.6,6.68,6.68,0,0,1,.33,1,9.78,9.78,0,0,0,2,3.9,3.51,3.51,0,0,0,1.89,1.24.62.62,0,0,0,.36,0c.34-.09.48-.3.48-.75A2.17,2.17,0,0,0,603,239a3.78,3.78,0,0,0-1.09-1.48,3.64,3.64,0,0,0-1.82-1,.9.9,0,0,1-.58-.36,4.72,4.72,0,0,1-1-1.58,8.86,8.86,0,0,1-.46-2.94,3.51,3.51,0,0,0-.09-1.06s0,0-.05.09a11.22,11.22,0,0,0,0,2.63,7.6,7.6,0,0,1,0,1.72,7,7,0,0,0,0,1.72,7.77,7.77,0,0,1,0,1.81,7.1,7.1,0,0,0,0,1.73,7.28,7.28,0,0,1,0,1.75,7.55,7.55,0,0,0,0,1.78,7.3,7.3,0,0,1,0,1.75,6.54,6.54,0,0,0,0,1.77,7,7,0,0,1,0,1.71,7.77,7.77,0,0,0,0,1.66,9.79,9.79,0,0,1,0,1.11,24.19,24.19,0,0,0,.26,3.39,5.27,5.27,0,0,0,.32,1.54c.42,1.2,1.58,2,2.24,2.82"/><path class="cls-15" d="M606,230.75c0,.07,0,.12.1.68a5.91,5.91,0,0,1,.23,1.52,9.27,9.27,0,0,1-.41,2.94c-.17.67-.18.65.05.65s.29-.07.45-.45a11,11,0,0,0,.48-2.7,7.5,7.5,0,0,0-.39-2.36,1.63,1.63,0,0,0-.09-.3.43.43,0,0,0-.21,0C606,230.7,606,230.71,606,230.75Z"/><path class="cls-15" d="M600.45,231c-.05,0-.09.17-.24.85a6.31,6.31,0,0,0-.29,1.92,4.92,4.92,0,0,0,.06.89,3.72,3.72,0,0,0,.24,1,.36.36,0,0,0,.36.08c.17,0,.18,0,.1-.49a9.82,9.82,0,0,1-.17-2.37,4.52,4.52,0,0,1,.28-1.35,3.32,3.32,0,0,0,.14-.45.16.16,0,0,0-.06-.1A.45.45,0,0,0,600.45,231Z"/><path class="cls-15" d="M608.59,233.3c0,.07-.06.37-.09.67a6.43,6.43,0,0,1-1.13,3.3l-.5.89-.3,0a2.78,2.78,0,0,0-.84.22,4.59,4.59,0,0,0-2.06,1.79,1.72,1.72,0,0,0-.26,1c0,.67,0,.82.25.92a1.9,1.9,0,0,0,1.19-.13,7,7,0,0,0,2.51-2.89,9.65,9.65,0,0,0,1.22-3.67,7.69,7.69,0,0,0,.07-2.26A.24.24,0,0,0,608.59,233.3Z"/><path class="cls-15" d="M608.64,236.73a2.84,2.84,0,0,0-.13.76,7,7,0,0,1-.39,1.84,5.46,5.46,0,0,1-1.46,2.3h0a3.63,3.63,0,0,0-2,1,4.1,4.1,0,0,0-1.25,1.79c-.13.45,0,1.05.15,1.17a1.31,1.31,0,0,0,.49,0,1.57,1.57,0,0,0,.62-.07,2,2,0,0,0,.78-.45,11,11,0,0,0,2.41-3.51,10.61,10.61,0,0,0,.79-3.25,11.48,11.48,0,0,0,0-1.61S608.65,236.72,608.64,236.73Z"/><path class="cls-15" d="M608.59,240.31a2.67,2.67,0,0,0-.06.47,6,6,0,0,1-.25,1.5,8,8,0,0,1-1,2.24c-.29.44-.38.51-.7.6a4.17,4.17,0,0,0-1.73.87,3.27,3.27,0,0,0-1.44,2.52.75.75,0,0,0,.06.39c.1.17.18.2.61.2a1.76,1.76,0,0,0,1.42-.49,10.52,10.52,0,0,0,2.29-3.19,10.87,10.87,0,0,0,.85-3.19,7.62,7.62,0,0,0,.12-1.9C608.68,240.25,608.63,240.24,608.59,240.31Z"/><path class="cls-15" d="M608.57,243.91a1.36,1.36,0,0,0,0,.3,8.59,8.59,0,0,1-.45,2.26,7,7,0,0,1-1.24,2,1,1,0,0,1-.33.13,3.43,3.43,0,0,0-1.1.44,4.66,4.66,0,0,0-2,2.24,1.64,1.64,0,0,0,.06,1.22l.06.07H604a1.74,1.74,0,0,0,1.41-.45,9.6,9.6,0,0,0,1.92-2.61,7.29,7.29,0,0,0,.94-2.22,11.62,11.62,0,0,0,.41-3.47C608.66,243.75,608.6,243.76,608.57,243.91Z"/><path class="cls-15" d="M608.62,247.2a4.13,4.13,0,0,0-.13.84,6.78,6.78,0,0,1-.61,2.35,10.74,10.74,0,0,1-1,1.6c-.09.09-.19.12-.47.18a4.57,4.57,0,0,0-2.74,2,2.76,2.76,0,0,0-.35,1.39c0,.29.07.41.24.49a1.81,1.81,0,0,0,1.24-.08,6.87,6.87,0,0,0,2.54-2.94,9.25,9.25,0,0,0,1.15-3.27,12,12,0,0,0,.18-1.9C608.72,247.25,608.69,247,608.62,247.2Z"/><path class="cls-15" d="M604.62,259.57c.76-.26,1.54-1.07,2.48-2.55a9.87,9.87,0,0,0,1.49-4.16,13,13,0,0,0,.1-2.15c0-.08-.1,0-.12.09a3.93,3.93,0,0,0-.05.52,6.93,6.93,0,0,1-1.36,3.78c-.34.56-.26.5-.72.55a2.35,2.35,0,0,0-1.55.77,5.72,5.72,0,0,0-1.36,1.68,2.43,2.43,0,0,0-.17,1.11"/><path class="cls-15" d="M603.43,260.6c1.31-.81.3.36,2.94-2.82a12.2,12.2,0,0,0,1.15-2c0-.07,0-.09-.06-.05a6.55,6.55,0,0,0-.5.74,6.92,6.92,0,0,1-2.47,2.43c-.76.52-.88.56-1.13.45"/><line class="cls-14" x1="631.65" y1="288.7" x2="631.65" y2="246.56"/><path class="cls-15" d="M632.43,216.28a8.76,8.76,0,0,0-1,2.17,11.8,11.8,0,0,0-.62,3.26,5.36,5.36,0,0,0,.76,3.48,1.66,1.66,0,0,0,.68.53.74.74,0,0,0,.42.1.57.57,0,0,0,.35-.07,1.16,1.16,0,0,0,.53-.68,2.77,2.77,0,0,0,.05-.78,2.89,2.89,0,0,0-1.16-2.61,6,6,0,0,1-.8-.94,2.79,2.79,0,0,1,0-1.58,7.23,7.23,0,0,1,.45-1.49,7.88,7.88,0,0,0,.47-1.32C632.59,216.17,632.55,216.15,632.43,216.28Z"/><path class="cls-15" d="M631.63,247.28a3.43,3.43,0,0,0-1-1.58,4.73,4.73,0,0,0-1.58-1l-.34-.07a1.08,1.08,0,0,1-.66-.31c-.86-.79-1.29-2.26-1.44-4.9v-.28l.15.53a10.61,10.61,0,0,0,.86,2.19,7.22,7.22,0,0,0,2.6,3.08,1.62,1.62,0,0,0,.81.17c.41,0,.52,0,.61-.21s.06-.16.06-.51a2.15,2.15,0,0,0-.08-.65,3.88,3.88,0,0,0-.93-1.47,3.63,3.63,0,0,0-1.35-.92,3.36,3.36,0,0,0-.81-.26c-.11,0-.15,0-.34-.21a5,5,0,0,1-.38-.42,7.41,7.41,0,0,1-.93-1.84,16.39,16.39,0,0,1-.26-2.55c0-.49,0-.63.06-.43l.23.79a11.27,11.27,0,0,0,1,2.49,7.49,7.49,0,0,0,1.4,1.84,2.43,2.43,0,0,0,1.83.85c.44,0,.55-.14.57-.57a2.47,2.47,0,0,0-.38-1.4,4.14,4.14,0,0,0-.88-1.06,3.86,3.86,0,0,0-1.66-.93c-.5-.13-.55-.17-1-.76a5.62,5.62,0,0,1-1.17-3.49c0-.55-.06-1.41,0-1.38l.17.51a10.72,10.72,0,0,0,2.08,4.24,3.85,3.85,0,0,0,1.59,1.24,1.47,1.47,0,0,0,.54.06,1.09,1.09,0,0,0,.47,0c.19-.09.23-.19.23-.64a1.92,1.92,0,0,0-.24-1,4.06,4.06,0,0,0-1-1.34,3.89,3.89,0,0,0-1.65-.9c-.5-.13-.56-.18-1.11-.93a3.7,3.7,0,0,1-.73-1.42,12.73,12.73,0,0,1-.31-2.81v-.49l.06.17.24.78a12.87,12.87,0,0,0,1,2.55,6.34,6.34,0,0,0,2.13,2.35,1.71,1.71,0,0,0,1,.22c.51,0,.53,0,.62-.22a2.28,2.28,0,0,0-.26-1.66,4.47,4.47,0,0,0-2.69-2,1.44,1.44,0,0,1-.32-.12,5.64,5.64,0,0,1-1.09-1.32,6.11,6.11,0,0,1-.6-2.36c0-.31-.09-1.52-.08-1.75v-.13l.06.18a14.1,14.1,0,0,0,1.29,3.34,6.92,6.92,0,0,0,1.24,1.66,4.13,4.13,0,0,0,1.26.93c.56.24,1,.18,1.17-.17.06-.11.07-.15.07-.49a1.61,1.61,0,0,0-.08-.62,3.67,3.67,0,0,0-.61-1.09,6.87,6.87,0,0,0-1-1,3.11,3.11,0,0,0-1.31-.62.66.66,0,0,1-.28-.08,3.21,3.21,0,0,1-.64-.71c-.81-1.09-1.06-2-1.12-4.19a2.31,2.31,0,0,1,0-.6,6.68,6.68,0,0,1,.33,1,9.89,9.89,0,0,0,2,3.91,3.63,3.63,0,0,0,1.89,1.24.86.86,0,0,0,.36,0c.34-.09.48-.31.47-.75a2,2,0,0,0-.16-.85,3.68,3.68,0,0,0-1.09-1.47,3.75,3.75,0,0,0-1.82-1,.9.9,0,0,1-.58-.36,4.72,4.72,0,0,1-1-1.58,8.81,8.81,0,0,1-.46-2.94,3.51,3.51,0,0,0-.09-1.06s0,0,0,.09a11.24,11.24,0,0,0-.05,2.63,7.6,7.6,0,0,1,0,1.72,7.1,7.1,0,0,0,0,1.73,7.68,7.68,0,0,1,0,1.8,7.1,7.1,0,0,0,0,1.73,7.28,7.28,0,0,1,0,1.75,7.54,7.54,0,0,0,0,1.78,7.31,7.31,0,0,1,0,1.75,6.54,6.54,0,0,0,0,1.77,7,7,0,0,1,0,1.72,7.68,7.68,0,0,0,0,1.65,9.89,9.89,0,0,1,0,1.12,24.28,24.28,0,0,0,.26,3.39,5.27,5.27,0,0,0,.32,1.54c.42,1.19,1.58,2,2.24,2.81"/><path class="cls-15" d="M634.51,217.8c0,.08,0,.12.1.69a5.78,5.78,0,0,1,.23,1.51,9.24,9.24,0,0,1-.41,2.94c-.17.68-.18.66.05.66s.29-.08.45-.46a10.93,10.93,0,0,0,.48-2.7,7.53,7.53,0,0,0-.39-2.36c0-.15-.08-.28-.09-.3a.43.43,0,0,0-.21,0C634.57,217.75,634.54,217.76,634.51,217.8Z"/><path class="cls-15" d="M629,218.05c-.05,0-.09.17-.24.85a6.9,6.9,0,0,0-.24,2.81,4,4,0,0,0,.25,1,.36.36,0,0,0,.36.08c.17,0,.18,0,.1-.48A9.93,9.93,0,0,1,629,220a4.52,4.52,0,0,1,.28-1.34,3.27,3.27,0,0,0,.14-.46.12.12,0,0,0-.06-.09A.44.44,0,0,0,629,218.05Z"/><path class="cls-15" d="M637.12,220.36c0,.06-.06.36-.09.66a6.4,6.4,0,0,1-1.13,3.3l-.5.89-.3,0a2.52,2.52,0,0,0-.84.23,4.53,4.53,0,0,0-2.06,1.79,1.78,1.78,0,0,0-.27,1c0,.66,0,.81.26.91a1.89,1.89,0,0,0,1.19-.12,7,7,0,0,0,2.51-2.9,9.82,9.82,0,0,0,1.22-3.67,7.7,7.7,0,0,0,.07-2.26A.24.24,0,0,0,637.12,220.36Z"/><path class="cls-15" d="M637.17,223.79a2.71,2.71,0,0,0-.13.75,7.16,7.16,0,0,1-.39,1.85,5.39,5.39,0,0,1-1.47,2.29h0a3.67,3.67,0,0,0-2,1,4,4,0,0,0-1.25,1.78c-.13.46-.05,1,.15,1.17s.15,0,.49,0a1.62,1.62,0,0,0,.62-.06,2.05,2.05,0,0,0,.78-.46,10.47,10.47,0,0,0,3.2-6.76,11.45,11.45,0,0,0,0-1.61S637.18,223.78,637.17,223.79Z"/><path class="cls-15" d="M637.12,227.36a2.69,2.69,0,0,0-.06.48,6.11,6.11,0,0,1-.25,1.5,8.26,8.26,0,0,1-1,2.24c-.29.44-.38.5-.7.59a4.29,4.29,0,0,0-1.73.87,3.28,3.28,0,0,0-1.44,2.52.72.72,0,0,0,.06.39c.1.17.18.2.61.2a1.8,1.8,0,0,0,1.42-.48,10.88,10.88,0,0,0,2.29-3.2,10.71,10.71,0,0,0,.85-3.18,7.7,7.7,0,0,0,.12-1.91C637.21,227.3,637.16,227.29,637.12,227.36Z"/><path class="cls-15" d="M637.1,231a1.45,1.45,0,0,0,0,.3,8.74,8.74,0,0,1-.45,2.27,7,7,0,0,1-1.24,2,1,1,0,0,1-.33.13,3.43,3.43,0,0,0-1.1.44,4.66,4.66,0,0,0-2,2.24,1.64,1.64,0,0,0,.06,1.22l.06.08h.45a1.75,1.75,0,0,0,1.42-.45,9.52,9.52,0,0,0,1.92-2.6,7.44,7.44,0,0,0,.94-2.23,11.59,11.59,0,0,0,.41-3.46C637.19,230.8,637.13,230.82,637.1,231Z"/><path class="cls-15" d="M637.15,234.25a4.29,4.29,0,0,0-.13.84,7,7,0,0,1-.61,2.35,10.24,10.24,0,0,1-1,1.6.88.88,0,0,1-.47.18,4.61,4.61,0,0,0-2.74,2,2.76,2.76,0,0,0-.35,1.39c0,.29.07.41.24.49a1.81,1.81,0,0,0,1.24-.08,6.81,6.81,0,0,0,2.54-2.94,9.26,9.26,0,0,0,1.15-3.26,12.23,12.23,0,0,0,.18-1.91C637.25,234.31,637.22,234.09,637.15,234.25Z"/><path class="cls-15" d="M633.15,246.62c.76-.26,1.54-1.06,2.48-2.55a9.87,9.87,0,0,0,1.49-4.16,13,13,0,0,0,.1-2.15c0-.08-.1,0-.12.1a3.56,3.56,0,0,0-.05.51,6.9,6.9,0,0,1-1.36,3.78c-.34.56-.26.5-.72.55a2.42,2.42,0,0,0-1.55.77,6,6,0,0,0-1.36,1.68,2.43,2.43,0,0,0-.17,1.11"/><path class="cls-15" d="M632,247.65c1.31-.8.3.36,2.94-2.82a11.81,11.81,0,0,0,1.15-2c0-.06,0-.09-.06-.05a6.14,6.14,0,0,0-.5.75,7,7,0,0,1-2.47,2.42c-.76.52-.88.57-1.13.45"/><line class="cls-14" x1="618.68" y1="321.5" x2="618.68" y2="279.36"/><path class="cls-15" d="M619.46,249.08a8.94,8.94,0,0,0-1,2.17,11.73,11.73,0,0,0-.62,3.26,5.32,5.32,0,0,0,.77,3.47,1.66,1.66,0,0,0,.67.54.76.76,0,0,0,.43.1.56.56,0,0,0,.34-.07,1.12,1.12,0,0,0,.53-.69,2.63,2.63,0,0,0,0-.77,2.88,2.88,0,0,0-1.16-2.61,6,6,0,0,1-.8-.94,3,3,0,0,1,0-1.58,6.76,6.76,0,0,1,.46-1.49,7.51,7.51,0,0,0,.47-1.33C619.62,249,619.58,249,619.46,249.08Z"/><path class="cls-15" d="M618.67,280.08a3.41,3.41,0,0,0-1-1.58,4.58,4.58,0,0,0-1.58-1l-.34-.07a1,1,0,0,1-.65-.31c-.87-.79-1.3-2.26-1.45-4.9v-.28l.15.53a11.2,11.2,0,0,0,.86,2.19,7.29,7.29,0,0,0,2.6,3.08,1.62,1.62,0,0,0,.81.17c.41,0,.52,0,.61-.22s.06-.16.06-.51a1.81,1.81,0,0,0-.08-.64,3.88,3.88,0,0,0-.93-1.47,3.59,3.59,0,0,0-1.34-.92,3.5,3.5,0,0,0-.81-.26c-.11,0-.16,0-.34-.21a3.81,3.81,0,0,1-.39-.42,7.41,7.41,0,0,1-.93-1.84,17.76,17.76,0,0,1-.26-2.55c0-.49,0-.63.06-.43l.24.79a10.55,10.55,0,0,0,1,2.49,7.23,7.23,0,0,0,1.39,1.84,2.43,2.43,0,0,0,1.83.85c.44,0,.55-.14.57-.58a2.49,2.49,0,0,0-.38-1.4,4.28,4.28,0,0,0-.88-1,3.7,3.7,0,0,0-1.66-.93c-.5-.13-.55-.17-1-.76a5.69,5.69,0,0,1-1.17-3.5c0-.54-.06-1.4,0-1.37a5.24,5.24,0,0,1,.17.51,10.72,10.72,0,0,0,2.08,4.24,3.8,3.8,0,0,0,1.6,1.24,1.41,1.41,0,0,0,.53.06,1.06,1.06,0,0,0,.47,0c.2-.09.23-.19.23-.64a2,2,0,0,0-.24-1,4,4,0,0,0-1-1.33,3.83,3.83,0,0,0-1.65-.9c-.5-.13-.56-.18-1.11-.93a3.7,3.7,0,0,1-.73-1.42,12.73,12.73,0,0,1-.31-2.81v-.5l.06.18.24.78a12.87,12.87,0,0,0,1,2.55,6.51,6.51,0,0,0,2.13,2.35,1.75,1.75,0,0,0,1,.22c.51,0,.53,0,.62-.22a2.32,2.32,0,0,0-.25-1.66,4.49,4.49,0,0,0-2.69-2.05,2,2,0,0,1-.33-.12,5.64,5.64,0,0,1-1.09-1.32,6.18,6.18,0,0,1-.59-2.36c0-.31-.1-1.52-.09-1.75v-.13l.06.18a14.56,14.56,0,0,0,1.29,3.34,7.41,7.41,0,0,0,1.24,1.66,4,4,0,0,0,1.27.93c.55.24,1,.18,1.16-.17.06-.11.07-.15.07-.49a1.58,1.58,0,0,0-.08-.62,3.67,3.67,0,0,0-.61-1.09,6.42,6.42,0,0,0-1-1,3.11,3.11,0,0,0-1.31-.62.72.72,0,0,1-.27-.08,2.86,2.86,0,0,1-.65-.72c-.81-1.08-1.06-2-1.12-4.18a2.26,2.26,0,0,1,0-.6,6.68,6.68,0,0,1,.33,1,9.78,9.78,0,0,0,2,3.9,3.59,3.59,0,0,0,1.89,1.25.71.71,0,0,0,.36,0c.35-.09.48-.3.48-.75a2.39,2.39,0,0,0-.16-.84,3.68,3.68,0,0,0-1.09-1.47,3.74,3.74,0,0,0-1.83-1,.92.92,0,0,1-.58-.36,4.72,4.72,0,0,1-1-1.58,8.81,8.81,0,0,1-.46-2.94,3.51,3.51,0,0,0-.09-1.06s0,0,0,.09a11.22,11.22,0,0,0,0,2.63,7.6,7.6,0,0,1,0,1.72,7.1,7.1,0,0,0,0,1.73,7.68,7.68,0,0,1,0,1.8,7.1,7.1,0,0,0,0,1.73,7.28,7.28,0,0,1,0,1.75,7.54,7.54,0,0,0,0,1.78,7.3,7.3,0,0,1,0,1.75,7.46,7.46,0,0,0,0,1.77,7,7,0,0,1,0,1.71,7.77,7.77,0,0,0,0,1.66,9.79,9.79,0,0,1,0,1.11,23.2,23.2,0,0,0,.27,3.4,4.87,4.87,0,0,0,.31,1.53c.42,1.2,1.58,2,2.24,2.82"/><path class="cls-15" d="M621.54,250.6c0,.07,0,.12.1.68a5.91,5.91,0,0,1,.23,1.52,9.19,9.19,0,0,1-.4,2.94c-.18.68-.19.65,0,.65s.29-.07.45-.45a10.93,10.93,0,0,0,.48-2.7,7.5,7.5,0,0,0-.39-2.36,1.07,1.07,0,0,0-.09-.3.43.43,0,0,0-.21,0C621.61,250.55,621.57,250.56,621.54,250.6Z"/><path class="cls-15" d="M616,250.85s-.09.17-.24.85a6.2,6.2,0,0,0-.28,1.92,5.11,5.11,0,0,0,0,.89,3.72,3.72,0,0,0,.24,1,.37.37,0,0,0,.36.08c.17,0,.18,0,.1-.48a9.93,9.93,0,0,1-.17-2.38,4.39,4.39,0,0,1,.28-1.34,3.74,3.74,0,0,0,.14-.46.19.19,0,0,0,0-.1A.5.5,0,0,0,616,250.85Z"/><path class="cls-15" d="M624.16,253.15c0,.07-.06.37-.1.67a6.43,6.43,0,0,1-1.13,3.3l-.49.89-.3,0a2.85,2.85,0,0,0-.85.22,4.58,4.58,0,0,0-2,1.8,1.6,1.6,0,0,0-.27,1c0,.67,0,.82.25.92a1.87,1.87,0,0,0,1.2-.13,7,7,0,0,0,2.5-2.89,9.65,9.65,0,0,0,1.22-3.67,7.7,7.7,0,0,0,.07-2.26A.18.18,0,0,0,624.16,253.15Z"/><path class="cls-15" d="M624.2,256.59a2.71,2.71,0,0,0-.13.75,7.16,7.16,0,0,1-.39,1.85,5.39,5.39,0,0,1-1.46,2.29h0a3.7,3.7,0,0,0-2,1,4.19,4.19,0,0,0-1.25,1.79c-.13.46-.05,1,.16,1.17s.14,0,.48,0a1.38,1.38,0,0,0,.62-.07A1.9,1.9,0,0,0,621,265a10.47,10.47,0,0,0,3.2-6.76,13.71,13.71,0,0,0,0-1.61S624.21,256.57,624.2,256.59Z"/><path class="cls-15" d="M624.15,260.16a2.67,2.67,0,0,0-.06.47,6.11,6.11,0,0,1-.25,1.51,7.79,7.79,0,0,1-1.05,2.23c-.29.44-.37.51-.7.6a4.35,4.35,0,0,0-1.73.87,3.28,3.28,0,0,0-1.44,2.52.72.72,0,0,0,.06.39c.1.17.18.2.61.2a1.79,1.79,0,0,0,1.42-.48,10.71,10.71,0,0,0,2.29-3.2,10.41,10.41,0,0,0,.85-3.18,7.7,7.7,0,0,0,.12-1.91C624.24,260.1,624.19,260.09,624.15,260.16Z"/><path class="cls-15" d="M624.13,263.76a1.39,1.39,0,0,0,0,.3,8.64,8.64,0,0,1-.46,2.26,6.89,6.89,0,0,1-1.24,2,1,1,0,0,1-.33.13,3.29,3.29,0,0,0-1.09.44,4.63,4.63,0,0,0-2,2.24,1.69,1.69,0,0,0,.06,1.22l.07.08h.45A1.77,1.77,0,0,0,621,272a9.81,9.81,0,0,0,1.92-2.61,7.24,7.24,0,0,0,.93-2.22,11.62,11.62,0,0,0,.41-3.47C624.22,263.6,624.16,263.62,624.13,263.76Z"/><path class="cls-15" d="M624.18,267.05a4.13,4.13,0,0,0-.13.84,6.78,6.78,0,0,1-.61,2.35,10.74,10.74,0,0,1-1,1.6c-.09.09-.18.12-.47.18a4.6,4.6,0,0,0-2.74,2,2.76,2.76,0,0,0-.35,1.39c0,.29.07.41.24.49a1.81,1.81,0,0,0,1.24-.08,6.87,6.87,0,0,0,2.54-2.94,9.48,9.48,0,0,0,1.16-3.26,13.57,13.57,0,0,0,.18-1.91C624.28,267.1,624.25,266.89,624.18,267.05Z"/><path class="cls-15" d="M620.18,279.42c.76-.26,1.54-1.06,2.48-2.55a9.87,9.87,0,0,0,1.49-4.16,13,13,0,0,0,.1-2.15c0-.08-.09,0-.12.09a3.93,3.93,0,0,0,0,.52,6.82,6.82,0,0,1-1.36,3.78c-.34.56-.26.5-.71.55a2.42,2.42,0,0,0-1.56.77,5.89,5.89,0,0,0-1.36,1.68,2.58,2.58,0,0,0-.17,1.11"/><path class="cls-15" d="M619,280.45c1.31-.8.3.36,2.94-2.82a11.39,11.39,0,0,0,1.16-2c0-.07,0-.09-.07-.05a6.14,6.14,0,0,0-.5.75,7,7,0,0,1-2.47,2.42c-.76.52-.88.56-1.13.45"/><line class="cls-14" x1="653.26" y1="306.83" x2="653.26" y2="264.69"/><path class="cls-15" d="M654,234.41a9.43,9.43,0,0,0-1,2.16,11.8,11.8,0,0,0-.62,3.26,5.4,5.4,0,0,0,.77,3.48,1.66,1.66,0,0,0,.67.54.84.84,0,0,0,.43.09.71.71,0,0,0,.35-.06,1.14,1.14,0,0,0,.52-.69,2.68,2.68,0,0,0,.05-.77A2.91,2.91,0,0,0,654,239.8a6.58,6.58,0,0,1-.8-.93,3,3,0,0,1,0-1.58,7.16,7.16,0,0,1,.46-1.49,7.51,7.51,0,0,0,.47-1.33Q654.22,234.22,654,234.41Z"/><path class="cls-15" d="M653.25,265.4a3.44,3.44,0,0,0-1-1.57,4.88,4.88,0,0,0-1.58-1l-.35-.07a1,1,0,0,1-.65-.3c-.87-.79-1.3-2.27-1.45-4.91v-.28l.15.54a11.11,11.11,0,0,0,.86,2.18,7.11,7.11,0,0,0,2.61,3.08,1.47,1.47,0,0,0,.8.17c.41,0,.52,0,.61-.21s.06-.16.06-.51a1.69,1.69,0,0,0-.08-.65,3.67,3.67,0,0,0-.93-1.46,3.51,3.51,0,0,0-1.34-.92,3.07,3.07,0,0,0-.81-.26c-.11,0-.16-.05-.34-.21a4,4,0,0,1-.39-.43,7.53,7.53,0,0,1-.93-1.83,17.93,17.93,0,0,1-.26-2.55c0-.49,0-.63.06-.43l.24.79a10.55,10.55,0,0,0,1,2.49,7.41,7.41,0,0,0,1.39,1.84,2.4,2.4,0,0,0,1.83.84c.44,0,.55-.13.57-.57a2.42,2.42,0,0,0-.38-1.4,4.28,4.28,0,0,0-.88-1.06,3.8,3.8,0,0,0-1.65-.92c-.51-.13-.56-.17-1-.77a5.57,5.57,0,0,1-1.16-3.49c0-.55-.06-1.4,0-1.37a5.24,5.24,0,0,1,.17.51,10.72,10.72,0,0,0,2.09,4.24,3.61,3.61,0,0,0,1.59,1.23,1.44,1.44,0,0,0,.54.06c.3,0,.37,0,.46-.05s.23-.18.23-.63a2,2,0,0,0-.24-1,4,4,0,0,0-1-1.33,3.73,3.73,0,0,0-1.65-.9c-.5-.13-.56-.18-1.11-.93a3.7,3.7,0,0,1-.72-1.43,11.45,11.45,0,0,1-.31-2.8l0-.5.06.18.24.77a13.64,13.64,0,0,0,1,2.56,6.51,6.51,0,0,0,2.13,2.35,1.75,1.75,0,0,0,1,.22c.51,0,.54,0,.62-.22a2.34,2.34,0,0,0-.25-1.67,4.53,4.53,0,0,0-2.69-2.05,1.4,1.4,0,0,1-.33-.11,5.6,5.6,0,0,1-1.08-1.32,6,6,0,0,1-.6-2.36c0-.31-.09-1.53-.09-1.75V243l.06.18a14.76,14.76,0,0,0,1.29,3.34,7.41,7.41,0,0,0,1.24,1.66,4.2,4.2,0,0,0,1.27.93c.55.24,1,.18,1.17-.17.06-.11.06-.15.06-.49a1.55,1.55,0,0,0-.08-.62,3.85,3.85,0,0,0-.61-1.1,6.84,6.84,0,0,0-1-1,2.88,2.88,0,0,0-1.31-.62,1,1,0,0,1-.27-.08,2.86,2.86,0,0,1-.65-.72c-.81-1.08-1.05-2-1.12-4.18a2.26,2.26,0,0,1,0-.6,6.68,6.68,0,0,1,.33,1,9.78,9.78,0,0,0,2,3.9,3.54,3.54,0,0,0,1.89,1.24.62.62,0,0,0,.36,0c.35-.09.48-.3.48-.75a2.15,2.15,0,0,0-.16-.84,3.71,3.71,0,0,0-1.09-1.48,3.78,3.78,0,0,0-1.83-1,.9.9,0,0,1-.58-.35,4.82,4.82,0,0,1-1-1.58,8.9,8.9,0,0,1-.46-2.94,3.43,3.43,0,0,0-.09-1.06s0,0,0,.08a11.32,11.32,0,0,0-.05,2.64,7.6,7.6,0,0,1,0,1.72,7,7,0,0,0,0,1.72,7.77,7.77,0,0,1,0,1.81,7.11,7.11,0,0,0,0,1.73,7.28,7.28,0,0,1,0,1.75,7.55,7.55,0,0,0,0,1.78,7.3,7.3,0,0,1,0,1.75,7.46,7.46,0,0,0,0,1.77,7,7,0,0,1,0,1.71,7.09,7.09,0,0,0,0,1.66c0,.23,0,.59,0,1.11a21.41,21.41,0,0,0,.26,3.39,5,5,0,0,0,.31,1.54c.42,1.2,1.58,2,2.24,2.82"/><path class="cls-15" d="M656.12,235.92c0,.08,0,.13.11.69a6.93,6.93,0,0,1,.23,1.52,9.57,9.57,0,0,1-.41,2.94c-.18.67-.18.65.05.65s.28-.08.44-.45a11,11,0,0,0,.48-2.7,7.5,7.5,0,0,0-.39-2.36,1,1,0,0,0-.09-.3.43.43,0,0,0-.21,0C656.19,235.88,656.15,235.88,656.12,235.92Z"/><path class="cls-15" d="M650.59,236.18c-.05,0-.09.16-.24.85a6.2,6.2,0,0,0-.28,1.92,5.11,5.11,0,0,0,0,.89,4.94,4.94,0,0,0,.24,1,.39.39,0,0,0,.37.08c.17,0,.17-.05.09-.49a9.82,9.82,0,0,1-.17-2.37,4.52,4.52,0,0,1,.28-1.35,3.32,3.32,0,0,0,.14-.45.16.16,0,0,0-.05-.1A.47.47,0,0,0,650.59,236.18Z"/><path class="cls-15" d="M658.74,238.48a6,6,0,0,0-.09.67,6.51,6.51,0,0,1-1.14,3.29l-.49.89-.3,0a2.85,2.85,0,0,0-.85.23,4.51,4.51,0,0,0-2,1.79,1.72,1.72,0,0,0-.27,1c0,.66,0,.82.26.92a1.91,1.91,0,0,0,1.19-.13,7,7,0,0,0,2.5-2.89,9.7,9.7,0,0,0,1.22-3.67,7.69,7.69,0,0,0,.07-2.26A.18.18,0,0,0,658.74,238.48Z"/><path class="cls-15" d="M658.78,241.91a2.84,2.84,0,0,0-.13.76,7.56,7.56,0,0,1-.38,1.84,5.26,5.26,0,0,1-1.47,2.29h0a3.63,3.63,0,0,0-2,1,4.19,4.19,0,0,0-1.25,1.79c-.13.45,0,1,.16,1.17a1.2,1.2,0,0,0,.48,0,1.51,1.51,0,0,0,.62-.07,2.16,2.16,0,0,0,.78-.45A11,11,0,0,0,658,246.8a10.33,10.33,0,0,0,.79-3.25,11.84,11.84,0,0,0,0-1.61S658.79,241.9,658.78,241.91Z"/><path class="cls-15" d="M658.73,245.48a3,3,0,0,0-.06.48,6,6,0,0,1-.25,1.5,7.72,7.72,0,0,1-1,2.24c-.29.44-.37.51-.7.6a4.29,4.29,0,0,0-1.73.87,3.28,3.28,0,0,0-1.44,2.52.61.61,0,0,0,.07.38c.09.18.17.21.6.21a1.8,1.8,0,0,0,1.42-.49,10,10,0,0,0,3.14-6.38,7.64,7.64,0,0,0,.12-1.9C658.82,245.43,658.77,245.42,658.73,245.48Z"/><path class="cls-15" d="M658.71,249.09a1.39,1.39,0,0,0,0,.3,8.72,8.72,0,0,1-.46,2.26,7,7,0,0,1-1.24,2,1.24,1.24,0,0,1-.33.13,3.17,3.17,0,0,0-1.09.44,4.68,4.68,0,0,0-2,2.24,1.69,1.69,0,0,0,.06,1.22l.07.07h.45a1.77,1.77,0,0,0,1.42-.45,9.81,9.81,0,0,0,1.92-2.61,7.4,7.4,0,0,0,.94-2.22,11.86,11.86,0,0,0,.4-3.47C658.8,248.92,658.74,248.94,658.71,249.09Z"/><path class="cls-15" d="M658.77,252.38a3.25,3.25,0,0,0-.14.84,6.84,6.84,0,0,1-.61,2.35,10.07,10.07,0,0,1-1,1.59c-.09.09-.18.13-.47.19a4.63,4.63,0,0,0-2.74,2,2.76,2.76,0,0,0-.35,1.39c0,.29.08.4.25.49a1.77,1.77,0,0,0,1.24-.09,6.76,6.76,0,0,0,2.53-2.93,9.46,9.46,0,0,0,1.16-3.27,13.29,13.29,0,0,0,.18-1.9C658.86,252.43,658.83,252.21,658.77,252.38Z"/><path class="cls-15" d="M654.77,264.74c.76-.25,1.54-1.06,2.47-2.54a9.86,9.86,0,0,0,1.49-4.17,12.91,12.91,0,0,0,.1-2.14c0-.08-.09,0-.12.09a2.85,2.85,0,0,0,0,.52,7,7,0,0,1-1.37,3.78c-.34.56-.26.5-.71.55a2.37,2.37,0,0,0-1.56.77,5.89,5.89,0,0,0-1.36,1.68,2.74,2.74,0,0,0-.17,1.11"/><path class="cls-15" d="M653.57,265.78c1.31-.81.3.36,2.94-2.82a11.76,11.76,0,0,0,1.16-2c0-.07,0-.09-.07-.05a6.55,6.55,0,0,0-.5.74,6.92,6.92,0,0,1-2.47,2.43c-.76.52-.87.56-1.13.45"/><line class="cls-14" x1="686.11" y1="287.84" x2="686.11" y2="245.7"/><path class="cls-15" d="M686.89,215.42a9.43,9.43,0,0,0-1,2.16,12.18,12.18,0,0,0-.62,3.26,5.4,5.4,0,0,0,.77,3.48,1.73,1.73,0,0,0,.67.54.76.76,0,0,0,.43.1.61.61,0,0,0,.35-.07,1.14,1.14,0,0,0,.52-.69,2.29,2.29,0,0,0,0-.77,2.86,2.86,0,0,0-1.16-2.62,6.05,6.05,0,0,1-.8-.93,3,3,0,0,1,0-1.58,7.83,7.83,0,0,1,.46-1.49,7.51,7.51,0,0,0,.47-1.33Q687.07,215.23,686.89,215.42Z"/><path class="cls-15" d="M686.1,246.41a3.36,3.36,0,0,0-1-1.57,4.88,4.88,0,0,0-1.58-1l-.35-.07a1,1,0,0,1-.65-.3c-.86-.79-1.3-2.27-1.44-4.91l0-.28.15.54a11.11,11.11,0,0,0,.86,2.18,7.28,7.28,0,0,0,2.61,3.09,1.6,1.6,0,0,0,.81.17c.41,0,.51,0,.6-.22s.06-.16.06-.51a1.69,1.69,0,0,0-.08-.65,3.75,3.75,0,0,0-.92-1.46,3.63,3.63,0,0,0-1.35-.92,3.5,3.5,0,0,0-.81-.26c-.11,0-.16,0-.34-.21a3.7,3.7,0,0,1-.38-.42,7.46,7.46,0,0,1-.94-1.84,19.58,19.58,0,0,1-.26-2.55c0-.49,0-.63.06-.43l.24.79a11,11,0,0,0,1,2.49,7.23,7.23,0,0,0,1.39,1.84,2.4,2.4,0,0,0,1.83.84c.44,0,.56-.13.57-.57a2.42,2.42,0,0,0-.38-1.4,4.23,4.23,0,0,0-.87-1.05,3.81,3.81,0,0,0-1.66-.93c-.51-.13-.56-.17-1-.76a5.62,5.62,0,0,1-1.16-3.5,13,13,0,0,1,0-1.37l.17.51a10.59,10.59,0,0,0,2.08,4.24,3.67,3.67,0,0,0,1.59,1.23,1.43,1.43,0,0,0,.54.07.92.92,0,0,0,.47-.06c.19-.08.22-.18.22-.63a2,2,0,0,0-.23-1,4.27,4.27,0,0,0-1-1.33,4,4,0,0,0-1.65-.9c-.51-.13-.57-.18-1.11-.93a3.63,3.63,0,0,1-.73-1.42,12.73,12.73,0,0,1-.31-2.81l0-.5.06.18.24.78a13.79,13.79,0,0,0,1,2.55,6.51,6.51,0,0,0,2.13,2.35,1.77,1.77,0,0,0,1,.22c.5,0,.53,0,.61-.22a2.22,2.22,0,0,0-.25-1.66,4.48,4.48,0,0,0-2.69-2.06,1.3,1.3,0,0,1-.32-.11,5.19,5.19,0,0,1-1.09-1.32,6,6,0,0,1-.6-2.36c0-.31-.09-1.52-.09-1.75V224l0,.18a14.56,14.56,0,0,0,1.29,3.34,7.73,7.73,0,0,0,1.24,1.66,4.2,4.2,0,0,0,1.27.93c.55.24,1,.18,1.17-.17.06-.11.06-.15.06-.49a1.39,1.39,0,0,0-.08-.62,3.64,3.64,0,0,0-.6-1.09,7.38,7.38,0,0,0-1-1,3.09,3.09,0,0,0-1.31-.62.72.72,0,0,1-.28-.08,3.07,3.07,0,0,1-.65-.72c-.81-1.08-1.05-2-1.12-4.18a2.26,2.26,0,0,1,0-.6,5.77,5.77,0,0,1,.34,1,9.66,9.66,0,0,0,2,3.9,3.52,3.52,0,0,0,1.88,1.24.62.62,0,0,0,.36,0c.35-.09.48-.3.48-.75a2.15,2.15,0,0,0-.16-.84,3.78,3.78,0,0,0-1.09-1.48,3.68,3.68,0,0,0-1.82-1,.87.87,0,0,1-.58-.36,4.59,4.59,0,0,1-1-1.58,9.13,9.13,0,0,1-.46-2.94c0-.81,0-1-.09-1.06s0,0-.05.09a11.22,11.22,0,0,0,0,2.63,7.6,7.6,0,0,1,0,1.72,7,7,0,0,0,0,1.72,7.77,7.77,0,0,1,0,1.81,7.1,7.1,0,0,0,0,1.73,7.28,7.28,0,0,1,0,1.75,7.55,7.55,0,0,0,0,1.78,7.3,7.3,0,0,1,0,1.75,7.46,7.46,0,0,0,0,1.77,7,7,0,0,1,0,1.71,7.09,7.09,0,0,0,0,1.66,9.79,9.79,0,0,1,0,1.11,24.19,24.19,0,0,0,.26,3.39,5.26,5.26,0,0,0,.31,1.54c.42,1.2,1.59,2,2.24,2.82"/><path class="cls-15" d="M689,216.94c-.05.07,0,.12.1.68a6.38,6.38,0,0,1,.23,1.52,9.57,9.57,0,0,1-.41,2.94c-.18.67-.18.65.05.65s.28-.07.44-.45a11.47,11.47,0,0,0,.49-2.7,7.66,7.66,0,0,0-.4-2.36,1.07,1.07,0,0,0-.09-.3s-.09,0-.2,0S689,216.9,689,216.94Z"/><path class="cls-15" d="M683.45,217.19c-.06,0-.09.17-.25.85a6.53,6.53,0,0,0-.28,1.92,5.11,5.11,0,0,0,.05.89,4.75,4.75,0,0,0,.24,1,.39.39,0,0,0,.37.08c.17,0,.17,0,.09-.49a10.36,10.36,0,0,1-.17-2.37,4.52,4.52,0,0,1,.28-1.35,4.25,4.25,0,0,0,.15-.45.22.22,0,0,0-.06-.1A.45.45,0,0,0,683.45,217.19Z"/><path class="cls-15" d="M691.59,219.49c0,.07-.06.37-.09.67a6.62,6.62,0,0,1-1.13,3.3l-.5.89-.3,0a2.94,2.94,0,0,0-.85.22,4.56,4.56,0,0,0-2.05,1.79,1.72,1.72,0,0,0-.27,1c0,.67,0,.82.26.92a1.91,1.91,0,0,0,1.19-.13,7,7,0,0,0,2.51-2.89,9.64,9.64,0,0,0,1.21-3.67,7.33,7.33,0,0,0,.07-2.26S691.61,219.43,691.59,219.49Z"/><path class="cls-15" d="M691.63,222.93a2.61,2.61,0,0,0-.13.75,7,7,0,0,1-.38,1.84,5.37,5.37,0,0,1-1.47,2.3h0a3.58,3.58,0,0,0-2,1,4,4,0,0,0-1.25,1.79c-.14.45-.06,1.05.15,1.17a1.23,1.23,0,0,0,.49,0,1.57,1.57,0,0,0,.62-.07,2,2,0,0,0,.78-.45,10.8,10.8,0,0,0,2.4-3.51,10.32,10.32,0,0,0,.8-3.25,13.28,13.28,0,0,0,0-1.61S691.64,222.91,691.63,222.93Z"/><path class="cls-15" d="M691.58,226.5a3.17,3.17,0,0,0-.05.47,6,6,0,0,1-.26,1.5,7.47,7.47,0,0,1-1,2.24c-.29.44-.37.51-.69.6a4.17,4.17,0,0,0-1.73.87,3.27,3.27,0,0,0-1.44,2.52c0,.23,0,.28.06.39s.18.2.6.2a1.76,1.76,0,0,0,1.42-.49,10,10,0,0,0,3.14-6.38,7.15,7.15,0,0,0,.12-1.9C691.68,226.44,691.63,226.43,691.58,226.5Z"/><path class="cls-15" d="M691.56,230.1a1.39,1.39,0,0,0,0,.3,8.64,8.64,0,0,1-.46,2.26,7.25,7.25,0,0,1-1.23,2,1.15,1.15,0,0,1-.34.13,3.38,3.38,0,0,0-1.09.44,4.73,4.73,0,0,0-2,2.24,1.69,1.69,0,0,0,.06,1.22l.07.07H687a1.77,1.77,0,0,0,1.42-.45,9.81,9.81,0,0,0,1.92-2.61,7.29,7.29,0,0,0,.94-2.22,12.34,12.34,0,0,0,.41-3.47C691.65,229.94,691.59,230,691.56,230.1Z"/><path class="cls-15" d="M691.62,233.39a3.47,3.47,0,0,0-.13.84,6.79,6.79,0,0,1-.62,2.35,9.28,9.28,0,0,1-1,1.6c-.09.09-.18.12-.47.18a4.58,4.58,0,0,0-2.73,2,2.77,2.77,0,0,0-.36,1.39c0,.29.08.41.25.49a1.81,1.81,0,0,0,1.24-.08,6.87,6.87,0,0,0,2.53-2.94,9.26,9.26,0,0,0,1.16-3.27,12,12,0,0,0,.18-1.9C691.71,233.44,691.69,233.22,691.62,233.39Z"/><path class="cls-15" d="M687.62,245.76c.76-.26,1.54-1.07,2.47-2.55a9.88,9.88,0,0,0,1.5-4.16,12.74,12.74,0,0,0,.09-2.15c0-.08-.09,0-.12.09s0,.31,0,.52a6.93,6.93,0,0,1-1.36,3.78c-.35.56-.27.5-.72.55a2.37,2.37,0,0,0-1.56.77,5.83,5.83,0,0,0-1.35,1.68,2.59,2.59,0,0,0-.18,1.11"/><path class="cls-15" d="M686.42,246.79c1.31-.81.3.36,3-2.82a12.2,12.2,0,0,0,1.15-2c0-.07,0-.09-.07-.05a6.55,6.55,0,0,0-.5.74,7,7,0,0,1-2.46,2.43c-.77.52-.88.56-1.14.45"/><line class="cls-14" x1="658.45" y1="274.03" x2="658.45" y2="231.89"/><path class="cls-15" d="M659.23,201.61a8.65,8.65,0,0,0-1,2.16,11.8,11.8,0,0,0-.62,3.26,5.34,5.34,0,0,0,.76,3.48,1.69,1.69,0,0,0,.68.54.74.74,0,0,0,.42.1.57.57,0,0,0,.35-.07,1.15,1.15,0,0,0,.53-.69,2.63,2.63,0,0,0,0-.77,2.91,2.91,0,0,0-1.16-2.62,6.05,6.05,0,0,1-.8-.93,2.9,2.9,0,0,1,0-1.58,6.6,6.6,0,0,1,.46-1.49,8,8,0,0,0,.46-1.33C659.39,201.5,659.35,201.48,659.23,201.61Z"/><path class="cls-15" d="M658.43,232.6a3.36,3.36,0,0,0-1-1.57,4.77,4.77,0,0,0-1.58-1l-.34-.07a1.06,1.06,0,0,1-.66-.3c-.86-.79-1.29-2.27-1.44-4.91v-.28l.15.54a10.52,10.52,0,0,0,.86,2.18,7.27,7.27,0,0,0,2.6,3.09,1.62,1.62,0,0,0,.81.17c.41,0,.52,0,.61-.22s.06-.16.06-.51a2.2,2.2,0,0,0-.08-.65,3.78,3.78,0,0,0-.93-1.46,3.63,3.63,0,0,0-1.35-.92,3.45,3.45,0,0,0-.8-.26c-.12,0-.16,0-.35-.21a5,5,0,0,1-.38-.42,7.41,7.41,0,0,1-.93-1.84,16.54,16.54,0,0,1-.26-2.55c0-.49,0-.63.06-.43s.12.42.24.79a11,11,0,0,0,1,2.49,7.49,7.49,0,0,0,1.4,1.84,2.38,2.38,0,0,0,1.83.84c.44,0,.55-.13.57-.57a2.49,2.49,0,0,0-.38-1.4,4.28,4.28,0,0,0-.88-1.05,3.7,3.7,0,0,0-1.66-.93c-.5-.13-.55-.17-1-.76a5.63,5.63,0,0,1-1.17-3.5c0-.54-.06-1.4,0-1.37a5.24,5.24,0,0,1,.17.51,10.72,10.72,0,0,0,2.08,4.24,3.72,3.72,0,0,0,1.59,1.23,1.46,1.46,0,0,0,.54.07c.31,0,.38,0,.47-.06s.23-.18.23-.63a2,2,0,0,0-.24-1,4.13,4.13,0,0,0-1-1.33,3.89,3.89,0,0,0-1.65-.9c-.5-.13-.56-.18-1.11-.93a3.77,3.77,0,0,1-.73-1.42,12.73,12.73,0,0,1-.31-2.81v-.5l.06.18.24.78a12.87,12.87,0,0,0,1,2.55,6.42,6.42,0,0,0,2.13,2.35,1.71,1.71,0,0,0,1,.22c.51,0,.53,0,.62-.22a2.27,2.27,0,0,0-.26-1.66,4.46,4.46,0,0,0-2.68-2.06,1.4,1.4,0,0,1-.33-.11,5.64,5.64,0,0,1-1.09-1.32,6.16,6.16,0,0,1-.6-2.36c0-.31-.09-1.52-.08-1.75v-.13l.06.18a14.56,14.56,0,0,0,1.29,3.34,7.12,7.12,0,0,0,1.24,1.66,4.3,4.3,0,0,0,1.26.93c.56.24,1,.18,1.17-.17.06-.11.07-.15.07-.49a1.55,1.55,0,0,0-.08-.62,3.67,3.67,0,0,0-.61-1.09,6.42,6.42,0,0,0-1-1,3,3,0,0,0-1.31-.62.85.85,0,0,1-.28-.08,3.11,3.11,0,0,1-.64-.72c-.81-1.08-1.06-2-1.12-4.18a2.26,2.26,0,0,1,0-.6,6.68,6.68,0,0,1,.33,1,9.78,9.78,0,0,0,2,3.9,3.51,3.51,0,0,0,1.89,1.24.62.62,0,0,0,.36,0c.34-.09.48-.3.48-.75a2.17,2.17,0,0,0-.17-.84,3.68,3.68,0,0,0-1.09-1.47,3.6,3.6,0,0,0-1.82-1,.9.9,0,0,1-.58-.36,4.72,4.72,0,0,1-1-1.58,8.86,8.86,0,0,1-.46-2.94,3.51,3.51,0,0,0-.09-1.06s0,0,0,.09a11.22,11.22,0,0,0,0,2.63,7.6,7.6,0,0,1,0,1.72,7,7,0,0,0,0,1.72,7.77,7.77,0,0,1,0,1.81,7.1,7.1,0,0,0,0,1.73,7.28,7.28,0,0,1,0,1.75,7.55,7.55,0,0,0,0,1.78,7.3,7.3,0,0,1,0,1.75,6.54,6.54,0,0,0,0,1.77,7,7,0,0,1,0,1.71,7.77,7.77,0,0,0,0,1.66,9.79,9.79,0,0,1,0,1.11,24.19,24.19,0,0,0,.26,3.39,5.19,5.19,0,0,0,.32,1.54c.42,1.2,1.58,2,2.24,2.82"/><path class="cls-15" d="M661.31,203.13c0,.07,0,.12.1.68a5.91,5.91,0,0,1,.23,1.52,9.27,9.27,0,0,1-.41,2.94c-.17.67-.18.65,0,.65s.29-.07.45-.45a11,11,0,0,0,.48-2.7,7.5,7.5,0,0,0-.39-2.36,1.07,1.07,0,0,0-.09-.3.43.43,0,0,0-.21,0C661.37,203.08,661.34,203.09,661.31,203.13Z"/><path class="cls-15" d="M655.78,203.38s-.09.17-.24.85a6.31,6.31,0,0,0-.29,1.92,4.92,4.92,0,0,0,.06.89,3.72,3.72,0,0,0,.24,1,.36.36,0,0,0,.36.08c.17,0,.18,0,.1-.49a9.82,9.82,0,0,1-.17-2.37,4.52,4.52,0,0,1,.28-1.35,3.32,3.32,0,0,0,.14-.45.16.16,0,0,0-.06-.1A.45.45,0,0,0,655.78,203.38Z"/><path class="cls-15" d="M663.92,205.68c0,.07-.06.37-.09.67a6.43,6.43,0,0,1-1.13,3.3l-.5.89-.3,0a2.78,2.78,0,0,0-.84.22,4.59,4.59,0,0,0-2.06,1.79,1.72,1.72,0,0,0-.26,1c0,.67,0,.82.25.92a1.9,1.9,0,0,0,1.19-.13,7,7,0,0,0,2.51-2.89,9.65,9.65,0,0,0,1.22-3.67,7.69,7.69,0,0,0,.07-2.26A.24.24,0,0,0,663.92,205.68Z"/><path class="cls-15" d="M664,209.12a2.61,2.61,0,0,0-.13.75,7,7,0,0,1-.39,1.84A5.46,5.46,0,0,1,662,214h0a3.63,3.63,0,0,0-2,1,4.1,4.1,0,0,0-1.25,1.79c-.13.45,0,1.05.15,1.17a1.31,1.31,0,0,0,.49,0A1.57,1.57,0,0,0,660,218a2,2,0,0,0,.78-.45,11,11,0,0,0,2.41-3.51,10.61,10.61,0,0,0,.79-3.25,11.48,11.48,0,0,0,0-1.61S664,209.1,664,209.12Z"/><path class="cls-15" d="M663.92,212.69a2.67,2.67,0,0,0-.06.47,6,6,0,0,1-.25,1.5,8,8,0,0,1-1.05,2.24c-.29.44-.37.51-.7.6a4.17,4.17,0,0,0-1.73.87,3.27,3.27,0,0,0-1.44,2.52.75.75,0,0,0,.06.39c.1.17.18.2.61.2a1.76,1.76,0,0,0,1.42-.49,10.52,10.52,0,0,0,2.29-3.19,10.87,10.87,0,0,0,.85-3.19,7.61,7.61,0,0,0,.12-1.9C664,212.63,664,212.62,663.92,212.69Z"/><path class="cls-15" d="M663.9,216.29a1.36,1.36,0,0,0,0,.3,8.59,8.59,0,0,1-.45,2.26,7,7,0,0,1-1.24,2,1,1,0,0,1-.33.13,3.43,3.43,0,0,0-1.1.44,4.66,4.66,0,0,0-2,2.24,1.64,1.64,0,0,0,.06,1.22l.06.07h.46a1.74,1.74,0,0,0,1.41-.45,9.39,9.39,0,0,0,1.92-2.61,7.29,7.29,0,0,0,.94-2.22,11.62,11.62,0,0,0,.41-3.47C664,216.13,663.93,216.14,663.9,216.29Z"/><path class="cls-15" d="M664,219.58a4.13,4.13,0,0,0-.13.84,6.78,6.78,0,0,1-.61,2.35,10.74,10.74,0,0,1-1,1.6c-.09.09-.19.12-.47.18a4.6,4.6,0,0,0-2.74,2,2.76,2.76,0,0,0-.35,1.39c0,.29.07.41.24.49a1.81,1.81,0,0,0,1.24-.08,6.87,6.87,0,0,0,2.54-2.94,9.25,9.25,0,0,0,1.15-3.27,12,12,0,0,0,.18-1.9C664.05,219.63,664,219.41,664,219.58Z"/><path class="cls-15" d="M660,232c.76-.26,1.54-1.07,2.48-2.55a9.87,9.87,0,0,0,1.49-4.16,13,13,0,0,0,.1-2.15c0-.08-.1,0-.12.09a3.93,3.93,0,0,0,0,.52,6.93,6.93,0,0,1-1.36,3.78c-.34.56-.26.5-.72.55a2.37,2.37,0,0,0-1.55.77,5.72,5.72,0,0,0-1.36,1.68,2.43,2.43,0,0,0-.17,1.11"/><path class="cls-15" d="M658.76,233c1.31-.81.3.36,2.94-2.82a12.2,12.2,0,0,0,1.15-2c0-.07,0-.09-.06,0a6.55,6.55,0,0,0-.5.74,6.92,6.92,0,0,1-2.47,2.43c-.76.52-.88.56-1.13.45"/><line class="cls-8" x1="622.15" y1="332.91" x2="623.02" y2="244.88"/><line class="cls-8" x1="711.65" y1="201.5" x2="623.47" y2="244.65"/><line class="cls-8" x1="533.97" y1="200.86" x2="623.02" y2="244.88"/><text class="cls-16" transform="translate(24.17 307.74) scale(1.01 1)">Ag<tspan class="cls-17" x="246.97" y="0">r</tspan><tspan x="322.66" y="0">i</tspan></text><text class="cls-18" transform="translate(818.17 313.74) scale(1.01 1)"><tspan class="cls-19">T</tspan><tspan x="90.43" y="0">ech</tspan></text></svg>