<svg id="Layer_1" data-name="Layer 1" xmlns="http://www.w3.org/2000/svg" viewBox="0 0 823 704"><defs><style>.cls-1{font-size:200px;font-family:SegoeUI-SemiboldItalic, Segoe UI;font-weight:600;font-style:italic;}.cls-1,.cls-9{fill:#6cb119;}.cls-1,.cls-11,.cls-12{stroke:#000;}.cls-1,.cls-11,.cls-12,.cls-17{stroke-miterlimit:10;}.cls-1,.cls-17{stroke-width:2px;}.cls-2{letter-spacing:0em;}.cls-3,.cls-4{fill:#4c76b2;}.cls-3{letter-spacing:-0.1em;}.cls-5{fill:#b0d8ff;}.cls-6{fill:#106812;}.cls-7{fill:#003580;}.cls-8{fill:#a7cf2f;}.cls-10{fill:#fff;}.cls-11,.cls-12{fill:none;}.cls-12{stroke-width:5px;}.cls-13{fill:#c17d11;}.cls-14{fill:#8f5902;}.cls-15{fill:#7da81d;}.cls-16{fill:#469315;}.cls-17{fill:#00d41d;stroke:#009500;}.cls-18{fill:#d2ab00;}</style></defs><text class="cls-1" transform="translate(18.91 639.88) scale(1.01 1)">Ag<tspan class="cls-2" x="246.97" y="0">r</tspan><tspan x="322.66" y="0">i</tspan><tspan class="cls-3" x="380.27" y="0">T</tspan><tspan class="cls-4" x="470.7" y="0">ech</tspan></text><polygon class="cls-5" points="502.02 120.11 564.42 89.42 626.95 120.32 626.95 121 625.93 121 563.32 152 501.82 121.31 501.82 120.21 502.02 120.11"/><polygon class="cls-6" points="626.95 283.03 626.87 344.72 564.28 375.52 563.33 375.05 563.73 374.28 564.98 313.82 626.32 282.98 626.42 282.77 626.95 283.03"/><polygon class="cls-7" points="626.95 121 626.87 182.01 565.15 212.37 564.32 212.78 564.28 212.8 563.32 212.33 563.32 152 625.93 121 626.95 121"/><polygon class="cls-8" points="626.42 282.77 626.32 282.98 564.98 313.82 502.89 283.23 502.89 282.4 564.4 252.14 564.42 252.13 565.05 252.44 626.42 282.77"/><polygon class="cls-9" points="501.75 344.48 501.75 342.03 501.82 284.31 502.89 283.78 502.89 283.23 564.98 313.82 563.73 374.28 563.33 375.05 501.75 344.62 501.75 344.49 501.75 344.48"/><polygon class="cls-4" points="563.32 152 563.32 212.33 503 182.53 503 181.24 501.75 180.62 501.82 121.31 563.32 152"/><polygon class="cls-10" points="503 181.24 503 182.53 501.75 181.91 501.75 180.62 503 181.24"/><polygon class="cls-10" points="503 182.53 502.89 282.4 501.82 282.93 501.82 284.31 400.64 334.45 399.17 333.72 398.14 334.23 297.7 284.22 297.7 282.77 296.45 282.15 296.56 181.8 297.63 181.27 297.63 180.52 399.43 130.07 400.28 130.49 400.68 130.29 501.75 180.62 501.75 181.91 503 182.53"/><polygon class="cls-10" points="502.89 283.23 502.89 283.78 501.82 284.31 501.82 282.93 502.89 282.4 502.89 283.23"/><polygon class="cls-6" points="462.76 99.75 400.68 130.29 399.84 129.87 399.73 129.26 400.98 68.8 462.32 37.95 462.42 37.74 462.94 38 462.87 97.71 462.87 99.7 462.76 99.75"/><polygon class="cls-8" points="462.42 37.74 462.32 37.95 400.98 68.8 338.38 37.95 338.25 37.69 400.42 7.11 462.42 37.74"/><polygon class="cls-7" points="461.69 365.01 461.62 426.31 399.03 457.11 398.33 456.76 398.71 456 398.71 395 460.88 364.22 461.69 364.62 461.69 365.01"/><polygon class="cls-5" points="460.88 364.22 398.71 395 337.11 364.26 398.14 334.23 399.61 334.96 400.64 334.45 460.88 364.22"/><polygon class="cls-9" points="337.85 99.64 337.76 99.59 337.76 96.57 337.83 37.9 338.25 37.69 338.38 37.95 400.98 68.8 399.73 129.26 399.84 129.87 399.43 130.07 337.85 99.64"/><polygon class="cls-10" points="400.68 130.29 400.28 130.49 399.43 130.07 399.84 129.87 400.68 130.29"/><polygon class="cls-10" points="400.64 334.45 399.61 334.96 398.14 334.23 399.17 333.72 400.64 334.45"/><polygon class="cls-4" points="336.58 364.6 336.58 364.52 337.11 364.26 398.71 395 398.71 456 398.33 456.76 336.51 426.21 336.58 364.6"/><polygon class="cls-10" points="296.45 283.03 296.45 282.15 297.7 282.77 297.7 284.22 296.45 283.6 296.45 283.03"/><polygon class="cls-7" points="297.7 119.58 297.63 180.52 296.56 181.05 296.56 181.8 235.12 211.21 235.12 150.5 297.64 119.55 297.67 119.56 297.7 119.58"/><polygon class="cls-6" points="297.63 344.45 297.63 344.46 235.03 375.25 234.09 374.79 234.47 374.02 235.72 313.56 296.45 283.03 296.45 283.6 297.7 284.22 297.63 342.15 297.63 344.45"/><polygon class="cls-5" points="235.17 88.68 297.64 119.55 235.12 150.5 172.77 119.38 235.17 88.68"/><polygon class="cls-10" points="297.63 180.52 297.63 181.27 296.56 181.8 296.56 181.05 297.63 180.52"/><polygon class="cls-4" points="235.12 211.21 296.56 181.8 235.03 212.07 234.66 211.89 234.5 211.81 234.5 211.5 235.12 211.21"/><polygon class="cls-8" points="235.12 251.9 235.12 251.89 235.17 251.87 296.45 282.15 296.45 283.03 235.72 313.56 173.13 282.72 173 282.45 234.56 252.17 235.12 251.9"/><polygon class="cls-9" points="235.72 313.56 234.47 374.02 234.09 374.79 172.5 344.36 172.58 282.66 173 282.45 173.13 282.72 235.72 313.56"/><polygon class="cls-4" points="235.12 150.5 235.12 211.21 234.5 211.5 234.5 211.81 172.5 181.17 172.58 119.48 172.77 119.38 235.12 150.5"/><polyline class="cls-11" points="296.56 181.8 235.03 212.07 234.66 211.89"/><polyline class="cls-11" points="462.87 99.7 462.76 99.75 400.68 130.29"/><polyline class="cls-11" points="399.43 130.07 337.85 99.64 337.76 99.59"/><line class="cls-11" x1="338.12" y1="99.5" x2="366.4" y2="86.5"/><line class="cls-11" x1="297.7" y1="119.58" x2="297.63" y2="180.52"/><polyline class="cls-11" points="296.56 181.8 235.12 211.21 234.5 211.5"/><line class="cls-11" x1="503" y1="182.53" x2="502.89" y2="282.4"/><polyline class="cls-11" points="296.45 282.15 296.56 181.8 296.56 181.05 297.63 180.52 399.43 130.07 399.84 129.87 400.68 130.29 501.75 180.62"/><line class="cls-11" x1="398.14" y1="334.23" x2="297.7" y2="284.22"/><line class="cls-11" x1="501.82" y1="284.31" x2="400.64" y2="334.45"/><polyline class="cls-11" points="501.75 344.48 501.75 342.03 501.82 284.31 501.82 282.93 502.89 282.4 564.4 252.14 564.42 252.13"/><line class="cls-11" x1="501.75" y1="344.62" x2="501.75" y2="344.49"/><line class="cls-11" x1="502.38" y1="282.98" x2="502.89" y2="283.23"/><polyline class="cls-11" points="235.17 251.87 296.45 282.15 297.7 282.77 297.7 284.22 297.63 342.15 297.63 344.45 297.63 344.46"/><line class="cls-11" x1="297.07" y1="282.72" x2="296.45" y2="283.03"/><polyline class="cls-11" points="564.28 212.8 563.32 212.33 503 182.53 501.75 181.91 501.75 180.62 501.82 121.31 501.82 120.21"/><polyline class="cls-11" points="336.58 364.52 337.11 364.26 398.14 334.23 399.17 333.72 400.64 334.45 460.88 364.22 461.69 364.62"/><line class="cls-11" x1="501.83" y1="344.44" x2="530" y2="330.5"/><polyline class="cls-11" points="501.72 344.5 501.75 344.49 501.75 344.48"/><line class="cls-11" x1="564.33" y1="282" x2="564.33" y2="253.07"/><line class="cls-11" x1="235.12" y1="283" x2="235.12" y2="252.17"/><polyline class="cls-11" points="463.01 99.88 462.76 99.75 438.1 87.5"/><polyline class="cls-11" points="297.73 344.5 297.63 344.45 270.46 330.5"/><polyline class="cls-12" points="337.76 99.59 337.76 96.57 337.83 37.9 338.25 37.69 400.42 7.11 462.42 37.74 462.94 38 462.87 97.71 462.87 99.7"/><polyline class="cls-12" points="297.67 119.56 337.85 99.64 338.12 99.5"/><polyline class="cls-12" points="234.66 211.89 234.5 211.81 172.5 181.17 172.58 119.48 172.77 119.38 235.17 88.68 297.64 119.55 297.67 119.56 297.7 119.58"/><polyline class="cls-12" points="564.42 252.13 565.05 252.44 626.42 282.77 626.95 283.03 626.87 344.72 564.28 375.52 563.33 375.05 501.75 344.62"/><line class="cls-12" x1="235.12" y1="251.89" x2="235.17" y2="251.87"/><polyline class="cls-12" points="297.63 344.46 235.03 375.25 234.09 374.79 172.5 344.36 172.58 282.66 173 282.45 234.56 252.17 235.12 251.9"/><polyline class="cls-12" points="501.82 120.21 502.02 120.11 564.42 89.42 626.95 120.32 626.95 121 626.87 182.01 565.15 212.37 564.32 212.78 564.28 212.8"/><polyline class="cls-12" points="461.69 364.62 461.69 365.01 461.62 426.31 399.03 457.11 398.33 456.76 336.51 426.21 336.58 364.6 336.58 364.52"/><polyline class="cls-12" points="461.51 365.11 461.69 365.01 461.8 364.95 501.72 344.5 501.75 344.48 501.83 344.44"/><line class="cls-12" x1="564.33" y1="252" x2="564.43" y2="213"/><polyline class="cls-12" points="235.12 252.17 235.12 251.9 235.12 251.89 234.5 211.81 234.5 211.5"/><polyline class="cls-12" points="502.41 120.33 502.02 120.11 463.01 99.88"/><polyline class="cls-12" points="337.13 364.92 336.58 364.6 297.73 344.5"/><g id="layer1"><g id="g9775"><path id="path9777" class="cls-13" d="M398.52,232,296,282.75,399.48,334,502,283.25,398.52,232Z"/><path id="path9779" class="cls-14" d="M308,288.68s28.17-11.58,29.67-12.47,18.44-13.76,18.44-13.76l22.63-10.17,11.79-3.89,20-10.47,13.67,6.77-20.55,8.36-.12,2.23-20.54,10.17L355.76,281.3l-18.13,8.37-16,5.77L308,288.68Z"/><path id="path9781" class="cls-14" d="M345.22,307.12s27.09-11.69,28.62-12.59,20.22-5.68,20.22-5.68l36.26-25.72,11.77-6,5.58-.81,12,5.94-20,11.33-20.55,10.17-27.73,14L373.84,308l-16.73,5Z"/><path id="path9783" class="cls-14" d="M374.26,321.57s27.9-10.75,29.42-11.64,20.23-5.67,20.23-5.67l36.25-25.73,11.77-6,4.7-1.89,15.43,7.65L469.52,289,449,299.17,421.79,315l-18.11,8.37-14,5.79-15.38-7.61Z"/></g></g><path class="cls-15" d="M330.46,288.37a1.14,1.14,0,0,1-1.25,1h0a1.14,1.14,0,0,1-1.24-1v-84a1.14,1.14,0,0,1,1.24-1h0a1.14,1.14,0,0,1,1.25,1Z"/><ellipse class="cls-15" cx="329.21" cy="291.13" rx="4.9" ry="3.87"/><path class="cls-15" d="M329.26,182c-5.17,2-9.09,11-9.09,15.32s3.92,7.87,9.09,8.64Z"/><path class="cls-16" d="M329.17,182c5.17,2,9.08,11,9.08,15.32s-3.92,7.87-9.08,8.64Z"/><path class="cls-15" d="M352.1,208.86c-5.45-1.47-16.29,2.72-20.15,5.77s-4.28,7.75-1.3,11.17Z"/><path class="cls-16" d="M352,208.81c1.86,4.31-3.45,12.87-7.29,15.91a13.46,13.46,0,0,1-14.16,1Z"/><path class="cls-15" d="M352.1,228.75c-5.45-1.46-16.29,2.72-20.15,5.77s-4.28,7.75-1.3,11.17Z"/><path class="cls-16" d="M352,228.71c1.86,4.3-3.45,12.86-7.29,15.91a13.45,13.45,0,0,1-14.16,1Z"/><path class="cls-15" d="M352.1,248.65c-5.45-1.47-16.29,2.72-20.15,5.76s-4.28,7.75-1.3,11.18Z"/><path class="cls-16" d="M352,248.6c1.86,4.3-3.45,12.87-7.29,15.91a13.43,13.43,0,0,1-14.16,1Z"/><path class="cls-15" d="M348.28,271.55c-4.48-1.21-13.4,2.24-16.56,4.74s-3.52,6.37-1.08,9.19Z"/><path class="cls-16" d="M348.23,271.51c1.53,3.54-2.83,10.58-6,13.08a11,11,0,0,1-11.64.85Z"/><path class="cls-15" d="M306.32,208.86c5.45-1.47,16.29,2.72,20.15,5.77s4.28,7.75,1.31,11.17Z"/><path class="cls-16" d="M306.38,208.81c-1.86,4.31,3.45,12.87,7.3,15.91a13.44,13.44,0,0,0,14.15,1Z"/><path class="cls-15" d="M306.32,228.75c5.45-1.46,16.29,2.72,20.15,5.77s4.28,7.75,1.31,11.17Z"/><path class="cls-16" d="M306.38,228.71c-1.86,4.3,3.45,12.86,7.3,15.91a13.44,13.44,0,0,0,14.15,1Z"/><path class="cls-15" d="M306.32,248.65c5.45-1.47,16.29,2.72,20.15,5.76s4.28,7.75,1.31,11.18Z"/><path class="cls-16" d="M306.38,248.6c-1.86,4.3,3.45,12.87,7.3,15.91a13.42,13.42,0,0,0,14.15,1Z"/><path class="cls-15" d="M310.14,271.55c4.49-1.21,13.4,2.24,16.57,4.74s3.52,6.37,1.07,9.19Z"/><path class="cls-16" d="M327.45,284.84a10.49,10.49,0,0,1-11.12-.81c-3-2.4-7.2-9.17-5.74-12.57Z"/><path class="cls-15" d="M373,312.67a1.14,1.14,0,0,1-1.24,1h0a1.14,1.14,0,0,1-1.25-1v-84a1.14,1.14,0,0,1,1.25-1h0a1.14,1.14,0,0,1,1.24,1Z"/><ellipse class="cls-15" cx="371.8" cy="315.43" rx="4.9" ry="3.87"/><path class="cls-15" d="M371.84,206.31c-5.17,2-9.08,11-9.08,15.32s3.91,7.87,9.08,8.63Z"/><path class="cls-16" d="M371.75,206.31c5.17,2,9.08,11,9.08,15.32s-3.91,7.87-9.08,8.63Z"/><path class="cls-15" d="M394.69,233.17c-5.46-1.47-16.3,2.72-20.15,5.76s-4.28,7.75-1.31,11.18Z"/><path class="cls-16" d="M394.63,233.12c1.85,4.3-3.45,12.87-7.3,15.91a13.43,13.43,0,0,1-14.16,1Z"/><path class="cls-15" d="M394.69,253.06c-5.46-1.47-16.3,2.72-20.15,5.76s-4.28,7.76-1.31,11.18Z"/><path class="cls-16" d="M394.63,253c1.85,4.31-3.45,12.87-7.3,15.91a13.43,13.43,0,0,1-14.16,1Z"/><path class="cls-15" d="M394.69,273c-5.46-1.47-16.3,2.72-20.15,5.76s-4.28,7.76-1.31,11.18Z"/><path class="cls-16" d="M394.63,272.91c1.85,4.3-3.45,12.86-7.3,15.9a13.43,13.43,0,0,1-14.16,1Z"/><path class="cls-15" d="M390.86,295.85c-4.48-1.2-13.4,2.24-16.56,4.74s-3.52,6.38-1.08,9.19Z"/><path class="cls-16" d="M390.82,295.82c1.52,3.54-2.84,10.58-6,13.08a11.06,11.06,0,0,1-11.65.85Z"/><path class="cls-15" d="M348.9,233.17c5.46-1.47,16.3,2.72,20.15,5.76s4.29,7.75,1.31,11.18Z"/><path class="cls-16" d="M349,233.12c-1.86,4.3,3.44,12.87,7.29,15.91a13.43,13.43,0,0,0,14.16,1Z"/><path class="cls-15" d="M348.9,253.06c5.46-1.47,16.3,2.72,20.15,5.76s4.29,7.76,1.31,11.18Z"/><path class="cls-16" d="M349,253c-1.86,4.31,3.44,12.87,7.29,15.91a13.43,13.43,0,0,0,14.16,1Z"/><path class="cls-15" d="M348.9,273c5.46-1.47,16.3,2.72,20.15,5.76s4.29,7.76,1.31,11.18Z"/><path class="cls-16" d="M349,272.91c-1.86,4.3,3.44,12.86,7.29,15.9a13.43,13.43,0,0,0,14.16,1Z"/><path class="cls-15" d="M352.73,295.85c4.48-1.2,13.4,2.24,16.56,4.74s3.52,6.38,1.08,9.19Z"/><path class="cls-16" d="M370,309.15a10.51,10.51,0,0,1-11.12-.82c-3-2.4-7.19-9.16-5.73-12.56Z"/><path class="cls-15" d="M427,312.67a1.14,1.14,0,0,1-1.24,1h0a1.14,1.14,0,0,1-1.25-1v-84a1.14,1.14,0,0,1,1.25-1h0a1.14,1.14,0,0,1,1.24,1Z"/><ellipse class="cls-15" cx="425.8" cy="315.43" rx="4.9" ry="3.87"/><path class="cls-15" d="M425.84,206.31c-5.17,2-9.08,11-9.08,15.32s3.91,7.87,9.08,8.63Z"/><path class="cls-16" d="M425.75,206.31c5.17,2,9.08,11,9.08,15.32s-3.91,7.87-9.08,8.63Z"/><path class="cls-15" d="M448.69,233.17c-5.46-1.47-16.3,2.72-20.15,5.76s-4.28,7.75-1.31,11.18Z"/><path class="cls-16" d="M448.63,233.12c1.85,4.3-3.45,12.87-7.3,15.91a13.43,13.43,0,0,1-14.16,1Z"/><path class="cls-15" d="M448.69,253.06c-5.46-1.47-16.3,2.72-20.15,5.76s-4.28,7.76-1.31,11.18Z"/><path class="cls-16" d="M448.63,253c1.85,4.31-3.45,12.87-7.3,15.91a13.43,13.43,0,0,1-14.16,1Z"/><path class="cls-15" d="M448.69,273c-5.46-1.47-16.3,2.72-20.15,5.76s-4.28,7.76-1.31,11.18Z"/><path class="cls-16" d="M448.63,272.91c1.85,4.3-3.45,12.86-7.3,15.9a13.43,13.43,0,0,1-14.16,1Z"/><path class="cls-15" d="M444.86,295.85c-4.48-1.2-13.4,2.24-16.56,4.74s-3.52,6.38-1.08,9.19Z"/><path class="cls-16" d="M444.82,295.82c1.52,3.54-2.84,10.58-6,13.08a11.06,11.06,0,0,1-11.65.85Z"/><path class="cls-15" d="M402.9,233.17c5.46-1.47,16.3,2.72,20.15,5.76s4.29,7.75,1.31,11.18Z"/><path class="cls-16" d="M403,233.12c-1.86,4.3,3.44,12.87,7.29,15.91a13.43,13.43,0,0,0,14.16,1Z"/><path class="cls-15" d="M402.9,253.06c5.46-1.47,16.3,2.72,20.15,5.76s4.29,7.76,1.31,11.18Z"/><path class="cls-16" d="M403,253c-1.86,4.31,3.44,12.87,7.29,15.91a13.43,13.43,0,0,0,14.16,1Z"/><path class="cls-15" d="M402.9,273c5.46-1.47,16.3,2.72,20.15,5.76s4.29,7.76,1.31,11.18Z"/><path class="cls-16" d="M403,272.91c-1.86,4.3,3.44,12.86,7.29,15.9a13.43,13.43,0,0,0,14.16,1Z"/><path class="cls-15" d="M406.73,295.85c4.48-1.2,13.4,2.24,16.56,4.74s3.52,6.38,1.08,9.19Z"/><path class="cls-16" d="M424,309.15a10.51,10.51,0,0,1-11.12-.82c-3-2.4-7.19-9.16-5.73-12.56Z"/><path class="cls-15" d="M475,290.67a1.14,1.14,0,0,1-1.24,1h0a1.14,1.14,0,0,1-1.25-1v-84a1.14,1.14,0,0,1,1.25-1h0a1.14,1.14,0,0,1,1.24,1Z"/><ellipse class="cls-15" cx="473.8" cy="293.43" rx="4.9" ry="3.87"/><path class="cls-15" d="M473.84,184.31c-5.17,2-9.08,11-9.08,15.32s3.91,7.87,9.08,8.63Z"/><path class="cls-16" d="M473.75,184.31c5.17,2,9.08,11,9.08,15.32s-3.91,7.87-9.08,8.63Z"/><path class="cls-15" d="M496.69,211.17c-5.46-1.47-16.3,2.72-20.15,5.76s-4.28,7.75-1.31,11.18Z"/><path class="cls-16" d="M496.63,211.12c1.85,4.3-3.45,12.87-7.3,15.91a13.43,13.43,0,0,1-14.16,1Z"/><path class="cls-15" d="M496.69,231.06c-5.46-1.47-16.3,2.72-20.15,5.76s-4.28,7.76-1.31,11.18Z"/><path class="cls-16" d="M496.63,231c1.85,4.31-3.45,12.87-7.3,15.91a13.43,13.43,0,0,1-14.16,1Z"/><path class="cls-15" d="M496.69,251c-5.46-1.47-16.3,2.72-20.15,5.76s-4.28,7.76-1.31,11.18Z"/><path class="cls-16" d="M496.63,250.91c1.85,4.3-3.45,12.86-7.3,15.9a13.43,13.43,0,0,1-14.16,1Z"/><path class="cls-15" d="M492.86,273.85c-4.48-1.2-13.4,2.24-16.56,4.74s-3.52,6.38-1.08,9.19Z"/><path class="cls-16" d="M492.82,273.82c1.52,3.54-2.84,10.58-6,13.08a11.06,11.06,0,0,1-11.65.85Z"/><path class="cls-15" d="M450.9,211.17c5.46-1.47,16.3,2.72,20.15,5.76s4.29,7.75,1.31,11.18Z"/><path class="cls-16" d="M451,211.12c-1.86,4.3,3.44,12.87,7.29,15.91a13.43,13.43,0,0,0,14.16,1Z"/><path class="cls-15" d="M450.9,231.06c5.46-1.47,16.3,2.72,20.15,5.76s4.29,7.76,1.31,11.18Z"/><path class="cls-16" d="M451,231c-1.86,4.31,3.44,12.87,7.29,15.91a13.43,13.43,0,0,0,14.16,1Z"/><path class="cls-15" d="M450.9,251c5.46-1.47,16.3,2.72,20.15,5.76s4.29,7.76,1.31,11.18Z"/><path class="cls-16" d="M451,250.91c-1.86,4.3,3.44,12.86,7.29,15.9a13.43,13.43,0,0,0,14.16,1Z"/><path class="cls-15" d="M454.73,273.85c4.48-1.2,13.4,2.24,16.56,4.74s3.52,6.38,1.08,9.19Z"/><path class="cls-16" d="M472,287.15a10.51,10.51,0,0,1-11.12-.82c-3-2.4-7.19-9.16-5.73-12.56Z"/><path class="cls-16" d="M359.9,214h0a7.52,7.52,0,0,0,9.1-.83c2.48-2.33,5.87-8.86,4.73-12.2l0,0h0v0l0,0c-3.55-1.07-10.48,2.13-12.95,4.46a7,7,0,0,0-1,1.16v-8.08a1.19,1.19,0,0,1,.09.15h0a0,0,0,0,1,0,0h0a7.54,7.54,0,0,0,9.1-.82c2.48-2.34,5.87-8.87,4.73-12.21l0,0h0v0l0,0c-3.55-1.07-10.48,2.13-12.95,4.46a7.46,7.46,0,0,0-1,1.16v-8.06a6.81,6.81,0,0,0,5-6.44c0-3.3-2.49-10.18-5.81-11.78v0H359v0c-3.31,1.6-5.82,8.48-5.82,11.78a6.82,6.82,0,0,0,5,6.44v8.07a6.22,6.22,0,0,0-1-1.17c-2.47-2.33-9.4-5.53-12.95-4.46l0,0s0,0,0,0h0l0,0c-1.15,3.34,2.25,9.87,4.72,12.21a7.52,7.52,0,0,0,9.09.82h0l0,0h0a1.19,1.19,0,0,1,.09-.15v8.08a6.56,6.56,0,0,0-1-1.16c-2.47-2.33-9.4-5.53-12.95-4.46l0,0s0,0,0,0h0l0,0c-1.15,3.34,2.25,9.87,4.72,12.2a7.52,7.52,0,0,0,9.1.83h0v0l0,0h0c0-.05.05-.1.09-.16v8.09a6.22,6.22,0,0,0-1-1.16c-2.47-2.33-9.4-5.53-12.95-4.46l0,0s0,0,0,0h0l0,0c-1.15,3.33,2.25,9.87,4.72,12.2a7.52,7.52,0,0,0,9.1.82h0l0,0h0a1.29,1.29,0,0,1,.09-.16v9.44a5.39,5.39,0,0,0-.82-1c-2-1.92-7.73-4.55-10.64-3.66l0,0v0h0l0,0c-.94,2.74,1.85,8.12,3.89,10a6.18,6.18,0,0,0,7.47.67h0l0,0h0a1.29,1.29,0,0,1,.09-.16v1.69a3,3,0,0,0-2.36,2.87,3.17,3.17,0,0,0,6.33,0,3,3,0,0,0-2.36-2.88v-1.68l.09.16h0s0,0,0,0h0a6.18,6.18,0,0,0,7.47-.67c2-1.92,4.83-7.3,3.89-10l0,0h0v0l0,0c-2.91-.89-8.61,1.75-10.65,3.66a5.76,5.76,0,0,0-.81,1v-9.44l.09.16h0v0h0a7.52,7.52,0,0,0,9.1-.82c2.47-2.33,5.86-8.87,4.72-12.2l0,0h0v0l0,0c-3.55-1.07-10.48,2.13-13,4.46a6.5,6.5,0,0,0-1,1.16v-8.09l.09.16h0Z"/><path class="cls-16" d="M436.93,211h0a7.52,7.52,0,0,0,9.1-.83c2.47-2.33,5.87-8.86,4.72-12.2l0,0h0v0l0,0c-3.55-1.07-10.48,2.13-13,4.46a6.5,6.5,0,0,0-1,1.16v-8.08a1.19,1.19,0,0,0,.09.15h0l0,0h0a7.54,7.54,0,0,0,9.1-.82c2.47-2.34,5.87-8.87,4.72-12.21l0,0h0a0,0,0,0,1,0,0l0,0c-3.55-1.07-10.48,2.13-13,4.46a6.87,6.87,0,0,0-1,1.16v-8.06a6.81,6.81,0,0,0,5-6.44c0-3.3-2.5-10.18-5.81-11.78v0H436v0c-3.32,1.6-5.82,8.48-5.82,11.78a6.82,6.82,0,0,0,5,6.44v8.07a7.09,7.09,0,0,0-1-1.17c-2.48-2.33-9.41-5.53-12.95-4.46l0,0v0h0l0,0c-1.14,3.34,2.25,9.87,4.73,12.21a7.52,7.52,0,0,0,9.09.82h0a0,0,0,0,1,0,0h0l.1-.15v8.08a7,7,0,0,0-1-1.16c-2.48-2.33-9.41-5.53-12.95-4.46l0,0v0h0l0,0c-1.14,3.34,2.25,9.87,4.73,12.2a7.52,7.52,0,0,0,9.1.83h0v0l0,0h0c0-.05.06-.1.1-.16v8.09a6.64,6.64,0,0,0-1-1.16c-2.48-2.33-9.41-5.53-12.95-4.46l0,0v0h0l0,0c-1.14,3.33,2.25,9.87,4.73,12.2a7.52,7.52,0,0,0,9.1.82h0l0,0h0c0-.05.06-.11.1-.16v9.44a5.83,5.83,0,0,0-.82-1c-2-1.92-7.73-4.55-10.64-3.66l0,0v0h0l0,0c-.94,2.74,1.85,8.12,3.88,10a6.19,6.19,0,0,0,7.48.67h0l0,0h0c0-.05.06-.11.1-.16v1.69a3,3,0,0,0-2.36,2.87,3.17,3.17,0,0,0,6.32,0,3,3,0,0,0-2.36-2.88v-1.68s.06.11.1.16h0s0,0,0,0h0a6.18,6.18,0,0,0,7.47-.67c2-1.92,4.83-7.3,3.89-10l0,0h0v0l0,0c-2.91-.89-8.62,1.75-10.64,3.66a5.39,5.39,0,0,0-.82,1v-9.44l.09.16h0v0h0a7.52,7.52,0,0,0,9.1-.82c2.47-2.33,5.87-8.87,4.72-12.2l0,0h0v0l0,0c-3.55-1.07-10.48,2.13-13,4.46a7,7,0,0,0-1,1.16v-8.09l.09.16h0Z"/><line class="cls-17" x1="359.98" y1="269.77" x2="359.98" y2="220.95"/><path class="cls-18" d="M360.88,185.87a11,11,0,0,0-1.16,2.51,13.71,13.71,0,0,0-.72,3.78,6.22,6.22,0,0,0,.89,4,2,2,0,0,0,.78.62.86.86,0,0,0,.49.11.66.66,0,0,0,.4-.08,1.32,1.32,0,0,0,.61-.79,3,3,0,0,0,.06-.9c0-1.46-.17-1.82-1.35-3A7.5,7.5,0,0,1,360,191a3.49,3.49,0,0,1,0-1.83,8.8,8.8,0,0,1,.53-1.73,8.65,8.65,0,0,0,.54-1.53C361.08,185.75,361,185.72,360.88,185.87Z"/><path class="cls-18" d="M360,221.78a4,4,0,0,0-1.16-1.82,5.42,5.42,0,0,0-1.83-1.2,3.46,3.46,0,0,0-.4-.08,1.16,1.16,0,0,1-.75-.36c-1-.91-1.5-2.62-1.67-5.68l0-.32.18.62a12.54,12.54,0,0,0,1,2.53,8.33,8.33,0,0,0,3,3.57,1.9,1.9,0,0,0,.94.2c.47,0,.6-.05.7-.25s.07-.19.07-.59a2.42,2.42,0,0,0-.09-.75,4.38,4.38,0,0,0-1.07-1.7,4.95,4.95,0,0,0-2.5-1.37c-.13,0-.18-.05-.39-.24a5.12,5.12,0,0,1-.45-.49,8.91,8.91,0,0,1-1.08-2.13,21.94,21.94,0,0,1-.3-2.95c0-.57,0-.74.08-.5l.27.91a12.3,12.3,0,0,0,1.15,2.89,8.76,8.76,0,0,0,1.61,2.13,2.81,2.81,0,0,0,2.12,1c.51,0,.64-.16.66-.66a2.79,2.79,0,0,0-.44-1.63,5.16,5.16,0,0,0-1-1.22,4.26,4.26,0,0,0-1.92-1.07c-.58-.15-.64-.2-1.12-.89a6.47,6.47,0,0,1-1.34-4.05c0-.63-.07-1.62,0-1.59s.09.28.19.59c.88,2.69,1.39,3.73,2.41,4.91A4.29,4.29,0,0,0,358.6,211a1.66,1.66,0,0,0,.63.07,1.18,1.18,0,0,0,.54-.06c.22-.1.26-.21.26-.73a2.29,2.29,0,0,0-.28-1.2,4.61,4.61,0,0,0-1.2-1.54,4.28,4.28,0,0,0-1.91-1c-.58-.15-.65-.21-1.28-1.08a4.23,4.23,0,0,1-.84-1.65,14.19,14.19,0,0,1-.36-3.25l0-.58.07.21c0,.11.16.52.28.9a14.94,14.94,0,0,0,1.19,3,7.61,7.61,0,0,0,2.46,2.72,2.09,2.09,0,0,0,1.12.25c.59,0,.61,0,.71-.25a2.65,2.65,0,0,0-.29-1.93,5.19,5.19,0,0,0-3.11-2.38,1.66,1.66,0,0,1-.38-.13,6.39,6.39,0,0,1-1.26-1.53,7.1,7.1,0,0,1-.69-2.73c0-.36-.1-1.77-.1-2v-.15l.06.21a16.71,16.71,0,0,0,1.5,3.87,8.43,8.43,0,0,0,1.43,1.92,4.78,4.78,0,0,0,1.46,1.08c.64.28,1.13.21,1.35-.2.07-.13.08-.18.08-.56a1.94,1.94,0,0,0-.09-.73,4.6,4.6,0,0,0-.7-1.26,8.63,8.63,0,0,0-1.21-1.12,3.5,3.5,0,0,0-1.51-.72,1,1,0,0,1-.32-.09,3.88,3.88,0,0,1-.75-.83c-.94-1.26-1.22-2.32-1.3-4.85,0-.49,0-.71,0-.69a8.71,8.71,0,0,1,.38,1.17,11.27,11.27,0,0,0,2.35,4.53,4.15,4.15,0,0,0,2.18,1.44.83.83,0,0,0,.42,0c.4-.1.55-.35.55-.86a2.34,2.34,0,0,0-.19-1,5.48,5.48,0,0,0-3.37-2.91,1.08,1.08,0,0,1-.67-.42,5.38,5.38,0,0,1-1.15-1.83,10.49,10.49,0,0,1-.53-3.41c0-.93-.05-1.19-.1-1.22s0,0-.06.1a13.11,13.11,0,0,0-.06,3.05,8.8,8.8,0,0,1,0,2,8.3,8.3,0,0,0,0,2,9.06,9.06,0,0,1,0,2.09,8.3,8.3,0,0,0,0,2,8.57,8.57,0,0,1,0,2,8.93,8.93,0,0,0,0,2.07,8.6,8.6,0,0,1,0,2,7.72,7.72,0,0,0,0,2,8.23,8.23,0,0,1,0,2,8.88,8.88,0,0,0,0,1.92,10,10,0,0,1,.05,1.29,27.35,27.35,0,0,0,.3,3.93,6.15,6.15,0,0,0,.36,1.78c.49,1.39,1.84,2.31,2.6,3.26"/><path class="cls-18" d="M363.3,187.63c-.06.09-.05.14.11.79a7.55,7.55,0,0,1,.27,1.76,11,11,0,0,1-.47,3.41c-.21.78-.21.75.05.75s.33-.08.52-.52a13,13,0,0,0,.56-3.13,8.9,8.9,0,0,0-.46-2.73,1.82,1.82,0,0,0-.1-.35.48.48,0,0,0-.24,0C363.37,187.57,363.32,187.58,363.3,187.63Z"/><path class="cls-18" d="M356.9,187.92c-.06,0-.11.19-.28,1a7.37,7.37,0,0,0-.33,2.23,6.43,6.43,0,0,0,.06,1,4.6,4.6,0,0,0,.28,1.18.45.45,0,0,0,.42.1c.2,0,.2-.05.11-.56a12.19,12.19,0,0,1-.2-2.75,5.24,5.24,0,0,1,.33-1.56,4.62,4.62,0,0,0,.16-.53.2.2,0,0,0-.06-.11A.53.53,0,0,0,356.9,187.92Z"/><path class="cls-18" d="M366.32,190.59c0,.07-.07.42-.11.78a7.44,7.44,0,0,1-1.31,3.81l-.57,1-.35,0a3.34,3.34,0,0,0-1,.26,5.26,5.26,0,0,0-2.37,2.08,1.91,1.91,0,0,0-.31,1.17c0,.77,0,.94.29,1.06a2.16,2.16,0,0,0,1.38-.15c.85-.38,1.84-1.52,2.9-3.35a11.23,11.23,0,0,0,1.41-4.25,8.77,8.77,0,0,0,.08-2.62A.3.3,0,0,0,366.32,190.59Z"/><path class="cls-18" d="M366.37,194.57a2.69,2.69,0,0,0-.15.87,8.55,8.55,0,0,1-.45,2.14,6.17,6.17,0,0,1-1.69,2.65h0a4.25,4.25,0,0,0-2.27,1.18,4.72,4.72,0,0,0-1.45,2.07c-.15.53-.06,1.22.18,1.36.07,0,.17.05.56.05a1.82,1.82,0,0,0,.72-.08,2.32,2.32,0,0,0,.9-.52,12.52,12.52,0,0,0,2.78-4.07,11.91,11.91,0,0,0,.92-3.77,14,14,0,0,0,0-1.87S366.38,194.55,366.37,194.57Z"/><path class="cls-18" d="M366.31,198.7a2.8,2.8,0,0,0-.06.56A7.06,7.06,0,0,1,366,201a9.07,9.07,0,0,1-1.21,2.59c-.34.51-.43.59-.81.69a4.86,4.86,0,0,0-2,1,3.78,3.78,0,0,0-1.67,2.92.73.73,0,0,0,.08.45c.1.2.2.23.7.23a2.08,2.08,0,0,0,1.64-.56,11.63,11.63,0,0,0,3.63-7.39,8.93,8.93,0,0,0,.14-2.21C366.42,198.64,366.36,198.62,366.31,198.7Z"/><path class="cls-18" d="M366.28,202.88a3.27,3.27,0,0,0,0,.35,10,10,0,0,1-.53,2.62,8.28,8.28,0,0,1-1.43,2.36,1.29,1.29,0,0,1-.38.15,3.94,3.94,0,0,0-1.27.51,5.39,5.39,0,0,0-2.28,2.59,1.91,1.91,0,0,0,.06,1.42l.08.09H361a2,2,0,0,0,1.64-.52,11.14,11.14,0,0,0,2.22-3,8.45,8.45,0,0,0,1.09-2.58,13.78,13.78,0,0,0,.47-4C366.39,202.69,366.32,202.71,366.28,202.88Z"/><path class="cls-18" d="M366.35,206.69a4.85,4.85,0,0,0-.15,1,8.2,8.2,0,0,1-.71,2.72,11.58,11.58,0,0,1-1.12,1.85,1,1,0,0,1-.55.21,5.3,5.3,0,0,0-3.16,2.35,3.12,3.12,0,0,0-.41,1.61c0,.34.09.47.28.57a2,2,0,0,0,1.44-.1c.87-.37,1.88-1.54,2.93-3.4a10.81,10.81,0,0,0,1.34-3.78,16.36,16.36,0,0,0,.21-2.21C366.46,206.75,366.43,206.5,366.35,206.69Z"/><path class="cls-18" d="M361.72,221c.88-.3,1.79-1.23,2.87-3a11.4,11.4,0,0,0,1.72-4.83,14.26,14.26,0,0,0,.12-2.48c-.05-.1-.11,0-.15.11s0,.35,0,.59a8,8,0,0,1-1.58,4.38c-.4.65-.3.58-.83.64a2.79,2.79,0,0,0-1.8.89,6.75,6.75,0,0,0-1.57,1.95,2.93,2.93,0,0,0-.2,1.29"/><path class="cls-18" d="M360.34,222.22c1.52-.94.35.41,3.41-3.27a13.83,13.83,0,0,0,1.33-2.35c0-.08,0-.11-.08-.06a6.45,6.45,0,0,0-.57.86,8,8,0,0,1-2.86,2.81c-.88.6-1,.66-1.31.52"/><line class="cls-17" x1="329.5" y1="284" x2="329.5" y2="235.18"/><path class="cls-18" d="M330.4,200.1a10.5,10.5,0,0,0-1.17,2.51,14,14,0,0,0-.71,3.77,6.19,6.19,0,0,0,.88,4,2,2,0,0,0,.78.63,1,1,0,0,0,.5.11.75.75,0,0,0,.4-.08,1.34,1.34,0,0,0,.61-.8,2.69,2.69,0,0,0,.05-.89c0-1.46-.17-1.83-1.34-3a7.68,7.68,0,0,1-.93-1.09,3.42,3.42,0,0,1,0-1.83,8.73,8.73,0,0,1,.53-1.72,8.32,8.32,0,0,0,.54-1.54C330.59,200,330.54,200,330.4,200.1Z"/><path class="cls-18" d="M329.48,236a4,4,0,0,0-1.15-1.82A5.72,5.72,0,0,0,326.5,233l-.4-.08a1.2,1.2,0,0,1-.76-.35c-1-.91-1.5-2.62-1.67-5.68v-.33l.17.62a12.57,12.57,0,0,0,1,2.53,8.26,8.26,0,0,0,3,3.57,1.8,1.8,0,0,0,.94.2c.47,0,.59,0,.7-.25s.07-.18.06-.59a2,2,0,0,0-.09-.75,4.4,4.4,0,0,0-1.07-1.7,4.1,4.1,0,0,0-1.56-1.06,3.48,3.48,0,0,0-.93-.3c-.13,0-.18-.05-.4-.25a4.15,4.15,0,0,1-.44-.49A8.67,8.67,0,0,1,324,226a20.72,20.72,0,0,1-.3-3c0-.57,0-.73.07-.5,0,.08.15.49.27.92a12.82,12.82,0,0,0,1.16,2.88,8.63,8.63,0,0,0,1.61,2.14,2.78,2.78,0,0,0,2.12,1c.51,0,.64-.15.66-.66a2.86,2.86,0,0,0-.44-1.62,4.64,4.64,0,0,0-1-1.22,4.35,4.35,0,0,0-1.91-1.08c-.59-.15-.65-.2-1.12-.88a6.56,6.56,0,0,1-1.35-4.05c0-.63-.07-1.63-.05-1.59s.1.28.2.59c.88,2.68,1.39,3.73,2.41,4.91a4.33,4.33,0,0,0,1.84,1.43,1.63,1.63,0,0,0,.62.07c.35,0,.43,0,.54-.06s.27-.21.27-.73a2.37,2.37,0,0,0-.28-1.19,4.78,4.78,0,0,0-1.2-1.55,4.54,4.54,0,0,0-1.91-1c-.58-.15-.65-.21-1.28-1.07A4.34,4.34,0,0,1,324,218a14.4,14.4,0,0,1-.35-3.26l0-.57.07.2c0,.12.16.52.28.9a14.69,14.69,0,0,0,1.19,3,7.43,7.43,0,0,0,2.46,2.72,2,2,0,0,0,1.12.26c.58,0,.61,0,.71-.26a2.68,2.68,0,0,0-.29-1.92,5.21,5.21,0,0,0-3.12-2.38,1.3,1.3,0,0,1-.37-.14,6.2,6.2,0,0,1-1.26-1.53,7.05,7.05,0,0,1-.69-2.73c0-.36-.11-1.76-.1-2v-.14l.07.2a16.83,16.83,0,0,0,1.49,3.87,8.43,8.43,0,0,0,1.43,1.92,4.76,4.76,0,0,0,1.47,1.08c.64.28,1.13.21,1.35-.19.07-.13.08-.18.08-.57a1.67,1.67,0,0,0-.1-.72,4.4,4.4,0,0,0-.7-1.27,8,8,0,0,0-1.2-1.12,3.5,3.5,0,0,0-1.52-.71.93.93,0,0,1-.32-.1,3.45,3.45,0,0,1-.74-.83c-.94-1.25-1.23-2.31-1.3-4.84a3.09,3.09,0,0,1,0-.7,6.67,6.67,0,0,1,.39,1.18,11.23,11.23,0,0,0,2.35,4.52,4,4,0,0,0,2.18,1.44.84.84,0,0,0,.42,0c.4-.1.55-.35.55-.87a2.61,2.61,0,0,0-.19-1,4.21,4.21,0,0,0-1.26-1.71,4.31,4.31,0,0,0-2.11-1.21,1,1,0,0,1-.67-.41,5.58,5.58,0,0,1-1.15-1.83,10.27,10.27,0,0,1-.53-3.41c0-.94-.06-1.2-.11-1.23a.14.14,0,0,0-.05.1,12.68,12.68,0,0,0-.06,3.06,8.71,8.71,0,0,1,0,2,7.46,7.46,0,0,0,0,2,9.06,9.06,0,0,1,0,2.09,7.39,7.39,0,0,0,0,2,8.57,8.57,0,0,1,0,2,7.87,7.87,0,0,0,0,2.06,8.6,8.6,0,0,1,0,2,7.79,7.79,0,0,0,0,2,8.23,8.23,0,0,1,0,2,8.2,8.2,0,0,0,0,1.91,12.39,12.39,0,0,1,0,1.29,25.77,25.77,0,0,0,.3,3.93,6.31,6.31,0,0,0,.36,1.79c.49,1.38,1.83,2.31,2.59,3.26"/><path class="cls-18" d="M332.81,201.85c-.05.09,0,.15.12.8a7.47,7.47,0,0,1,.27,1.75,11,11,0,0,1-.48,3.41c-.2.79-.21.76.06.76s.33-.09.51-.53a13,13,0,0,0,.56-3.12,8.82,8.82,0,0,0-.45-2.74,1.58,1.58,0,0,0-.11-.35.53.53,0,0,0-.24,0C332.88,201.8,332.84,201.81,332.81,201.85Z"/><path class="cls-18" d="M326.42,202.15c-.07,0-.11.19-.29,1a7.2,7.2,0,0,0-.32,2.22,6.92,6.92,0,0,0,.05,1,5.76,5.76,0,0,0,.28,1.18.47.47,0,0,0,.43.1c.19,0,.2-.06.11-.57a11.13,11.13,0,0,1-.2-2.75,5,5,0,0,1,.33-1.56,4.75,4.75,0,0,0,.16-.52.23.23,0,0,0-.06-.12A.53.53,0,0,0,326.42,202.15Z"/><path class="cls-18" d="M335.83,204.82c0,.07-.06.42-.1.77a7.6,7.6,0,0,1-1.31,3.82l-.57,1-.35.05a3,3,0,0,0-1,.26,5.32,5.32,0,0,0-2.38,2.07,2,2,0,0,0-.31,1.17c0,.77,0,.95.3,1.07a2.23,2.23,0,0,0,1.38-.15c.85-.38,1.83-1.52,2.9-3.35a11.21,11.21,0,0,0,1.4-4.26,8.94,8.94,0,0,0,.09-2.62S335.85,204.74,335.83,204.82Z"/><path class="cls-18" d="M335.89,208.79a3.07,3.07,0,0,0-.16.88,8.34,8.34,0,0,1-.44,2.14,6.21,6.21,0,0,1-1.7,2.65h0a4.18,4.18,0,0,0-2.27,1.19,4.72,4.72,0,0,0-1.45,2.07c-.16.53-.06,1.21.18,1.35.07.05.16.05.56.05a1.65,1.65,0,0,0,.72-.08,2.47,2.47,0,0,0,.9-.52,12.47,12.47,0,0,0,2.78-4.06,12.26,12.26,0,0,0,.92-3.77,14,14,0,0,0,0-1.87S335.9,208.78,335.89,208.79Z"/><path class="cls-18" d="M335.83,212.93a3.2,3.2,0,0,0-.07.55,7,7,0,0,1-.29,1.74,9.4,9.4,0,0,1-1.21,2.6c-.34.51-.44.59-.81.69a4.86,4.86,0,0,0-2,1,3.78,3.78,0,0,0-1.67,2.92.77.77,0,0,0,.07.44c.11.2.21.24.7.24a2.06,2.06,0,0,0,1.64-.56,11.76,11.76,0,0,0,3.64-7.4A8.84,8.84,0,0,0,336,213C335.94,212.86,335.88,212.85,335.83,212.93Z"/><path class="cls-18" d="M335.8,217.11a1.79,1.79,0,0,0,0,.34,9.9,9.9,0,0,1-.53,2.62,8.14,8.14,0,0,1-1.43,2.36,1.05,1.05,0,0,1-.39.15,4,4,0,0,0-1.26.51,5.43,5.43,0,0,0-2.29,2.6,1.93,1.93,0,0,0,.07,1.41l.08.09h.52a2.1,2.1,0,0,0,1.64-.52,11.27,11.27,0,0,0,2.22-3,8.4,8.4,0,0,0,1.09-2.57,14.17,14.17,0,0,0,.47-4C335.91,216.92,335.84,216.94,335.8,217.11Z"/><path class="cls-18" d="M335.87,220.91a3.66,3.66,0,0,0-.15,1,7.91,7.91,0,0,1-.72,2.72,10.5,10.5,0,0,1-1.12,1.85c-.1.11-.21.15-.54.21a5.4,5.4,0,0,0-3.17,2.35,3.24,3.24,0,0,0-.4,1.62c0,.34.08.47.28.57a2.07,2.07,0,0,0,1.43-.1c.88-.37,1.89-1.55,2.94-3.4a10.84,10.84,0,0,0,1.33-3.79,13.44,13.44,0,0,0,.21-2.2C336,221,336,220.73,335.87,220.91Z"/><path class="cls-18" d="M331.24,235.25c.88-.3,1.78-1.24,2.86-3a11.42,11.42,0,0,0,1.73-4.82,15.05,15.05,0,0,0,.11-2.48c0-.1-.11-.05-.14.1a5,5,0,0,0-.05.6,8.1,8.1,0,0,1-1.57,4.38c-.4.65-.31.58-.83.64a2.72,2.72,0,0,0-1.8.89,6.87,6.87,0,0,0-1.57,1.94,3,3,0,0,0-.2,1.29"/><path class="cls-18" d="M329.86,236.44c1.51-.93.34.42,3.4-3.26a14.08,14.08,0,0,0,1.34-2.36c0-.07,0-.1-.08-.06a7.74,7.74,0,0,0-.58.87,8.13,8.13,0,0,1-2.85,2.81c-.88.6-1,.65-1.31.52"/><line class="cls-17" x1="391.98" y1="251.77" x2="391.98" y2="202.95"/><path class="cls-18" d="M392.88,167.87a11,11,0,0,0-1.16,2.51,13.71,13.71,0,0,0-.72,3.78,6.22,6.22,0,0,0,.89,4,2,2,0,0,0,.78.62.86.86,0,0,0,.49.11.66.66,0,0,0,.4-.08,1.32,1.32,0,0,0,.61-.79,3,3,0,0,0,.06-.9c0-1.46-.17-1.82-1.35-3A7.5,7.5,0,0,1,392,173a3.49,3.49,0,0,1,0-1.83,8.8,8.8,0,0,1,.53-1.73,8.65,8.65,0,0,0,.54-1.53C393.08,167.75,393,167.72,392.88,167.87Z"/><path class="cls-18" d="M392,203.78a4,4,0,0,0-1.16-1.82,5.42,5.42,0,0,0-1.83-1.2,3.46,3.46,0,0,0-.4-.08,1.16,1.16,0,0,1-.75-.36c-1-.91-1.5-2.62-1.67-5.68l0-.32.18.62a12.54,12.54,0,0,0,1,2.53,8.33,8.33,0,0,0,3,3.57,1.9,1.9,0,0,0,.94.2c.47,0,.6-.05.7-.25s.07-.19.07-.59a2.42,2.42,0,0,0-.09-.75,4.38,4.38,0,0,0-1.07-1.7,4.95,4.95,0,0,0-2.5-1.37c-.13,0-.18-.05-.39-.24a5.12,5.12,0,0,1-.45-.49,8.91,8.91,0,0,1-1.08-2.13,21.94,21.94,0,0,1-.3-2.95c0-.57,0-.74.08-.5l.27.91a12.3,12.3,0,0,0,1.15,2.89,8.76,8.76,0,0,0,1.61,2.13,2.81,2.81,0,0,0,2.12,1c.51,0,.64-.16.66-.66a2.79,2.79,0,0,0-.44-1.63,5.16,5.16,0,0,0-1-1.22,4.26,4.26,0,0,0-1.92-1.07c-.58-.15-.64-.2-1.12-.89a6.47,6.47,0,0,1-1.34-4.05c0-.63-.07-1.62,0-1.59s.09.28.19.59c.88,2.69,1.39,3.73,2.41,4.91A4.29,4.29,0,0,0,390.6,193a1.66,1.66,0,0,0,.63.07,1.18,1.18,0,0,0,.54-.06c.22-.1.26-.21.26-.73a2.29,2.29,0,0,0-.28-1.2,4.61,4.61,0,0,0-1.2-1.54,4.28,4.28,0,0,0-1.91-1c-.58-.15-.65-.21-1.28-1.08a4.23,4.23,0,0,1-.84-1.65,14.19,14.19,0,0,1-.36-3.25l0-.58.07.21c0,.11.16.52.28.9a14.94,14.94,0,0,0,1.19,3,7.61,7.61,0,0,0,2.46,2.72,2.09,2.09,0,0,0,1.12.25c.59,0,.61,0,.71-.25a2.65,2.65,0,0,0-.29-1.93,5.19,5.19,0,0,0-3.11-2.38,1.66,1.66,0,0,1-.38-.13,6.39,6.39,0,0,1-1.26-1.53,7.1,7.1,0,0,1-.69-2.73c0-.36-.1-1.77-.1-2v-.15l.06.21a16.71,16.71,0,0,0,1.5,3.87,8.43,8.43,0,0,0,1.43,1.92,4.78,4.78,0,0,0,1.46,1.08c.64.28,1.13.21,1.35-.2.07-.13.08-.18.08-.56a1.94,1.94,0,0,0-.09-.73,4.6,4.6,0,0,0-.7-1.26,8.63,8.63,0,0,0-1.21-1.12,3.5,3.5,0,0,0-1.51-.72,1,1,0,0,1-.32-.09,3.88,3.88,0,0,1-.75-.83c-.94-1.26-1.22-2.32-1.3-4.85,0-.49,0-.71,0-.69a8.71,8.71,0,0,1,.38,1.17,11.27,11.27,0,0,0,2.35,4.53,4.15,4.15,0,0,0,2.18,1.44.83.83,0,0,0,.42,0c.4-.1.55-.35.55-.86a2.34,2.34,0,0,0-.19-1,5.48,5.48,0,0,0-3.37-2.91,1.08,1.08,0,0,1-.67-.42,5.38,5.38,0,0,1-1.15-1.83,10.49,10.49,0,0,1-.53-3.41c0-.93-.05-1.19-.1-1.22s0,0-.06.1a13.11,13.11,0,0,0-.06,3.05,8.8,8.8,0,0,1,0,2,8.3,8.3,0,0,0,0,2,9.06,9.06,0,0,1,0,2.09,8.3,8.3,0,0,0,0,2,8.57,8.57,0,0,1,0,2,8.93,8.93,0,0,0,0,2.07,8.6,8.6,0,0,1,0,2,7.72,7.72,0,0,0,0,2,8.23,8.23,0,0,1,0,2,8.88,8.88,0,0,0,0,1.92,10,10,0,0,1,.05,1.29,27.35,27.35,0,0,0,.3,3.93,6.15,6.15,0,0,0,.36,1.78c.49,1.39,1.84,2.31,2.6,3.26"/><path class="cls-18" d="M395.3,169.63c-.06.09-.05.14.11.79a7.55,7.55,0,0,1,.27,1.76,11,11,0,0,1-.47,3.41c-.21.78-.21.75.05.75s.33-.08.52-.52a13,13,0,0,0,.56-3.13,8.9,8.9,0,0,0-.46-2.73,1.82,1.82,0,0,0-.1-.35.48.48,0,0,0-.24,0C395.37,169.57,395.32,169.58,395.3,169.63Z"/><path class="cls-18" d="M388.9,169.92c-.06,0-.11.19-.28,1a7.37,7.37,0,0,0-.33,2.23,6.43,6.43,0,0,0,.06,1,4.6,4.6,0,0,0,.28,1.18.45.45,0,0,0,.42.1c.2,0,.2-.05.11-.56a12.19,12.19,0,0,1-.2-2.75,5.24,5.24,0,0,1,.33-1.56,4.62,4.62,0,0,0,.16-.53.2.2,0,0,0-.06-.11A.53.53,0,0,0,388.9,169.92Z"/><path class="cls-18" d="M398.32,172.59c0,.07-.07.42-.11.78a7.44,7.44,0,0,1-1.31,3.81l-.57,1-.35,0a3.34,3.34,0,0,0-1,.26,5.26,5.26,0,0,0-2.37,2.08,1.91,1.91,0,0,0-.31,1.17c0,.77,0,.94.29,1.06a2.16,2.16,0,0,0,1.38-.15c.85-.38,1.84-1.52,2.9-3.35a11.23,11.23,0,0,0,1.41-4.25,8.77,8.77,0,0,0,.08-2.62A.3.3,0,0,0,398.32,172.59Z"/><path class="cls-18" d="M398.37,176.57a2.69,2.69,0,0,0-.15.87,8.55,8.55,0,0,1-.45,2.14,6.17,6.17,0,0,1-1.69,2.65h0a4.25,4.25,0,0,0-2.27,1.18,4.72,4.72,0,0,0-1.45,2.07c-.15.53-.06,1.22.18,1.36.07,0,.17.05.56.05a1.82,1.82,0,0,0,.72-.08,2.32,2.32,0,0,0,.9-.52,12.52,12.52,0,0,0,2.78-4.07,11.91,11.91,0,0,0,.92-3.77,14,14,0,0,0,0-1.87S398.38,176.55,398.37,176.57Z"/><path class="cls-18" d="M398.31,180.7a2.8,2.8,0,0,0-.06.56A7.06,7.06,0,0,1,398,183a9.07,9.07,0,0,1-1.21,2.59c-.34.51-.43.59-.81.69a4.86,4.86,0,0,0-2,1,3.78,3.78,0,0,0-1.67,2.92.73.73,0,0,0,.08.45c.1.2.2.23.7.23a2.08,2.08,0,0,0,1.64-.56,11.63,11.63,0,0,0,3.63-7.39,8.93,8.93,0,0,0,.14-2.21C398.42,180.64,398.36,180.62,398.31,180.7Z"/><path class="cls-18" d="M398.28,184.88a3.27,3.27,0,0,0,0,.35,10,10,0,0,1-.53,2.62,8.28,8.28,0,0,1-1.43,2.36,1.29,1.29,0,0,1-.38.15,3.94,3.94,0,0,0-1.27.51,5.39,5.39,0,0,0-2.28,2.59,1.91,1.91,0,0,0,.06,1.42l.08.09H393a2,2,0,0,0,1.64-.52,11.14,11.14,0,0,0,2.22-3,8.45,8.45,0,0,0,1.09-2.58,13.78,13.78,0,0,0,.47-4C398.39,184.69,398.32,184.71,398.28,184.88Z"/><path class="cls-18" d="M398.35,188.69a4.85,4.85,0,0,0-.15,1,8.2,8.2,0,0,1-.71,2.72,11.58,11.58,0,0,1-1.12,1.85,1,1,0,0,1-.55.21,5.3,5.3,0,0,0-3.16,2.35,3.12,3.12,0,0,0-.41,1.61c0,.34.09.47.28.57a2,2,0,0,0,1.44-.1c.87-.37,1.88-1.54,2.93-3.4a10.81,10.81,0,0,0,1.34-3.78,16.36,16.36,0,0,0,.21-2.21C398.46,188.75,398.43,188.5,398.35,188.69Z"/><path class="cls-18" d="M393.72,203c.88-.3,1.79-1.23,2.87-3a11.4,11.4,0,0,0,1.72-4.83,14.26,14.26,0,0,0,.12-2.48c-.05-.1-.11,0-.15.11s0,.35,0,.59a8,8,0,0,1-1.58,4.38c-.4.65-.3.58-.83.64a2.79,2.79,0,0,0-1.8.89,6.75,6.75,0,0,0-1.57,1.95,2.93,2.93,0,0,0-.2,1.29"/><path class="cls-18" d="M392.34,204.22c1.52-.94.35.41,3.41-3.27a13.83,13.83,0,0,0,1.33-2.35c0-.08,0-.11-.08-.06a6.45,6.45,0,0,0-.57.86,8,8,0,0,1-2.86,2.81c-.88.6-1,.66-1.31.52"/><line class="cls-17" x1="376.98" y1="297.77" x2="376.98" y2="248.95"/><path class="cls-18" d="M377.88,213.87a11,11,0,0,0-1.16,2.51,13.71,13.71,0,0,0-.72,3.78,6.22,6.22,0,0,0,.89,4,2,2,0,0,0,.78.62.86.86,0,0,0,.49.11.66.66,0,0,0,.4-.08,1.32,1.32,0,0,0,.61-.79,3,3,0,0,0,.06-.9c0-1.46-.17-1.82-1.35-3A7.5,7.5,0,0,1,377,219a3.49,3.49,0,0,1,0-1.83,8.8,8.8,0,0,1,.53-1.73,8.65,8.65,0,0,0,.54-1.53C378.08,213.75,378,213.72,377.88,213.87Z"/><path class="cls-18" d="M377,249.78a4,4,0,0,0-1.16-1.82,5.42,5.42,0,0,0-1.83-1.2,3.46,3.46,0,0,0-.4-.08,1.16,1.16,0,0,1-.75-.36c-1-.91-1.5-2.62-1.67-5.68l0-.32.18.62a12.54,12.54,0,0,0,1,2.53,8.33,8.33,0,0,0,3,3.57,1.9,1.9,0,0,0,.94.2c.47,0,.6-.05.7-.25s.07-.19.07-.59a2.42,2.42,0,0,0-.09-.75,4.38,4.38,0,0,0-1.07-1.7,4.95,4.95,0,0,0-2.5-1.37c-.13,0-.18-.05-.39-.24a5.12,5.12,0,0,1-.45-.49,8.91,8.91,0,0,1-1.08-2.13,21.94,21.94,0,0,1-.3-2.95c0-.57,0-.74.08-.5l.27.91a12.3,12.3,0,0,0,1.15,2.89,8.76,8.76,0,0,0,1.61,2.13,2.81,2.81,0,0,0,2.12,1c.51,0,.64-.16.66-.66a2.79,2.79,0,0,0-.44-1.63,5.16,5.16,0,0,0-1-1.22,4.26,4.26,0,0,0-1.92-1.07c-.58-.15-.64-.2-1.12-.89a6.47,6.47,0,0,1-1.34-4.05c0-.63-.07-1.62,0-1.59s.09.28.19.59c.88,2.69,1.39,3.73,2.41,4.91A4.29,4.29,0,0,0,375.6,239a1.66,1.66,0,0,0,.63.07,1.18,1.18,0,0,0,.54-.06c.22-.1.26-.21.26-.73a2.29,2.29,0,0,0-.28-1.2,4.61,4.61,0,0,0-1.2-1.54,4.28,4.28,0,0,0-1.91-1c-.58-.15-.65-.21-1.28-1.08a4.23,4.23,0,0,1-.84-1.65,14.19,14.19,0,0,1-.36-3.25l0-.58.07.21c0,.11.16.52.28.9a14.94,14.94,0,0,0,1.19,3,7.61,7.61,0,0,0,2.46,2.72,2.09,2.09,0,0,0,1.12.25c.59,0,.61,0,.71-.25a2.65,2.65,0,0,0-.29-1.93,5.19,5.19,0,0,0-3.11-2.38,1.66,1.66,0,0,1-.38-.13,6.39,6.39,0,0,1-1.26-1.53,7.1,7.1,0,0,1-.69-2.73c0-.36-.1-1.77-.1-2v-.15l.06.21a16.71,16.71,0,0,0,1.5,3.87,8.43,8.43,0,0,0,1.43,1.92,4.78,4.78,0,0,0,1.46,1.08c.64.28,1.13.21,1.35-.2.07-.13.08-.18.08-.56a1.94,1.94,0,0,0-.09-.73,4.6,4.6,0,0,0-.7-1.26,8.63,8.63,0,0,0-1.21-1.12,3.5,3.5,0,0,0-1.51-.72,1,1,0,0,1-.32-.09,3.88,3.88,0,0,1-.75-.83c-.94-1.26-1.22-2.32-1.3-4.85,0-.49,0-.71,0-.69a8.71,8.71,0,0,1,.38,1.17,11.27,11.27,0,0,0,2.35,4.53,4.15,4.15,0,0,0,2.18,1.44.83.83,0,0,0,.42,0c.4-.1.55-.35.55-.86a2.34,2.34,0,0,0-.19-1,5.48,5.48,0,0,0-3.37-2.91,1.08,1.08,0,0,1-.67-.42,5.38,5.38,0,0,1-1.15-1.83,10.49,10.49,0,0,1-.53-3.41c0-.93-.05-1.19-.1-1.22s0,0-.06.1a13.11,13.11,0,0,0-.06,3.05,8.8,8.8,0,0,1,0,2,8.3,8.3,0,0,0,0,2,9.06,9.06,0,0,1,0,2.09,8.3,8.3,0,0,0,0,2,8.57,8.57,0,0,1,0,2,8.93,8.93,0,0,0,0,2.07,8.6,8.6,0,0,1,0,2,7.72,7.72,0,0,0,0,2,8.23,8.23,0,0,1,0,2,8.88,8.88,0,0,0,0,1.92,10,10,0,0,1,.05,1.29,27.35,27.35,0,0,0,.3,3.93,6.15,6.15,0,0,0,.36,1.78c.49,1.39,1.84,2.31,2.6,3.26"/><path class="cls-18" d="M380.3,215.63c-.06.09-.05.14.11.79a7.55,7.55,0,0,1,.27,1.76,11,11,0,0,1-.47,3.41c-.21.78-.21.75.05.75s.33-.08.52-.52a13,13,0,0,0,.56-3.13,8.9,8.9,0,0,0-.46-2.73,1.82,1.82,0,0,0-.1-.35.48.48,0,0,0-.24,0C380.37,215.57,380.32,215.58,380.3,215.63Z"/><path class="cls-18" d="M373.9,215.92c-.06,0-.11.19-.28,1a7.37,7.37,0,0,0-.33,2.23,6.43,6.43,0,0,0,.06,1,4.6,4.6,0,0,0,.28,1.18.45.45,0,0,0,.42.1c.2,0,.2-.05.11-.56a12.19,12.19,0,0,1-.2-2.75,5.24,5.24,0,0,1,.33-1.56,4.62,4.62,0,0,0,.16-.53.2.2,0,0,0-.06-.11A.53.53,0,0,0,373.9,215.92Z"/><path class="cls-18" d="M383.32,218.59c0,.07-.07.42-.11.78a7.44,7.44,0,0,1-1.31,3.81l-.57,1-.35,0a3.34,3.34,0,0,0-1,.26,5.26,5.26,0,0,0-2.37,2.08,1.91,1.91,0,0,0-.31,1.17c0,.77,0,.94.29,1.06a2.16,2.16,0,0,0,1.38-.15c.85-.38,1.84-1.52,2.9-3.35a11.23,11.23,0,0,0,1.41-4.25,8.77,8.77,0,0,0,.08-2.62A.3.3,0,0,0,383.32,218.59Z"/><path class="cls-18" d="M383.37,222.57a2.69,2.69,0,0,0-.15.87,8.55,8.55,0,0,1-.45,2.14,6.17,6.17,0,0,1-1.69,2.65h0a4.25,4.25,0,0,0-2.27,1.18,4.72,4.72,0,0,0-1.45,2.07c-.15.53-.06,1.22.18,1.36.07,0,.17.05.56.05a1.82,1.82,0,0,0,.72-.08,2.32,2.32,0,0,0,.9-.52,12.52,12.52,0,0,0,2.78-4.07,11.91,11.91,0,0,0,.92-3.77,14,14,0,0,0,0-1.87S383.38,222.55,383.37,222.57Z"/><path class="cls-18" d="M383.31,226.7a2.8,2.8,0,0,0-.06.56A7.06,7.06,0,0,1,383,229a9.07,9.07,0,0,1-1.21,2.59c-.34.51-.43.59-.81.69a4.86,4.86,0,0,0-2,1,3.78,3.78,0,0,0-1.67,2.92.73.73,0,0,0,.08.45c.1.2.2.23.7.23a2.08,2.08,0,0,0,1.64-.56,11.63,11.63,0,0,0,3.63-7.39,8.93,8.93,0,0,0,.14-2.21C383.42,226.64,383.36,226.62,383.31,226.7Z"/><path class="cls-18" d="M383.28,230.88a3.27,3.27,0,0,0,0,.35,10,10,0,0,1-.53,2.62,8.28,8.28,0,0,1-1.43,2.36,1.29,1.29,0,0,1-.38.15,3.94,3.94,0,0,0-1.27.51,5.39,5.39,0,0,0-2.28,2.59,1.91,1.91,0,0,0,.06,1.42l.08.09H378a2,2,0,0,0,1.64-.52,11.14,11.14,0,0,0,2.22-3,8.45,8.45,0,0,0,1.09-2.58,13.78,13.78,0,0,0,.47-4C383.39,230.69,383.32,230.71,383.28,230.88Z"/><path class="cls-18" d="M383.35,234.69a4.85,4.85,0,0,0-.15,1,8.2,8.2,0,0,1-.71,2.72,11.58,11.58,0,0,1-1.12,1.85,1,1,0,0,1-.55.21,5.3,5.3,0,0,0-3.16,2.35,3.12,3.12,0,0,0-.41,1.61c0,.34.09.47.28.57a2,2,0,0,0,1.44-.1c.87-.37,1.88-1.54,2.93-3.4a10.81,10.81,0,0,0,1.34-3.78,16.36,16.36,0,0,0,.21-2.21C383.46,234.75,383.43,234.5,383.35,234.69Z"/><path class="cls-18" d="M378.72,249c.88-.3,1.79-1.23,2.87-3a11.4,11.4,0,0,0,1.72-4.83,14.26,14.26,0,0,0,.12-2.48c-.05-.1-.11,0-.15.11s0,.35,0,.59a8,8,0,0,1-1.58,4.38c-.4.65-.3.58-.83.64a2.79,2.79,0,0,0-1.8.89,6.75,6.75,0,0,0-1.57,1.95,2.93,2.93,0,0,0-.2,1.29"/><path class="cls-18" d="M377.34,250.22c1.52-.94.35.41,3.41-3.27a13.83,13.83,0,0,0,1.33-2.35c0-.08,0-.11-.08-.06a6.45,6.45,0,0,0-.57.86,8,8,0,0,1-2.86,2.81c-.88.6-1,.66-1.31.52"/><line class="cls-17" x1="409.98" y1="282.77" x2="409.98" y2="233.95"/><path class="cls-18" d="M410.88,198.87a11,11,0,0,0-1.16,2.51,13.71,13.71,0,0,0-.72,3.78,6.22,6.22,0,0,0,.89,4,2,2,0,0,0,.78.62.86.86,0,0,0,.49.11.66.66,0,0,0,.4-.08,1.32,1.32,0,0,0,.61-.79,3,3,0,0,0,.06-.9c0-1.46-.17-1.82-1.35-3A7.5,7.5,0,0,1,410,204a3.49,3.49,0,0,1,0-1.83,8.8,8.8,0,0,1,.53-1.73,8.65,8.65,0,0,0,.54-1.53C411.08,198.75,411,198.72,410.88,198.87Z"/><path class="cls-18" d="M410,234.78a4,4,0,0,0-1.16-1.82,5.42,5.42,0,0,0-1.83-1.2,3.46,3.46,0,0,0-.4-.08,1.16,1.16,0,0,1-.75-.36c-1-.91-1.5-2.62-1.67-5.68l0-.32.18.62a12.54,12.54,0,0,0,1,2.53,8.33,8.33,0,0,0,3,3.57,1.9,1.9,0,0,0,.94.2c.47,0,.6-.05.7-.25s.07-.19.07-.59a2.42,2.42,0,0,0-.09-.75,4.38,4.38,0,0,0-1.07-1.7,4.95,4.95,0,0,0-2.5-1.37c-.13,0-.18-.05-.39-.24a5.12,5.12,0,0,1-.45-.49,8.91,8.91,0,0,1-1.08-2.13,21.94,21.94,0,0,1-.3-2.95c0-.57,0-.74.08-.5l.27.91a12.3,12.3,0,0,0,1.15,2.89,8.76,8.76,0,0,0,1.61,2.13,2.81,2.81,0,0,0,2.12,1c.51,0,.64-.16.66-.66a2.79,2.79,0,0,0-.44-1.63,5.16,5.16,0,0,0-1-1.22,4.26,4.26,0,0,0-1.92-1.07c-.58-.15-.64-.2-1.12-.89a6.47,6.47,0,0,1-1.34-4.05c0-.63-.07-1.62,0-1.59s.09.28.19.59c.88,2.69,1.39,3.73,2.41,4.91A4.29,4.29,0,0,0,408.6,224a1.66,1.66,0,0,0,.63.07,1.18,1.18,0,0,0,.54-.06c.22-.1.26-.21.26-.73a2.29,2.29,0,0,0-.28-1.2,4.61,4.61,0,0,0-1.2-1.54,4.28,4.28,0,0,0-1.91-1c-.58-.15-.65-.21-1.28-1.08a4.23,4.23,0,0,1-.84-1.65,14.19,14.19,0,0,1-.36-3.25l0-.58.07.21c0,.11.16.52.28.9a14.94,14.94,0,0,0,1.19,3,7.61,7.61,0,0,0,2.46,2.72,2.09,2.09,0,0,0,1.12.25c.59,0,.61,0,.71-.25a2.65,2.65,0,0,0-.29-1.93,5.19,5.19,0,0,0-3.11-2.38,1.66,1.66,0,0,1-.38-.13,6.39,6.39,0,0,1-1.26-1.53,7.1,7.1,0,0,1-.69-2.73c0-.36-.1-1.77-.1-2v-.15l.06.21a16.71,16.71,0,0,0,1.5,3.87,8.43,8.43,0,0,0,1.43,1.92,4.78,4.78,0,0,0,1.46,1.08c.64.28,1.13.21,1.35-.2.07-.13.08-.18.08-.56a1.94,1.94,0,0,0-.09-.73,4.6,4.6,0,0,0-.7-1.26,8.63,8.63,0,0,0-1.21-1.12,3.5,3.5,0,0,0-1.51-.72,1,1,0,0,1-.32-.09,3.88,3.88,0,0,1-.75-.83c-.94-1.26-1.22-2.32-1.3-4.85,0-.49,0-.71,0-.69a8.71,8.71,0,0,1,.38,1.17,11.27,11.27,0,0,0,2.35,4.53,4.15,4.15,0,0,0,2.18,1.44.83.83,0,0,0,.42,0c.4-.1.55-.35.55-.86a2.34,2.34,0,0,0-.19-1,5.48,5.48,0,0,0-3.37-2.91,1.08,1.08,0,0,1-.67-.42,5.38,5.38,0,0,1-1.15-1.83,10.49,10.49,0,0,1-.53-3.41c0-.93-.05-1.19-.1-1.22s0,0-.06.1a13.11,13.11,0,0,0-.06,3.05,8.8,8.8,0,0,1,0,2,8.3,8.3,0,0,0,0,2,9.06,9.06,0,0,1,0,2.09,8.3,8.3,0,0,0,0,2,8.57,8.57,0,0,1,0,2,8.93,8.93,0,0,0,0,2.07,8.6,8.6,0,0,1,0,2,7.72,7.72,0,0,0,0,2,8.23,8.23,0,0,1,0,2,8.88,8.88,0,0,0,0,1.92,10,10,0,0,1,.05,1.29,27.35,27.35,0,0,0,.3,3.93,6.15,6.15,0,0,0,.36,1.78c.49,1.39,1.84,2.31,2.6,3.26"/><path class="cls-18" d="M413.3,200.63c-.06.09-.05.14.11.79a7.55,7.55,0,0,1,.27,1.76,11,11,0,0,1-.47,3.41c-.21.78-.21.75.05.75s.33-.08.52-.52a13,13,0,0,0,.56-3.13,8.9,8.9,0,0,0-.46-2.73,1.82,1.82,0,0,0-.1-.35.48.48,0,0,0-.24,0C413.37,200.57,413.32,200.58,413.3,200.63Z"/><path class="cls-18" d="M406.9,200.92c-.06,0-.11.19-.28,1a7.37,7.37,0,0,0-.33,2.23,6.43,6.43,0,0,0,.06,1,4.6,4.6,0,0,0,.28,1.18.45.45,0,0,0,.42.1c.2,0,.2-.05.11-.56a12.19,12.19,0,0,1-.2-2.75,5.24,5.24,0,0,1,.33-1.56,4.62,4.62,0,0,0,.16-.53.2.2,0,0,0-.06-.11A.53.53,0,0,0,406.9,200.92Z"/><path class="cls-18" d="M416.32,203.59c0,.07-.07.42-.11.78a7.44,7.44,0,0,1-1.31,3.81l-.57,1-.35,0a3.34,3.34,0,0,0-1,.26,5.26,5.26,0,0,0-2.37,2.08,1.91,1.91,0,0,0-.31,1.17c0,.77,0,.94.29,1.06a2.16,2.16,0,0,0,1.38-.15c.85-.38,1.84-1.52,2.9-3.35a11.23,11.23,0,0,0,1.41-4.25,8.77,8.77,0,0,0,.08-2.62A.3.3,0,0,0,416.32,203.59Z"/><path class="cls-18" d="M416.37,207.57a2.69,2.69,0,0,0-.15.87,8.55,8.55,0,0,1-.45,2.14,6.17,6.17,0,0,1-1.69,2.65h0a4.25,4.25,0,0,0-2.27,1.18,4.72,4.72,0,0,0-1.45,2.07c-.15.53-.06,1.22.18,1.36.07,0,.17.05.56.05a1.82,1.82,0,0,0,.72-.08,2.32,2.32,0,0,0,.9-.52,12.52,12.52,0,0,0,2.78-4.07,11.91,11.91,0,0,0,.92-3.77,14,14,0,0,0,0-1.87S416.38,207.55,416.37,207.57Z"/><path class="cls-18" d="M416.31,211.7a2.8,2.8,0,0,0-.06.56A7.06,7.06,0,0,1,416,214a9.07,9.07,0,0,1-1.21,2.59c-.34.51-.43.59-.81.69a4.86,4.86,0,0,0-2,1,3.78,3.78,0,0,0-1.67,2.92.73.73,0,0,0,.08.45c.1.2.2.23.7.23a2.08,2.08,0,0,0,1.64-.56,11.63,11.63,0,0,0,3.63-7.39,8.93,8.93,0,0,0,.14-2.21C416.42,211.64,416.36,211.62,416.31,211.7Z"/><path class="cls-18" d="M416.28,215.88a3.27,3.27,0,0,0,0,.35,10,10,0,0,1-.53,2.62,8.28,8.28,0,0,1-1.43,2.36,1.29,1.29,0,0,1-.38.15,3.94,3.94,0,0,0-1.27.51,5.39,5.39,0,0,0-2.28,2.59,1.91,1.91,0,0,0,.06,1.42l.08.09H411a2,2,0,0,0,1.64-.52,11.14,11.14,0,0,0,2.22-3,8.45,8.45,0,0,0,1.09-2.58,13.78,13.78,0,0,0,.47-4C416.39,215.69,416.32,215.71,416.28,215.88Z"/><path class="cls-18" d="M416.35,219.69a4.85,4.85,0,0,0-.15,1,8.2,8.2,0,0,1-.71,2.72,11.58,11.58,0,0,1-1.12,1.85,1,1,0,0,1-.55.21,5.3,5.3,0,0,0-3.16,2.35,3.12,3.12,0,0,0-.41,1.61c0,.34.09.47.28.57a2,2,0,0,0,1.44-.1c.87-.37,1.88-1.54,2.93-3.4a10.81,10.81,0,0,0,1.34-3.78,16.36,16.36,0,0,0,.21-2.21C416.46,219.75,416.43,219.5,416.35,219.69Z"/><path class="cls-18" d="M411.72,234c.88-.3,1.79-1.23,2.87-3a11.4,11.4,0,0,0,1.72-4.83,14.26,14.26,0,0,0,.12-2.48c-.05-.1-.11,0-.15.11s0,.35,0,.59a8,8,0,0,1-1.58,4.38c-.4.65-.3.58-.83.64a2.79,2.79,0,0,0-1.8.89,6.75,6.75,0,0,0-1.57,1.95,2.93,2.93,0,0,0-.2,1.29"/><path class="cls-18" d="M410.34,235.22c1.52-.94.35.41,3.41-3.27a13.83,13.83,0,0,0,1.33-2.35c0-.08,0-.11-.08-.06a6.45,6.45,0,0,0-.57.86,8,8,0,0,1-2.86,2.81c-.88.6-1,.66-1.31.52"/><line class="cls-17" x1="394.98" y1="320.77" x2="394.98" y2="271.95"/><path class="cls-18" d="M395.88,236.87a11,11,0,0,0-1.16,2.51,13.71,13.71,0,0,0-.72,3.78,6.22,6.22,0,0,0,.89,4,2,2,0,0,0,.78.62.86.86,0,0,0,.49.11.66.66,0,0,0,.4-.08,1.32,1.32,0,0,0,.61-.79,3,3,0,0,0,.06-.9c0-1.46-.17-1.82-1.35-3A7.5,7.5,0,0,1,395,242a3.49,3.49,0,0,1,0-1.83,8.8,8.8,0,0,1,.53-1.73,8.65,8.65,0,0,0,.54-1.53C396.08,236.75,396,236.72,395.88,236.87Z"/><path class="cls-18" d="M395,272.78a4,4,0,0,0-1.16-1.82,5.42,5.42,0,0,0-1.83-1.2l-.4-.08a1.16,1.16,0,0,1-.75-.36c-1-.91-1.5-2.62-1.67-5.68l0-.32.18.62a12.54,12.54,0,0,0,1,2.53,8.33,8.33,0,0,0,3,3.57,1.9,1.9,0,0,0,.94.2c.47,0,.6-.05.7-.25s.07-.19.07-.59a2.42,2.42,0,0,0-.09-.75,4.38,4.38,0,0,0-1.07-1.7,4.95,4.95,0,0,0-2.5-1.37c-.13,0-.18-.05-.39-.24a5.12,5.12,0,0,1-.45-.49,8.91,8.91,0,0,1-1.08-2.13,21.94,21.94,0,0,1-.3-3c0-.57,0-.74.08-.5l.27.91a12.3,12.3,0,0,0,1.15,2.89,8.76,8.76,0,0,0,1.61,2.13,2.81,2.81,0,0,0,2.12,1c.51,0,.64-.16.66-.66a2.79,2.79,0,0,0-.44-1.63,5.16,5.16,0,0,0-1-1.22,4.26,4.26,0,0,0-1.92-1.07c-.58-.15-.64-.2-1.12-.89a6.47,6.47,0,0,1-1.34-4c0-.63-.07-1.62,0-1.59s.09.28.19.59c.88,2.69,1.39,3.73,2.41,4.91A4.29,4.29,0,0,0,393.6,262a1.66,1.66,0,0,0,.63.07,1.18,1.18,0,0,0,.54-.06c.22-.1.26-.21.26-.73a2.29,2.29,0,0,0-.28-1.2,4.61,4.61,0,0,0-1.2-1.54,4.28,4.28,0,0,0-1.91-1c-.58-.15-.65-.21-1.28-1.08a4.23,4.23,0,0,1-.84-1.65,14.19,14.19,0,0,1-.36-3.25l0-.58.07.21c0,.11.16.52.28.9a14.94,14.94,0,0,0,1.19,3,7.61,7.61,0,0,0,2.46,2.72,2.09,2.09,0,0,0,1.12.25c.59,0,.61,0,.71-.25a2.65,2.65,0,0,0-.29-1.93,5.19,5.19,0,0,0-3.11-2.38,1.66,1.66,0,0,1-.38-.13,6.39,6.39,0,0,1-1.26-1.53,7.1,7.1,0,0,1-.69-2.73c0-.36-.1-1.77-.1-2v-.15l.06.21a16.71,16.71,0,0,0,1.5,3.87,8.43,8.43,0,0,0,1.43,1.92,4.78,4.78,0,0,0,1.46,1.08c.64.28,1.13.21,1.35-.2.07-.13.08-.18.08-.56a1.94,1.94,0,0,0-.09-.73,4.6,4.6,0,0,0-.7-1.26,8.63,8.63,0,0,0-1.21-1.12,3.5,3.5,0,0,0-1.51-.72,1,1,0,0,1-.32-.09,3.88,3.88,0,0,1-.75-.83c-.94-1.26-1.22-2.32-1.3-4.85,0-.49,0-.71,0-.69a8.71,8.71,0,0,1,.38,1.17,11.27,11.27,0,0,0,2.35,4.53,4.15,4.15,0,0,0,2.18,1.44.83.83,0,0,0,.42,0c.4-.1.55-.35.55-.86a2.34,2.34,0,0,0-.19-1,5.48,5.48,0,0,0-3.37-2.91,1.08,1.08,0,0,1-.67-.42,5.38,5.38,0,0,1-1.15-1.83,10.49,10.49,0,0,1-.53-3.41c0-.93-.05-1.19-.1-1.22s0,0-.06.1a13.11,13.11,0,0,0-.06,3.05,8.8,8.8,0,0,1,0,2,8.3,8.3,0,0,0,0,2,9.06,9.06,0,0,1,0,2.09,8.3,8.3,0,0,0,0,2,8.57,8.57,0,0,1,0,2,8.93,8.93,0,0,0,0,2.07,8.6,8.6,0,0,1,0,2,7.72,7.72,0,0,0,0,2,8.23,8.23,0,0,1,0,2,8.88,8.88,0,0,0,0,1.92,10,10,0,0,1,.05,1.29,27.35,27.35,0,0,0,.3,3.93,6.15,6.15,0,0,0,.36,1.78c.49,1.39,1.84,2.31,2.6,3.26"/><path class="cls-18" d="M398.3,238.63c-.06.09-.05.14.11.79a7.55,7.55,0,0,1,.27,1.76,11,11,0,0,1-.47,3.41c-.21.78-.21.75.05.75s.33-.08.52-.52a13,13,0,0,0,.56-3.13,8.9,8.9,0,0,0-.46-2.73,1.82,1.82,0,0,0-.1-.35.48.48,0,0,0-.24,0C398.37,238.57,398.32,238.58,398.3,238.63Z"/><path class="cls-18" d="M391.9,238.92c-.06,0-.11.19-.28,1a7.37,7.37,0,0,0-.33,2.23,6.43,6.43,0,0,0,.06,1,4.6,4.6,0,0,0,.28,1.18.45.45,0,0,0,.42.1c.2,0,.2-.05.11-.56a12.19,12.19,0,0,1-.2-2.75,5.24,5.24,0,0,1,.33-1.56,4.62,4.62,0,0,0,.16-.53.2.2,0,0,0-.06-.11A.53.53,0,0,0,391.9,238.92Z"/><path class="cls-18" d="M401.32,241.59c0,.07-.07.42-.11.78a7.44,7.44,0,0,1-1.31,3.81l-.57,1-.35,0a3.34,3.34,0,0,0-1,.26,5.26,5.26,0,0,0-2.37,2.08,1.91,1.91,0,0,0-.31,1.17c0,.77,0,.94.29,1.06a2.16,2.16,0,0,0,1.38-.15c.85-.38,1.84-1.52,2.9-3.35a11.23,11.23,0,0,0,1.41-4.25,8.77,8.77,0,0,0,.08-2.62A.3.3,0,0,0,401.32,241.59Z"/><path class="cls-18" d="M401.37,245.57a2.69,2.69,0,0,0-.15.87,8.55,8.55,0,0,1-.45,2.14,6.17,6.17,0,0,1-1.69,2.65h0a4.25,4.25,0,0,0-2.27,1.18,4.72,4.72,0,0,0-1.45,2.07c-.15.53-.06,1.22.18,1.36.07,0,.17.05.56.05a1.82,1.82,0,0,0,.72-.08,2.32,2.32,0,0,0,.9-.52,12.52,12.52,0,0,0,2.78-4.07,11.91,11.91,0,0,0,.92-3.77,14,14,0,0,0,0-1.87S401.38,245.55,401.37,245.57Z"/><path class="cls-18" d="M401.31,249.7a2.8,2.8,0,0,0-.06.56A7.06,7.06,0,0,1,401,252a9.07,9.07,0,0,1-1.21,2.59c-.34.51-.43.59-.81.69a4.86,4.86,0,0,0-2,1,3.78,3.78,0,0,0-1.67,2.92.73.73,0,0,0,.08.45c.1.2.2.23.7.23a2.08,2.08,0,0,0,1.64-.56,11.63,11.63,0,0,0,3.63-7.39,8.93,8.93,0,0,0,.14-2.21C401.42,249.64,401.36,249.62,401.31,249.7Z"/><path class="cls-18" d="M401.28,253.88a3.27,3.27,0,0,0,0,.35,10,10,0,0,1-.53,2.62,8.28,8.28,0,0,1-1.43,2.36,1.29,1.29,0,0,1-.38.15,3.94,3.94,0,0,0-1.27.51,5.39,5.39,0,0,0-2.28,2.59,1.91,1.91,0,0,0,.06,1.42l.08.09H396a2,2,0,0,0,1.64-.52,11.14,11.14,0,0,0,2.22-3,8.45,8.45,0,0,0,1.09-2.58,13.78,13.78,0,0,0,.47-4C401.39,253.69,401.32,253.71,401.28,253.88Z"/><path class="cls-18" d="M401.35,257.69a4.85,4.85,0,0,0-.15,1,8.2,8.2,0,0,1-.71,2.72,11.58,11.58,0,0,1-1.12,1.85,1,1,0,0,1-.55.21,5.3,5.3,0,0,0-3.16,2.35,3.12,3.12,0,0,0-.41,1.61c0,.34.09.47.28.57a2,2,0,0,0,1.44-.1c.87-.37,1.88-1.54,2.93-3.4a10.81,10.81,0,0,0,1.34-3.78,16.36,16.36,0,0,0,.21-2.21C401.46,257.75,401.43,257.5,401.35,257.69Z"/><path class="cls-18" d="M396.72,272c.88-.3,1.79-1.23,2.87-2.95a11.4,11.4,0,0,0,1.72-4.83,14.26,14.26,0,0,0,.12-2.48c-.05-.1-.11-.05-.15.11s0,.35,0,.59a8,8,0,0,1-1.58,4.38c-.4.65-.3.58-.83.64a2.79,2.79,0,0,0-1.8.89,6.75,6.75,0,0,0-1.57,1.95,2.93,2.93,0,0,0-.2,1.29"/><path class="cls-18" d="M395.34,273.22c1.52-.94.35.41,3.41-3.27a13.83,13.83,0,0,0,1.33-2.35c0-.08,0-.11-.08-.06a6.45,6.45,0,0,0-.57.86,8,8,0,0,1-2.86,2.81c-.88.6-1,.66-1.31.52"/><line class="cls-17" x1="434.98" y1="303.77" x2="434.98" y2="254.95"/><path class="cls-18" d="M435.88,219.87a11,11,0,0,0-1.16,2.51,13.71,13.71,0,0,0-.72,3.78,6.22,6.22,0,0,0,.89,4,2,2,0,0,0,.78.62.86.86,0,0,0,.49.11.66.66,0,0,0,.4-.08,1.32,1.32,0,0,0,.61-.79,3,3,0,0,0,.06-.9c0-1.46-.17-1.82-1.35-3A7.5,7.5,0,0,1,435,225a3.49,3.49,0,0,1,0-1.83,8.8,8.8,0,0,1,.53-1.73,8.65,8.65,0,0,0,.54-1.53C436.08,219.75,436,219.72,435.88,219.87Z"/><path class="cls-18" d="M435,255.78a4,4,0,0,0-1.16-1.82,5.42,5.42,0,0,0-1.83-1.2,3.46,3.46,0,0,0-.4-.08,1.16,1.16,0,0,1-.75-.36c-1-.91-1.5-2.62-1.67-5.68l0-.32.18.62a12.54,12.54,0,0,0,1,2.53,8.33,8.33,0,0,0,3,3.57,1.9,1.9,0,0,0,.94.2c.47,0,.6-.05.7-.25s.07-.19.07-.59a2.42,2.42,0,0,0-.09-.75,4.38,4.38,0,0,0-1.07-1.7,4.95,4.95,0,0,0-2.5-1.37c-.13,0-.18-.05-.39-.24a5.12,5.12,0,0,1-.45-.49,8.91,8.91,0,0,1-1.08-2.13,21.94,21.94,0,0,1-.3-2.95c0-.57,0-.74.08-.5l.27.91a12.3,12.3,0,0,0,1.15,2.89,8.76,8.76,0,0,0,1.61,2.13,2.81,2.81,0,0,0,2.12,1c.51,0,.64-.16.66-.66a2.79,2.79,0,0,0-.44-1.63,5.16,5.16,0,0,0-1-1.22,4.26,4.26,0,0,0-1.92-1.07c-.58-.15-.64-.2-1.12-.89a6.47,6.47,0,0,1-1.34-4.05c0-.63-.07-1.62,0-1.59s.09.28.19.59c.88,2.69,1.39,3.73,2.41,4.91A4.29,4.29,0,0,0,433.6,245a1.66,1.66,0,0,0,.63.07,1.18,1.18,0,0,0,.54-.06c.22-.1.26-.21.26-.73a2.29,2.29,0,0,0-.28-1.2,4.61,4.61,0,0,0-1.2-1.54,4.28,4.28,0,0,0-1.91-1c-.58-.15-.65-.21-1.28-1.08a4.23,4.23,0,0,1-.84-1.65,14.19,14.19,0,0,1-.36-3.25l0-.58.07.21c0,.11.16.52.28.9a14.94,14.94,0,0,0,1.19,3,7.61,7.61,0,0,0,2.46,2.72,2.09,2.09,0,0,0,1.12.25c.59,0,.61,0,.71-.25a2.65,2.65,0,0,0-.29-1.93,5.19,5.19,0,0,0-3.11-2.38,1.66,1.66,0,0,1-.38-.13,6.39,6.39,0,0,1-1.26-1.53,7.1,7.1,0,0,1-.69-2.73c0-.36-.1-1.77-.1-2v-.15l.06.21a16.71,16.71,0,0,0,1.5,3.87,8.43,8.43,0,0,0,1.43,1.92,4.78,4.78,0,0,0,1.46,1.08c.64.28,1.13.21,1.35-.2.07-.13.08-.18.08-.56a1.94,1.94,0,0,0-.09-.73,4.6,4.6,0,0,0-.7-1.26,8.63,8.63,0,0,0-1.21-1.12,3.5,3.5,0,0,0-1.51-.72,1,1,0,0,1-.32-.09,3.88,3.88,0,0,1-.75-.83c-.94-1.26-1.22-2.32-1.3-4.85,0-.49,0-.71,0-.69a8.71,8.71,0,0,1,.38,1.17,11.27,11.27,0,0,0,2.35,4.53,4.15,4.15,0,0,0,2.18,1.44.83.83,0,0,0,.42,0c.4-.1.55-.35.55-.86a2.34,2.34,0,0,0-.19-1,5.48,5.48,0,0,0-3.37-2.91,1.08,1.08,0,0,1-.67-.42,5.38,5.38,0,0,1-1.15-1.83,10.49,10.49,0,0,1-.53-3.41c0-.93-.05-1.19-.1-1.22s0,0-.06.1a13.11,13.11,0,0,0-.06,3.05,8.8,8.8,0,0,1,0,2,8.3,8.3,0,0,0,0,2,9.06,9.06,0,0,1,0,2.09,8.3,8.3,0,0,0,0,2,8.57,8.57,0,0,1,0,2,8.93,8.93,0,0,0,0,2.07,8.6,8.6,0,0,1,0,2,7.72,7.72,0,0,0,0,2,8.23,8.23,0,0,1,0,2,8.88,8.88,0,0,0,0,1.92,10,10,0,0,1,.05,1.29,27.35,27.35,0,0,0,.3,3.93,6.15,6.15,0,0,0,.36,1.78c.49,1.39,1.84,2.31,2.6,3.26"/><path class="cls-18" d="M438.3,221.63c-.06.09-.05.14.11.79a7.55,7.55,0,0,1,.27,1.76,11,11,0,0,1-.47,3.41c-.21.78-.21.75.05.75s.33-.08.52-.52a13,13,0,0,0,.56-3.13,8.9,8.9,0,0,0-.46-2.73,1.82,1.82,0,0,0-.1-.35.48.48,0,0,0-.24,0C438.37,221.57,438.32,221.58,438.3,221.63Z"/><path class="cls-18" d="M431.9,221.92c-.06,0-.11.19-.28,1a7.37,7.37,0,0,0-.33,2.23,6.43,6.43,0,0,0,.06,1,4.6,4.6,0,0,0,.28,1.18.45.45,0,0,0,.42.1c.2,0,.2-.05.11-.56a12.19,12.19,0,0,1-.2-2.75,5.24,5.24,0,0,1,.33-1.56,4.62,4.62,0,0,0,.16-.53.2.2,0,0,0-.06-.11A.53.53,0,0,0,431.9,221.92Z"/><path class="cls-18" d="M441.32,224.59c0,.07-.07.42-.11.78a7.44,7.44,0,0,1-1.31,3.81l-.57,1-.35,0a3.34,3.34,0,0,0-1,.26,5.26,5.26,0,0,0-2.37,2.08,1.91,1.91,0,0,0-.31,1.17c0,.77,0,.94.29,1.06a2.16,2.16,0,0,0,1.38-.15c.85-.38,1.84-1.52,2.9-3.35a11.23,11.23,0,0,0,1.41-4.25,8.77,8.77,0,0,0,.08-2.62A.3.3,0,0,0,441.32,224.59Z"/><path class="cls-18" d="M441.37,228.57a2.69,2.69,0,0,0-.15.87,8.55,8.55,0,0,1-.45,2.14,6.17,6.17,0,0,1-1.69,2.65h0a4.25,4.25,0,0,0-2.27,1.18,4.72,4.72,0,0,0-1.45,2.07c-.15.53-.06,1.22.18,1.36.07,0,.17.05.56.05a1.82,1.82,0,0,0,.72-.08,2.32,2.32,0,0,0,.9-.52,12.52,12.52,0,0,0,2.78-4.07,11.91,11.91,0,0,0,.92-3.77,14,14,0,0,0,0-1.87S441.38,228.55,441.37,228.57Z"/><path class="cls-18" d="M441.31,232.7a2.8,2.8,0,0,0-.06.56A7.06,7.06,0,0,1,441,235a9.07,9.07,0,0,1-1.21,2.59c-.34.51-.43.59-.81.69a4.86,4.86,0,0,0-2,1,3.78,3.78,0,0,0-1.67,2.92.73.73,0,0,0,.08.45c.1.2.2.23.7.23a2.08,2.08,0,0,0,1.64-.56,11.63,11.63,0,0,0,3.63-7.39,8.93,8.93,0,0,0,.14-2.21C441.42,232.64,441.36,232.62,441.31,232.7Z"/><path class="cls-18" d="M441.28,236.88a3.27,3.27,0,0,0,0,.35,10,10,0,0,1-.53,2.62,8.28,8.28,0,0,1-1.43,2.36,1.29,1.29,0,0,1-.38.15,3.94,3.94,0,0,0-1.27.51,5.39,5.39,0,0,0-2.28,2.59,1.91,1.91,0,0,0,.06,1.42l.08.09H436a2,2,0,0,0,1.64-.52,11.14,11.14,0,0,0,2.22-3,8.45,8.45,0,0,0,1.09-2.58,13.78,13.78,0,0,0,.47-4C441.39,236.69,441.32,236.71,441.28,236.88Z"/><path class="cls-18" d="M441.35,240.69a4.85,4.85,0,0,0-.15,1,8.2,8.2,0,0,1-.71,2.72,11.58,11.58,0,0,1-1.12,1.85,1,1,0,0,1-.55.21,5.3,5.3,0,0,0-3.16,2.35,3.12,3.12,0,0,0-.41,1.61c0,.34.09.47.28.57a2,2,0,0,0,1.44-.1c.87-.37,1.88-1.54,2.93-3.4a10.81,10.81,0,0,0,1.34-3.78,16.36,16.36,0,0,0,.21-2.21C441.46,240.75,441.43,240.5,441.35,240.69Z"/><path class="cls-18" d="M436.72,255c.88-.3,1.79-1.23,2.87-3a11.4,11.4,0,0,0,1.72-4.83,14.26,14.26,0,0,0,.12-2.48c-.05-.1-.11,0-.15.11s0,.35,0,.59a8,8,0,0,1-1.58,4.38c-.4.65-.3.58-.83.64a2.79,2.79,0,0,0-1.8.89,6.75,6.75,0,0,0-1.57,1.95,2.93,2.93,0,0,0-.2,1.29"/><path class="cls-18" d="M435.34,256.22c1.52-.94.35.41,3.41-3.27a13.83,13.83,0,0,0,1.33-2.35c0-.08,0-.11-.08-.06a6.45,6.45,0,0,0-.57.86,8,8,0,0,1-2.86,2.81c-.88.6-1,.66-1.31.52"/><line class="cls-17" x1="472.98" y1="281.77" x2="472.98" y2="232.95"/><path class="cls-18" d="M473.88,197.87a11,11,0,0,0-1.16,2.51,13.71,13.71,0,0,0-.72,3.78,6.22,6.22,0,0,0,.89,4,2,2,0,0,0,.78.62.86.86,0,0,0,.49.11.66.66,0,0,0,.4-.08,1.32,1.32,0,0,0,.61-.79,3,3,0,0,0,.06-.9c0-1.46-.17-1.82-1.35-3A7.5,7.5,0,0,1,473,203a3.49,3.49,0,0,1,0-1.83,8.8,8.8,0,0,1,.53-1.73,8.65,8.65,0,0,0,.54-1.53C474.08,197.75,474,197.72,473.88,197.87Z"/><path class="cls-18" d="M473,233.78a4,4,0,0,0-1.16-1.82,5.42,5.42,0,0,0-1.83-1.2,3.46,3.46,0,0,0-.4-.08,1.16,1.16,0,0,1-.75-.36c-1-.91-1.5-2.62-1.67-5.68l0-.32.18.62a12.54,12.54,0,0,0,1,2.53,8.33,8.33,0,0,0,3,3.57,1.9,1.9,0,0,0,.94.2c.47,0,.6-.05.7-.25s.07-.19.07-.59a2.42,2.42,0,0,0-.09-.75,4.38,4.38,0,0,0-1.07-1.7,4.95,4.95,0,0,0-2.5-1.37c-.13,0-.18-.05-.39-.24a5.12,5.12,0,0,1-.45-.49,8.91,8.91,0,0,1-1.08-2.13,21.94,21.94,0,0,1-.3-2.95c0-.57,0-.74.08-.5l.27.91a12.3,12.3,0,0,0,1.15,2.89,8.76,8.76,0,0,0,1.61,2.13,2.81,2.81,0,0,0,2.12,1c.51,0,.64-.16.66-.66a2.79,2.79,0,0,0-.44-1.63,5.16,5.16,0,0,0-1-1.22,4.26,4.26,0,0,0-1.92-1.07c-.58-.15-.64-.2-1.12-.89a6.47,6.47,0,0,1-1.34-4.05c0-.63-.07-1.62,0-1.59s.09.28.19.59c.88,2.69,1.39,3.73,2.41,4.91A4.29,4.29,0,0,0,471.6,223a1.66,1.66,0,0,0,.63.07,1.18,1.18,0,0,0,.54-.06c.22-.1.26-.21.26-.73a2.29,2.29,0,0,0-.28-1.2,4.61,4.61,0,0,0-1.2-1.54,4.28,4.28,0,0,0-1.91-1c-.58-.15-.65-.21-1.28-1.08a4.23,4.23,0,0,1-.84-1.65,14.19,14.19,0,0,1-.36-3.25l0-.58.07.21c0,.11.16.52.28.9a14.94,14.94,0,0,0,1.19,3,7.61,7.61,0,0,0,2.46,2.72,2.09,2.09,0,0,0,1.12.25c.59,0,.61,0,.71-.25a2.65,2.65,0,0,0-.29-1.93,5.19,5.19,0,0,0-3.11-2.38,1.66,1.66,0,0,1-.38-.13,6.39,6.39,0,0,1-1.26-1.53,7.1,7.1,0,0,1-.69-2.73c0-.36-.1-1.77-.1-2v-.15l.06.21a16.71,16.71,0,0,0,1.5,3.87,8.43,8.43,0,0,0,1.43,1.92,4.78,4.78,0,0,0,1.46,1.08c.64.28,1.13.21,1.35-.2.07-.13.08-.18.08-.56a1.94,1.94,0,0,0-.09-.73,4.6,4.6,0,0,0-.7-1.26,8.63,8.63,0,0,0-1.21-1.12,3.5,3.5,0,0,0-1.51-.72,1,1,0,0,1-.32-.09,3.88,3.88,0,0,1-.75-.83c-.94-1.26-1.22-2.32-1.3-4.85,0-.49,0-.71,0-.69a8.71,8.71,0,0,1,.38,1.17,11.27,11.27,0,0,0,2.35,4.53,4.15,4.15,0,0,0,2.18,1.44.83.83,0,0,0,.42,0c.4-.1.55-.35.55-.86a2.34,2.34,0,0,0-.19-1,5.48,5.48,0,0,0-3.37-2.91,1.08,1.08,0,0,1-.67-.42,5.38,5.38,0,0,1-1.15-1.83,10.49,10.49,0,0,1-.53-3.41c0-.93-.05-1.19-.1-1.22s0,0-.06.1a13.11,13.11,0,0,0-.06,3.05,8.8,8.8,0,0,1,0,2,8.3,8.3,0,0,0,0,2,9.06,9.06,0,0,1,0,2.09,8.3,8.3,0,0,0,0,2,8.57,8.57,0,0,1,0,2,8.93,8.93,0,0,0,0,2.07,8.6,8.6,0,0,1,0,2,7.72,7.72,0,0,0,0,2,8.23,8.23,0,0,1,0,2,8.88,8.88,0,0,0,0,1.92,10,10,0,0,1,.05,1.29,27.35,27.35,0,0,0,.3,3.93,6.15,6.15,0,0,0,.36,1.78c.49,1.39,1.84,2.31,2.6,3.26"/><path class="cls-18" d="M476.3,199.63c-.06.09-.05.14.11.79a7.55,7.55,0,0,1,.27,1.76,11,11,0,0,1-.47,3.41c-.21.78-.21.75.05.75s.33-.08.52-.52a13,13,0,0,0,.56-3.13,8.9,8.9,0,0,0-.46-2.73,1.82,1.82,0,0,0-.1-.35.48.48,0,0,0-.24,0C476.37,199.57,476.32,199.58,476.3,199.63Z"/><path class="cls-18" d="M469.9,199.92c-.06,0-.11.19-.28,1a7.37,7.37,0,0,0-.33,2.23,6.43,6.43,0,0,0,.06,1,4.6,4.6,0,0,0,.28,1.18.45.45,0,0,0,.42.1c.2,0,.2-.05.11-.56a12.19,12.19,0,0,1-.2-2.75,5.24,5.24,0,0,1,.33-1.56,4.62,4.62,0,0,0,.16-.53.2.2,0,0,0-.06-.11A.53.53,0,0,0,469.9,199.92Z"/><path class="cls-18" d="M479.32,202.59c0,.07-.07.42-.11.78a7.44,7.44,0,0,1-1.31,3.81l-.57,1-.35,0a3.34,3.34,0,0,0-1,.26,5.26,5.26,0,0,0-2.37,2.08,1.91,1.91,0,0,0-.31,1.17c0,.77,0,.94.29,1.06a2.16,2.16,0,0,0,1.38-.15c.85-.38,1.84-1.52,2.9-3.35a11.23,11.23,0,0,0,1.41-4.25,8.77,8.77,0,0,0,.08-2.62A.3.3,0,0,0,479.32,202.59Z"/><path class="cls-18" d="M479.37,206.57a2.69,2.69,0,0,0-.15.87,8.55,8.55,0,0,1-.45,2.14,6.17,6.17,0,0,1-1.69,2.65h0a4.25,4.25,0,0,0-2.27,1.18,4.72,4.72,0,0,0-1.45,2.07c-.15.53-.06,1.22.18,1.36.07,0,.17.05.56.05a1.82,1.82,0,0,0,.72-.08,2.32,2.32,0,0,0,.9-.52,12.52,12.52,0,0,0,2.78-4.07,11.91,11.91,0,0,0,.92-3.77,14,14,0,0,0,0-1.87S479.38,206.55,479.37,206.57Z"/><path class="cls-18" d="M479.31,210.7a2.8,2.8,0,0,0-.06.56A7.06,7.06,0,0,1,479,213a9.07,9.07,0,0,1-1.21,2.59c-.34.51-.43.59-.81.69a4.86,4.86,0,0,0-2,1,3.78,3.78,0,0,0-1.67,2.92.73.73,0,0,0,.08.45c.1.2.2.23.7.23a2.08,2.08,0,0,0,1.64-.56,11.63,11.63,0,0,0,3.63-7.39,8.93,8.93,0,0,0,.14-2.21C479.42,210.64,479.36,210.62,479.31,210.7Z"/><path class="cls-18" d="M479.28,214.88a3.27,3.27,0,0,0,0,.35,10,10,0,0,1-.53,2.62,8.28,8.28,0,0,1-1.43,2.36,1.29,1.29,0,0,1-.38.15,3.94,3.94,0,0,0-1.27.51,5.39,5.39,0,0,0-2.28,2.59,1.91,1.91,0,0,0,.06,1.42l.08.09H474a2,2,0,0,0,1.64-.52,11.14,11.14,0,0,0,2.22-3,8.45,8.45,0,0,0,1.09-2.58,13.78,13.78,0,0,0,.47-4C479.39,214.69,479.32,214.71,479.28,214.88Z"/><path class="cls-18" d="M479.35,218.69a4.85,4.85,0,0,0-.15,1,8.2,8.2,0,0,1-.71,2.72,11.58,11.58,0,0,1-1.12,1.85,1,1,0,0,1-.55.21,5.3,5.3,0,0,0-3.16,2.35,3.12,3.12,0,0,0-.41,1.61c0,.34.09.47.28.57a2,2,0,0,0,1.44-.1c.87-.37,1.88-1.54,2.93-3.4a10.81,10.81,0,0,0,1.34-3.78,16.36,16.36,0,0,0,.21-2.21C479.46,218.75,479.43,218.5,479.35,218.69Z"/><path class="cls-18" d="M474.72,233c.88-.3,1.79-1.23,2.87-3a11.4,11.4,0,0,0,1.72-4.83,14.26,14.26,0,0,0,.12-2.48c-.05-.1-.11,0-.15.11s0,.35,0,.59a8,8,0,0,1-1.58,4.38c-.4.65-.3.58-.83.64a2.79,2.79,0,0,0-1.8.89,6.75,6.75,0,0,0-1.57,1.95,2.93,2.93,0,0,0-.2,1.29"/><path class="cls-18" d="M473.34,234.22c1.52-.94.35.41,3.41-3.27a13.83,13.83,0,0,0,1.33-2.35c0-.08,0-.11-.08-.06a6.45,6.45,0,0,0-.57.86,8,8,0,0,1-2.86,2.81c-.88.6-1,.66-1.31.52"/><line class="cls-17" x1="440.98" y1="265.77" x2="440.98" y2="216.95"/><path class="cls-18" d="M441.88,181.87a11,11,0,0,0-1.16,2.51,13.71,13.71,0,0,0-.72,3.78,6.22,6.22,0,0,0,.89,4,2,2,0,0,0,.78.62.86.86,0,0,0,.49.11.66.66,0,0,0,.4-.08,1.32,1.32,0,0,0,.61-.79,3,3,0,0,0,.06-.9c0-1.46-.17-1.82-1.35-3A7.5,7.5,0,0,1,441,187a3.49,3.49,0,0,1,0-1.83,8.8,8.8,0,0,1,.53-1.73,8.65,8.65,0,0,0,.54-1.53C442.08,181.75,442,181.72,441.88,181.87Z"/><path class="cls-18" d="M441,217.78a4,4,0,0,0-1.16-1.82,5.42,5.42,0,0,0-1.83-1.2,3.46,3.46,0,0,0-.4-.08,1.16,1.16,0,0,1-.75-.36c-1-.91-1.5-2.62-1.67-5.68l0-.32.18.62a12.54,12.54,0,0,0,1,2.53,8.33,8.33,0,0,0,3,3.57,1.9,1.9,0,0,0,.94.2c.47,0,.6-.05.7-.25s.07-.19.07-.59a2.42,2.42,0,0,0-.09-.75,4.38,4.38,0,0,0-1.07-1.7,4.95,4.95,0,0,0-2.5-1.37c-.13,0-.18-.05-.39-.24a5.12,5.12,0,0,1-.45-.49,8.91,8.91,0,0,1-1.08-2.13,21.94,21.94,0,0,1-.3-2.95c0-.57,0-.74.08-.5l.27.91a12.3,12.3,0,0,0,1.15,2.89,8.76,8.76,0,0,0,1.61,2.13,2.81,2.81,0,0,0,2.12,1c.51,0,.64-.16.66-.66a2.79,2.79,0,0,0-.44-1.63,5.16,5.16,0,0,0-1-1.22,4.26,4.26,0,0,0-1.92-1.07c-.58-.15-.64-.2-1.12-.89a6.47,6.47,0,0,1-1.34-4.05c0-.63-.07-1.62,0-1.59s.09.28.19.59c.88,2.69,1.39,3.73,2.41,4.91A4.29,4.29,0,0,0,439.6,207a1.66,1.66,0,0,0,.63.07,1.18,1.18,0,0,0,.54-.06c.22-.1.26-.21.26-.73a2.29,2.29,0,0,0-.28-1.2,4.61,4.61,0,0,0-1.2-1.54,4.28,4.28,0,0,0-1.91-1c-.58-.15-.65-.21-1.28-1.08a4.23,4.23,0,0,1-.84-1.65,14.19,14.19,0,0,1-.36-3.25l0-.58.07.21c0,.11.16.52.28.9a14.94,14.94,0,0,0,1.19,3,7.61,7.61,0,0,0,2.46,2.72,2.09,2.09,0,0,0,1.12.25c.59,0,.61,0,.71-.25a2.65,2.65,0,0,0-.29-1.93,5.19,5.19,0,0,0-3.11-2.38,1.66,1.66,0,0,1-.38-.13,6.39,6.39,0,0,1-1.26-1.53,7.1,7.1,0,0,1-.69-2.73c0-.36-.1-1.77-.1-2v-.15l.06.21a16.71,16.71,0,0,0,1.5,3.87,8.43,8.43,0,0,0,1.43,1.92,4.78,4.78,0,0,0,1.46,1.08c.64.28,1.13.21,1.35-.2.07-.13.08-.18.08-.56a1.94,1.94,0,0,0-.09-.73,4.6,4.6,0,0,0-.7-1.26,8.63,8.63,0,0,0-1.21-1.12,3.5,3.5,0,0,0-1.51-.72,1,1,0,0,1-.32-.09,3.88,3.88,0,0,1-.75-.83c-.94-1.26-1.22-2.32-1.3-4.85,0-.49,0-.71,0-.69a8.71,8.71,0,0,1,.38,1.17,11.27,11.27,0,0,0,2.35,4.53,4.15,4.15,0,0,0,2.18,1.44.83.83,0,0,0,.42,0c.4-.1.55-.35.55-.86a2.34,2.34,0,0,0-.19-1,5.48,5.48,0,0,0-3.37-2.91,1.08,1.08,0,0,1-.67-.42,5.38,5.38,0,0,1-1.15-1.83,10.49,10.49,0,0,1-.53-3.41c0-.93-.05-1.19-.1-1.22s0,0-.06.1a13.11,13.11,0,0,0-.06,3.05,8.8,8.8,0,0,1,0,2,8.3,8.3,0,0,0,0,2,9.06,9.06,0,0,1,0,2.09,8.3,8.3,0,0,0,0,2,8.57,8.57,0,0,1,0,2,8.93,8.93,0,0,0,0,2.07,8.6,8.6,0,0,1,0,2,7.72,7.72,0,0,0,0,2,8.23,8.23,0,0,1,0,2,8.88,8.88,0,0,0,0,1.92,10,10,0,0,1,.05,1.29,27.35,27.35,0,0,0,.3,3.93,6.15,6.15,0,0,0,.36,1.78c.49,1.39,1.84,2.31,2.6,3.26"/><path class="cls-18" d="M444.3,183.63c-.06.09-.05.14.11.79a7.55,7.55,0,0,1,.27,1.76,11,11,0,0,1-.47,3.41c-.21.78-.21.75.05.75s.33-.08.52-.52a13,13,0,0,0,.56-3.13,8.9,8.9,0,0,0-.46-2.73,1.82,1.82,0,0,0-.1-.35.48.48,0,0,0-.24,0C444.37,183.57,444.32,183.58,444.3,183.63Z"/><path class="cls-18" d="M437.9,183.92c-.06,0-.11.19-.28,1a7.37,7.37,0,0,0-.33,2.23,6.43,6.43,0,0,0,.06,1,4.6,4.6,0,0,0,.28,1.18.45.45,0,0,0,.42.1c.2,0,.2-.05.11-.56a12.19,12.19,0,0,1-.2-2.75,5.24,5.24,0,0,1,.33-1.56,4.62,4.62,0,0,0,.16-.53.2.2,0,0,0-.06-.11A.53.53,0,0,0,437.9,183.92Z"/><path class="cls-18" d="M447.32,186.59c0,.07-.07.42-.11.78a7.44,7.44,0,0,1-1.31,3.81l-.57,1-.35,0a3.34,3.34,0,0,0-1,.26,5.26,5.26,0,0,0-2.37,2.08,1.91,1.91,0,0,0-.31,1.17c0,.77,0,.94.29,1.06a2.16,2.16,0,0,0,1.38-.15c.85-.38,1.84-1.52,2.9-3.35a11.23,11.23,0,0,0,1.41-4.25,8.77,8.77,0,0,0,.08-2.62A.3.3,0,0,0,447.32,186.59Z"/><path class="cls-18" d="M447.37,190.57a2.69,2.69,0,0,0-.15.87,8.55,8.55,0,0,1-.45,2.14,6.17,6.17,0,0,1-1.69,2.65h0a4.25,4.25,0,0,0-2.27,1.18,4.72,4.72,0,0,0-1.45,2.07c-.15.53-.06,1.22.18,1.36.07,0,.17.05.56.05a1.82,1.82,0,0,0,.72-.08,2.32,2.32,0,0,0,.9-.52,12.52,12.52,0,0,0,2.78-4.07,11.91,11.91,0,0,0,.92-3.77,14,14,0,0,0,0-1.87S447.38,190.55,447.37,190.57Z"/><path class="cls-18" d="M447.31,194.7a2.8,2.8,0,0,0-.06.56A7.06,7.06,0,0,1,447,197a9.07,9.07,0,0,1-1.21,2.59c-.34.51-.43.59-.81.69a4.86,4.86,0,0,0-2,1,3.78,3.78,0,0,0-1.67,2.92.73.73,0,0,0,.08.45c.1.2.2.23.7.23a2.08,2.08,0,0,0,1.64-.56,11.63,11.63,0,0,0,3.63-7.39,8.93,8.93,0,0,0,.14-2.21C447.42,194.64,447.36,194.62,447.31,194.7Z"/><path class="cls-18" d="M447.28,198.88a3.27,3.27,0,0,0,0,.35,10,10,0,0,1-.53,2.62,8.28,8.28,0,0,1-1.43,2.36,1.29,1.29,0,0,1-.38.15,3.94,3.94,0,0,0-1.27.51,5.39,5.39,0,0,0-2.28,2.59,1.91,1.91,0,0,0,.06,1.42l.08.09H442a2,2,0,0,0,1.64-.52,11.14,11.14,0,0,0,2.22-3,8.45,8.45,0,0,0,1.09-2.58,13.78,13.78,0,0,0,.47-4C447.39,198.69,447.32,198.71,447.28,198.88Z"/><path class="cls-18" d="M447.35,202.69a4.85,4.85,0,0,0-.15,1,8.2,8.2,0,0,1-.71,2.72,11.58,11.58,0,0,1-1.12,1.85,1,1,0,0,1-.55.21,5.3,5.3,0,0,0-3.16,2.35,3.12,3.12,0,0,0-.41,1.61c0,.34.09.47.28.57a2,2,0,0,0,1.44-.1c.87-.37,1.88-1.54,2.93-3.4a10.81,10.81,0,0,0,1.34-3.78,16.36,16.36,0,0,0,.21-2.21C447.46,202.75,447.43,202.5,447.35,202.69Z"/><path class="cls-18" d="M442.72,217c.88-.3,1.79-1.23,2.87-3a11.4,11.4,0,0,0,1.72-4.83,14.26,14.26,0,0,0,.12-2.48c-.05-.1-.11,0-.15.11s0,.35,0,.59a8,8,0,0,1-1.58,4.38c-.4.65-.3.58-.83.64a2.79,2.79,0,0,0-1.8.89,6.75,6.75,0,0,0-1.57,1.95,2.93,2.93,0,0,0-.2,1.29"/><path class="cls-18" d="M441.34,218.22c1.52-.94.35.41,3.41-3.27a13.83,13.83,0,0,0,1.33-2.35c0-.08,0-.11-.08-.06a6.45,6.45,0,0,0-.57.86,8,8,0,0,1-2.86,2.81c-.88.6-1,.66-1.31.52"/><line class="cls-11" x1="399" y1="334" x2="400" y2="232"/><line class="cls-11" x1="502.53" y1="181.74" x2="400.53" y2="231.74"/><line class="cls-11" x1="297" y1="181" x2="400" y2="232"/></svg>