<svg id="Layer_1" data-name="Layer 1" xmlns="http://www.w3.org/2000/svg" viewBox="0 0 1252 423"><defs><style>.cls-1{font-size:200px;font-family:SegoeUI-SemiboldItalic, Segoe UI;font-weight:600;font-style:italic;}.cls-1,.cls-9{fill:#6cb119;}.cls-1,.cls-11,.cls-12{stroke:#000;}.cls-1,.cls-11,.cls-12,.cls-17{stroke-miterlimit:10;}.cls-1,.cls-17{stroke-width:2px;}.cls-2{letter-spacing:0em;}.cls-3,.cls-4{fill:#4c76b2;}.cls-3{letter-spacing:-0.1em;}.cls-5{fill:#b0d8ff;}.cls-6{fill:#106812;}.cls-7{fill:#003580;}.cls-8{fill:#a7cf2f;}.cls-10{fill:#fff;}.cls-11,.cls-12{fill:none;}.cls-12{stroke-width:5px;}.cls-13{fill:#c17d11;}.cls-14{fill:#8f5902;}.cls-15{fill:#7da81d;}.cls-16{fill:#469315;}.cls-17{fill:#00d41d;stroke:#009500;}.cls-18{fill:#d2ab00;}</style></defs><text class="cls-1" transform="translate(461.2 270.04) scale(1.01 1)">Ag<tspan class="cls-2" x="246.97" y="0">r</tspan><tspan x="322.66" y="0">i</tspan><tspan class="cls-3" x="380.27" y="0">T</tspan><tspan class="cls-4" x="470.7" y="0">ech</tspan></text><polygon class="cls-5" points="302 115.13 355.95 88.64 410 115.31 410 115.9 409.13 115.9 355 142.66 301.83 116.17 301.83 115.22 302 115.13"/><polygon class="cls-6" points="410 255.75 409.94 309 355.83 335.58 355.01 335.18 355.35 334.51 356.43 282.33 409.46 255.71 409.55 255.53 410 255.75"/><polygon class="cls-7" points="410 115.9 409.94 168.56 356.58 194.76 355.86 195.12 355.83 195.13 355 194.73 355 142.66 409.13 115.9 410 115.9"/><polygon class="cls-8" points="409.55 255.53 409.46 255.71 356.43 282.33 302.75 255.92 302.75 255.21 355.93 229.09 355.95 229.08 356.49 229.35 409.55 255.53"/><polygon class="cls-9" points="301.77 308.79 301.77 306.68 301.83 256.86 302.75 256.4 302.75 255.92 356.43 282.33 355.35 334.51 355.01 335.18 301.77 308.91 301.77 308.8 301.77 308.79"/><polygon class="cls-4" points="355 142.66 355 194.73 302.85 169.01 302.85 167.9 301.77 167.36 301.83 116.17 355 142.66"/><polygon class="cls-10" points="302.85 167.9 302.85 169.01 301.77 168.47 301.77 167.36 302.85 167.9"/><polygon class="cls-10" points="302.85 169.01 302.75 255.21 301.83 255.66 301.83 256.86 214.36 300.13 213.08 299.5 212.19 299.94 125.36 256.78 125.36 255.53 124.27 254.99 124.37 168.38 125.3 167.92 125.3 167.27 213.31 123.73 214.04 124.09 214.39 123.92 301.77 167.36 301.77 168.47 302.85 169.01"/><polygon class="cls-10" points="302.75 255.92 302.75 256.4 301.83 256.86 301.83 255.66 302.75 255.21 302.75 255.92"/><polygon class="cls-6" points="268.06 97.56 214.39 123.92 213.66 123.56 213.56 123.03 214.64 70.84 267.67 44.22 267.76 44.04 268.21 44.26 268.15 95.8 268.15 97.52 268.06 97.56"/><polygon class="cls-8" points="267.76 44.04 267.67 44.22 214.64 70.84 160.53 44.22 160.42 43.99 214.16 17.6 267.76 44.04"/><polygon class="cls-7" points="267.13 326.51 267.07 379.42 212.96 406 212.36 405.7 212.69 405.05 212.69 352.39 266.43 325.83 267.13 326.17 267.13 326.51"/><polygon class="cls-5" points="266.43 325.83 212.69 352.39 159.43 325.86 212.19 299.94 213.47 300.57 214.36 300.13 266.43 325.83"/><polygon class="cls-9" points="160.07 97.46 159.99 97.42 159.99 94.81 160.05 44.17 160.42 43.99 160.53 44.22 214.64 70.84 213.56 123.03 213.66 123.56 213.31 123.73 160.07 97.46"/><polygon class="cls-10" points="214.39 123.92 214.04 124.09 213.31 123.73 213.66 123.56 214.39 123.92"/><polygon class="cls-10" points="214.36 300.13 213.47 300.57 212.19 299.94 213.08 299.5 214.36 300.13"/><polygon class="cls-4" points="158.97 326.16 158.97 326.09 159.43 325.86 212.69 352.39 212.69 405.05 212.36 405.7 158.91 379.33 158.97 326.16"/><polygon class="cls-10" points="124.27 255.75 124.27 254.99 125.36 255.53 125.36 256.78 124.27 256.24 124.27 255.75"/><polygon class="cls-7" points="125.36 114.67 125.3 167.27 124.37 167.73 124.37 168.38 71.25 193.76 71.25 141.36 125.3 114.65 125.33 114.66 125.36 114.67"/><polygon class="cls-6" points="125.3 308.76 125.3 308.77 71.17 335.35 70.36 334.95 70.69 334.29 71.78 282.1 124.27 255.75 124.27 256.24 125.36 256.78 125.3 306.78 125.3 308.76"/><polygon class="cls-5" points="71.3 88 125.3 114.65 71.25 141.36 17.35 114.5 71.3 88"/><polygon class="cls-10" points="125.3 167.27 125.3 167.92 124.37 168.38 124.37 167.73 125.3 167.27"/><polygon class="cls-4" points="71.25 193.76 124.37 168.38 71.17 194.5 70.86 194.35 70.72 194.28 70.72 194.01 71.25 193.76"/><polygon class="cls-8" points="71.25 228.88 71.3 228.86 124.27 254.99 124.27 255.75 71.78 282.1 17.66 255.48 17.55 255.25 70.77 229.12 71.25 228.88"/><polygon class="cls-9" points="71.78 282.1 70.69 334.29 70.36 334.95 17.12 308.69 17.18 255.43 17.55 255.25 17.66 255.48 71.78 282.1"/><polygon class="cls-4" points="71.25 141.36 71.25 193.76 70.72 194.01 70.72 194.28 17.12 167.83 17.18 114.59 17.35 114.5 71.25 141.36"/><polyline class="cls-11" points="124.37 168.38 71.17 194.5 70.86 194.35"/><polyline class="cls-11" points="268.15 97.52 268.06 97.56 214.39 123.92"/><polyline class="cls-11" points="213.31 123.73 160.07 97.46 159.99 97.42"/><line class="cls-11" x1="160.3" y1="97.34" x2="184.75" y2="86.12"/><line class="cls-11" x1="125.36" y1="114.67" x2="125.29" y2="167.27"/><polyline class="cls-11" points="124.37 168.38 71.25 193.76 70.72 194.01"/><line class="cls-11" x1="302.85" y1="169.01" x2="302.75" y2="255.21"/><polyline class="cls-11" points="124.27 254.99 124.37 168.38 124.37 167.73 125.3 167.27 213.31 123.73 213.66 123.56 214.39 123.92 301.77 167.36"/><line class="cls-11" x1="212.19" y1="299.94" x2="125.36" y2="256.78"/><line class="cls-11" x1="301.83" y1="256.86" x2="214.36" y2="300.13"/><polyline class="cls-11" points="301.77 308.79 301.77 306.68 301.83 256.86 301.83 255.66 302.75 255.21 355.93 229.09 355.95 229.08"/><line class="cls-11" x1="301.77" y1="308.91" x2="301.77" y2="308.8"/><line class="cls-11" x1="302.31" y1="255.71" x2="302.75" y2="255.92"/><polyline class="cls-11" points="71.3 228.86 124.27 254.99 125.36 255.53 125.36 256.78 125.3 306.78 125.3 308.76 125.3 308.77"/><line class="cls-11" x1="124.81" y1="255.48" x2="124.27" y2="255.75"/><polyline class="cls-11" points="355.83 195.13 355 194.73 302.85 169.01 301.77 168.47 301.77 167.36 301.83 116.17 301.83 115.22"/><polyline class="cls-11" points="158.97 326.09 159.43 325.86 212.19 299.94 213.08 299.5 214.36 300.13 266.43 325.83 267.13 326.17"/><line class="cls-11" x1="301.84" y1="308.76" x2="326.19" y2="296.72"/><polyline class="cls-11" points="301.74 308.81 301.77 308.8 301.77 308.79"/><line class="cls-11" x1="355.87" y1="254.86" x2="355.87" y2="229.89"/><line class="cls-11" x1="71.25" y1="255.73" x2="71.25" y2="229.12"/><polyline class="cls-11" points="268.28 97.67 268.06 97.56 246.74 86.99"/><polyline class="cls-11" points="125.38 308.81 125.3 308.76 101.81 296.72"/><polyline class="cls-12" points="159.99 97.42 159.99 94.81 160.05 44.17 160.42 43.99 214.16 17.6 267.76 44.04 268.21 44.26 268.15 95.8 268.15 97.52"/><polyline class="cls-12" points="125.33 114.66 160.07 97.46 160.31 97.34"/><polyline class="cls-12" points="70.86 194.35 70.72 194.28 17.12 167.83 17.18 114.59 17.35 114.5 71.3 88 125.3 114.65 125.33 114.66 125.36 114.67"/><polyline class="cls-12" points="355.95 229.08 356.49 229.35 409.55 255.53 410 255.75 409.94 309 355.83 335.58 355.01 335.18 301.77 308.91"/><polyline class="cls-12" points="125.3 308.77 71.17 335.35 70.36 334.95 17.12 308.69 17.18 255.43 17.55 255.25 70.77 229.12 71.25 228.88 71.3 228.86"/><polyline class="cls-12" points="301.83 115.22 302 115.13 355.95 88.64 410 115.31 410 115.9 409.94 168.56 356.58 194.76 355.86 195.12 355.83 195.13"/><polyline class="cls-12" points="267.13 326.17 267.13 326.51 267.07 379.42 212.96 406 212.36 405.7 158.91 379.33 158.97 326.16 158.97 326.09"/><polyline class="cls-12" points="266.98 326.6 267.13 326.51 267.23 326.46 301.74 308.81 301.77 308.79 301.84 308.76"/><line class="cls-12" x1="355.87" y1="228.97" x2="355.96" y2="195.31"/><polyline class="cls-12" points="71.25 229.12 71.25 228.88 70.72 194.28 70.72 194.01"/><polyline class="cls-12" points="302.33 115.32 302 115.13 268.28 97.67"/><polyline class="cls-12" points="159.45 326.43 158.97 326.16 125.38 308.81"/><g id="layer1"><g id="g9775"><path id="path9777" class="cls-13" d="M212.52,211.7l-88.63,43.81,89.46,44.23L302,255.93,212.52,211.7Z"/><path id="path9779" class="cls-14" d="M134.23,260.62s24.35-10,25.65-10.76S175.82,238,175.82,238l19.57-8.78,10.19-3.36,17.28-9,11.82,5.84-17.77,7.22-.11,1.93-17.75,8.77-23.5,13.68-15.67,7.23-13.84,5-11.81-5.84Z"/><path id="path9781" class="cls-14" d="M166.44,276.54s23.42-10.09,24.74-10.87,17.49-4.9,17.49-4.9L240,238.57l10.17-5.17,4.83-.7,10.36,5.13-17.27,9.78-17.77,8.78-24,12-15.18,8.87-14.46,4.32Z"/><path id="path9783" class="cls-14" d="M191.55,289S215.67,279.74,217,279s17.49-4.89,17.49-4.89l31.34-22.21L276,246.71l4.06-1.64,13.34,6.6L273.9,260.9l-17.76,8.77-23.5,13.69L217,290.59l-12.14,5L191.55,289Z"/></g></g><path class="cls-15" d="M153.68,260.36a1,1,0,0,1-1.08.84h0a1,1,0,0,1-1.07-.84v-72.5a1,1,0,0,1,1.07-.85h0a1,1,0,0,1,1.08.85Z"/><ellipse class="cls-15" cx="152.6" cy="262.74" rx="4.23" ry="3.34"/><path class="cls-15" d="M152.64,168.55c-4.47,1.73-7.86,9.51-7.86,13.22s3.39,6.8,7.86,7.45Z"/><path class="cls-16" d="M152.56,168.55c4.47,1.73,7.85,9.51,7.85,13.22s-3.38,6.8-7.85,7.45Z"/><path class="cls-15" d="M172.39,191.73c-4.72-1.27-14.09,2.35-17.42,5s-3.7,6.69-1.13,9.64Z"/><path class="cls-16" d="M172.34,191.69c1.6,3.72-3,11.11-6.31,13.73a11.61,11.61,0,0,1-12.24.89Z"/><path class="cls-15" d="M172.39,208.9c-4.72-1.27-14.09,2.35-17.42,5s-3.7,6.69-1.13,9.64Z"/><path class="cls-16" d="M172.34,208.86c1.6,3.72-3,11.11-6.31,13.73a11.61,11.61,0,0,1-12.24.89Z"/><path class="cls-15" d="M172.39,226.07c-4.72-1.27-14.09,2.35-17.42,5s-3.7,6.7-1.13,9.65Z"/><path class="cls-16" d="M172.34,226c1.6,3.72-3,11.11-6.31,13.73a11.61,11.61,0,0,1-12.24.89Z"/><path class="cls-15" d="M169.08,245.84c-3.87-1-11.58,1.93-14.31,4.09a5.29,5.29,0,0,0-.94,7.93Z"/><path class="cls-16" d="M169,245.81c1.32,3.05-2.44,9.13-5.18,11.29a9.6,9.6,0,0,1-10.07.73Z"/><path class="cls-15" d="M132.81,191.73c4.72-1.27,14.09,2.35,17.42,5s3.7,6.69,1.13,9.64Z"/><path class="cls-16" d="M132.86,191.69c-1.6,3.72,3,11.11,6.31,13.73a11.61,11.61,0,0,0,12.24.89Z"/><path class="cls-15" d="M132.81,208.9c4.72-1.27,14.09,2.35,17.42,5s3.7,6.69,1.13,9.64Z"/><path class="cls-16" d="M132.86,208.86c-1.6,3.72,3,11.11,6.31,13.73a11.61,11.61,0,0,0,12.24.89Z"/><path class="cls-15" d="M132.81,226.07c4.72-1.27,14.09,2.35,17.42,5s3.7,6.7,1.13,9.65Z"/><path class="cls-16" d="M132.86,226c-1.6,3.72,3,11.11,6.31,13.73a11.61,11.61,0,0,0,12.24.89Z"/><path class="cls-15" d="M136.11,245.84c3.88-1,11.59,1.93,14.32,4.09s3,5.5.93,7.93Z"/><path class="cls-16" d="M151.08,257.31a9.11,9.11,0,0,1-9.62-.7c-2.62-2.07-6.22-7.91-5-10.84Z"/><path class="cls-15" d="M190.49,281.33a1,1,0,0,1-1.07.85h0a1,1,0,0,1-1.08-.85V208.84a1,1,0,0,1,1.08-.85h0a1,1,0,0,1,1.07.85Z"/><ellipse class="cls-15" cx="189.41" cy="283.72" rx="4.23" ry="3.34"/><path class="cls-15" d="M189.46,189.53c-4.47,1.73-7.86,9.51-7.86,13.22s3.39,6.8,7.86,7.45Z"/><path class="cls-16" d="M189.38,189.53c4.47,1.73,7.85,9.51,7.85,13.22s-3.39,6.8-7.85,7.45Z"/><path class="cls-15" d="M209.2,212.71c-4.71-1.27-14.08,2.35-17.42,5s-3.7,6.69-1.12,9.64Z"/><path class="cls-16" d="M209.15,212.67c1.61,3.71-3,11.1-6.3,13.73a11.61,11.61,0,0,1-12.24.89Z"/><path class="cls-15" d="M209.2,229.88c-4.71-1.27-14.08,2.35-17.42,5s-3.7,6.69-1.12,9.64Z"/><path class="cls-16" d="M209.15,229.84c1.61,3.72-3,11.1-6.3,13.73a11.61,11.61,0,0,1-12.24.89Z"/><path class="cls-15" d="M209.2,247.05c-4.71-1.27-14.08,2.35-17.42,5s-3.7,6.7-1.12,9.65Z"/><path class="cls-16" d="M209.15,247c1.61,3.71-3,11.11-6.3,13.73a11.61,11.61,0,0,1-12.24.89Z"/><path class="cls-15" d="M205.9,266.81c-3.87-1-11.58,1.94-14.32,4.1a5.29,5.29,0,0,0-.93,7.93Z"/><path class="cls-16" d="M205.86,266.79c1.32,3-2.45,9.13-5.19,11.29a9.58,9.58,0,0,1-10.06.73Z"/><path class="cls-15" d="M169.63,212.71c4.71-1.27,14.08,2.35,17.42,5s3.7,6.69,1.12,9.64Z"/><path class="cls-16" d="M169.68,212.67c-1.61,3.71,3,11.1,6.31,13.73a11.59,11.59,0,0,0,12.23.89Z"/><path class="cls-15" d="M169.63,229.88c4.71-1.27,14.08,2.35,17.42,5s3.7,6.69,1.12,9.64Z"/><path class="cls-16" d="M169.68,229.84c-1.61,3.72,3,11.1,6.31,13.73a11.59,11.59,0,0,0,12.23.89Z"/><path class="cls-15" d="M169.63,247.05c4.71-1.27,14.08,2.35,17.42,5s3.7,6.7,1.12,9.65Z"/><path class="cls-16" d="M169.68,247c-1.61,3.71,3,11.11,6.31,13.73a11.59,11.59,0,0,0,12.23.89Z"/><path class="cls-15" d="M172.93,266.81c3.88-1,11.58,1.94,14.32,4.1a5.29,5.29,0,0,1,.93,7.93Z"/><path class="cls-16" d="M187.89,278.29a9.09,9.09,0,0,1-9.61-.7c-2.62-2.08-6.22-7.91-5-10.85Z"/><path class="cls-15" d="M237.18,281.33a1,1,0,0,1-1.08.85h0a1,1,0,0,1-1.07-.85V208.84a1,1,0,0,1,1.07-.85h0a1,1,0,0,1,1.08.85Z"/><ellipse class="cls-15" cx="236.1" cy="283.72" rx="4.23" ry="3.34"/><path class="cls-15" d="M236.14,189.53c-4.47,1.73-7.86,9.51-7.86,13.22s3.39,6.8,7.86,7.45Z"/><path class="cls-16" d="M236.06,189.53c4.47,1.73,7.85,9.51,7.85,13.22s-3.38,6.8-7.85,7.45Z"/><path class="cls-15" d="M255.89,212.71c-4.72-1.27-14.09,2.35-17.42,5s-3.7,6.69-1.13,9.64Z"/><path class="cls-16" d="M255.84,212.67c1.6,3.71-3,11.1-6.31,13.73a11.61,11.61,0,0,1-12.24.89Z"/><path class="cls-15" d="M255.89,229.88c-4.72-1.27-14.09,2.35-17.42,5s-3.7,6.69-1.13,9.64Z"/><path class="cls-16" d="M255.84,229.84c1.6,3.72-3,11.1-6.31,13.73a11.61,11.61,0,0,1-12.24.89Z"/><path class="cls-15" d="M255.89,247.05c-4.72-1.27-14.09,2.35-17.42,5s-3.7,6.7-1.13,9.65Z"/><path class="cls-16" d="M255.84,247c1.6,3.71-3,11.11-6.31,13.73a11.61,11.61,0,0,1-12.24.89Z"/><path class="cls-15" d="M252.58,266.81c-3.87-1-11.58,1.94-14.31,4.1a5.28,5.28,0,0,0-.93,7.93Z"/><path class="cls-16" d="M252.54,266.79c1.33,3-2.44,9.13-5.18,11.29a9.6,9.6,0,0,1-10.07.73Z"/><path class="cls-15" d="M216.31,212.71c4.72-1.27,14.09,2.35,17.42,5s3.7,6.69,1.13,9.64Z"/><path class="cls-16" d="M216.36,212.67c-1.6,3.71,3,11.1,6.31,13.73a11.61,11.61,0,0,0,12.24.89Z"/><path class="cls-15" d="M216.31,229.88c4.72-1.27,14.09,2.35,17.42,5s3.7,6.69,1.13,9.64Z"/><path class="cls-16" d="M216.36,229.84c-1.6,3.72,3,11.1,6.31,13.73a11.61,11.61,0,0,0,12.24.89Z"/><path class="cls-15" d="M216.31,247.05c4.72-1.27,14.09,2.35,17.42,5s3.7,6.7,1.13,9.65Z"/><path class="cls-16" d="M216.36,247c-1.6,3.71,3,11.11,6.31,13.73a11.61,11.61,0,0,0,12.24.89Z"/><path class="cls-15" d="M219.61,266.81c3.88-1,11.59,1.94,14.32,4.1a5.27,5.27,0,0,1,.93,7.93Z"/><path class="cls-16" d="M234.58,278.29a9.11,9.11,0,0,1-9.62-.7c-2.62-2.08-6.22-7.91-5-10.85Z"/><path class="cls-15" d="M278.67,262.35a1,1,0,0,1-1.07.85h0a1,1,0,0,1-1.08-.85v-72.5a1,1,0,0,1,1.08-.85h0a1,1,0,0,1,1.07.85Z"/><ellipse class="cls-15" cx="277.6" cy="264.73" rx="4.23" ry="3.34"/><path class="cls-15" d="M277.64,170.54c-4.47,1.73-7.86,9.51-7.86,13.22s3.39,6.8,7.86,7.45Z"/><path class="cls-16" d="M277.56,170.54c4.47,1.73,7.85,9.51,7.85,13.22s-3.38,6.8-7.85,7.45Z"/><path class="cls-15" d="M297.39,193.72c-4.72-1.27-14.09,2.35-17.42,5s-3.7,6.69-1.13,9.64Z"/><path class="cls-16" d="M297.34,193.68c1.6,3.72-3,11.11-6.31,13.73a11.61,11.61,0,0,1-12.24.89Z"/><path class="cls-15" d="M297.39,210.89c-4.72-1.27-14.09,2.35-17.42,5s-3.7,6.69-1.13,9.64Z"/><path class="cls-16" d="M297.34,210.85c1.6,3.72-3,11.11-6.31,13.73a11.61,11.61,0,0,1-12.24.89Z"/><path class="cls-15" d="M297.39,228.06c-4.72-1.27-14.09,2.35-17.42,5s-3.7,6.7-1.13,9.65Z"/><path class="cls-16" d="M297.34,228c1.6,3.72-3,11.11-6.31,13.73a11.61,11.61,0,0,1-12.24.89Z"/><path class="cls-15" d="M294.08,247.83c-3.87-1-11.58,1.93-14.31,4.09a5.29,5.29,0,0,0-.94,7.93Z"/><path class="cls-16" d="M294,247.8c1.32,3-2.45,9.13-5.19,11.29a9.58,9.58,0,0,1-10.06.73Z"/><path class="cls-15" d="M257.81,193.72c4.71-1.27,14.08,2.35,17.42,5s3.7,6.69,1.13,9.64Z"/><path class="cls-16" d="M257.86,193.68c-1.61,3.72,3,11.11,6.31,13.73a11.61,11.61,0,0,0,12.24.89Z"/><path class="cls-15" d="M257.81,210.89c4.71-1.27,14.08,2.35,17.42,5s3.7,6.69,1.13,9.64Z"/><path class="cls-16" d="M257.86,210.85c-1.61,3.72,3,11.11,6.31,13.73a11.61,11.61,0,0,0,12.24.89Z"/><path class="cls-15" d="M257.81,228.06c4.71-1.27,14.08,2.35,17.42,5s3.7,6.7,1.13,9.65Z"/><path class="cls-16" d="M257.86,228c-1.61,3.72,3,11.11,6.31,13.73a11.61,11.61,0,0,0,12.24.89Z"/><path class="cls-15" d="M261.11,247.83c3.88-1,11.59,1.93,14.32,4.09s3.05,5.5.93,7.93Z"/><path class="cls-16" d="M276.07,259.3a9.09,9.09,0,0,1-9.61-.7c-2.62-2.07-6.22-7.91-5-10.84Z"/><path class="cls-16" d="M179.13,196.14h0a6.53,6.53,0,0,0,7.87-.71c2.14-2,5.07-7.65,4.08-10.54l0,0h0v0l0,0c-3.07-.93-9.06,1.83-11.2,3.85a6,6,0,0,0-.83,1v-7s.05.09.08.14h0a0,0,0,0,1,0,0h0a6.53,6.53,0,0,0,7.87-.71c2.14-2,5.07-7.66,4.08-10.54l0,0h0a0,0,0,0,1,0,0l0,0c-3.07-.93-9.06,1.84-11.2,3.85a6,6,0,0,0-.83,1v-7a5.88,5.88,0,0,0,4.35-5.56c0-2.84-2.16-8.78-5-10.16v0h0v0c-2.87,1.38-5,7.32-5,10.16a5.89,5.89,0,0,0,4.36,5.56v7a6,6,0,0,0-.84-1c-2.14-2-8.14-4.78-11.2-3.85l0,0v0h0l0,0c-1,2.88,1.95,8.52,4.09,10.54a6.51,6.51,0,0,0,7.86.71h0a0,0,0,0,0,0,0h0l.08-.14v7a5.51,5.51,0,0,0-.83-1c-2.14-2-8.14-4.78-11.2-3.85l0,0v0h0l0,0c-1,2.87,1.95,8.51,4.09,10.53a6.51,6.51,0,0,0,7.86.71h0l.08-.14v7a5.19,5.19,0,0,0-.83-1c-2.14-2-8.14-4.78-11.2-3.85l0,0v0h0l0,0c-1,2.88,1.95,8.52,4.09,10.53a6.5,6.5,0,0,0,7.86.72h0l0,0h0a.67.67,0,0,1,.09-.14v8.15a4.77,4.77,0,0,0-.71-.86c-1.76-1.65-6.69-3.92-9.2-3.16l0,0v0h0l0,0c-.81,2.36,1.6,7,3.36,8.66a5.34,5.34,0,0,0,6.46.58h0l0,0h0l.08-.15v1.46a2.61,2.61,0,0,0-2,2.48,2.74,2.74,0,0,0,5.47,0,2.6,2.6,0,0,0-2-2.48v-1.45l.08.14h0l0,0h0a5.34,5.34,0,0,0,6.47-.58c1.76-1.66,4.17-6.3,3.36-8.66l0,0h0v0l0,0c-2.51-.76-7.44,1.51-9.2,3.16a4.63,4.63,0,0,0-.7.86v-8.15l.08.13h0v0h0a6.5,6.5,0,0,0,7.86-.72c2.14-2,5.08-7.65,4.09-10.53l0,0h0v0l0,0c-3.07-.93-9.06,1.83-11.2,3.85a5.51,5.51,0,0,0-.83,1v-7l.08.14h0Z"/><path class="cls-16" d="M245.72,193.55h0a6.53,6.53,0,0,0,7.87-.71c2.14-2,5.07-7.65,4.08-10.53l0,0h0v0l0,0c-3.06-.93-9.06,1.83-11.2,3.85a6.48,6.48,0,0,0-.83,1v-7l.08.14h0l0,0,0,0h0a6.53,6.53,0,0,0,7.87-.71c2.14-2,5.07-7.66,4.08-10.53l0,0h0v0l0,0c-3.06-.92-9.06,1.84-11.2,3.85a6.48,6.48,0,0,0-.83,1v-7a5.88,5.88,0,0,0,4.35-5.55c0-2.85-2.16-8.79-5-10.17v0h-.05v0c-2.87,1.38-5,7.32-5,10.17a5.89,5.89,0,0,0,4.36,5.55v7a6,6,0,0,0-.84-1c-2.14-2-8.13-4.77-11.19-3.85l0,0v0h0l0,0c-1,2.87,2,8.51,4.09,10.53a6.51,6.51,0,0,0,7.86.71h0l0,0h0a1.1,1.1,0,0,1,.09-.14v7a6,6,0,0,0-.84-1c-2.14-2-8.13-4.78-11.19-3.85l0,0v0h0l0,0c-1,2.87,2,8.51,4.09,10.53a6.51,6.51,0,0,0,7.86.71h0v0h0a1.1,1.1,0,0,1,.09-.14v7a6,6,0,0,0-.84-1c-2.14-2-8.13-4.78-11.19-3.85l0,0v0h0l0,0c-1,2.88,2,8.52,4.09,10.53a6.5,6.5,0,0,0,7.86.72h0l0,0h0a.67.67,0,0,1,.09-.14v8.15a5.14,5.14,0,0,0-.71-.86c-1.76-1.65-6.68-3.92-9.2-3.16l0,0v0h0l0,0c-.81,2.36,1.6,7,3.36,8.66a5.37,5.37,0,0,0,6.47.59h0l0,0h0l.08-.15v1.46a2.61,2.61,0,0,0-2,2.48,2.74,2.74,0,0,0,5.47,0,2.62,2.62,0,0,0-2-2.48v-1.45l.08.14h0v0h0a5.34,5.34,0,0,0,6.46-.59c1.77-1.66,4.18-6.3,3.36-8.66l0,0h0v0l0,0c-2.52-.76-7.45,1.51-9.2,3.16a4.7,4.7,0,0,0-.71.86v-8.15l.08.13h0l0,0h0a6.51,6.51,0,0,0,7.87-.72c2.14-2,5.07-7.65,4.08-10.53l0,0h0v0l0,0c-3.06-.93-9.06,1.83-11.2,3.85a6.48,6.48,0,0,0-.83,1v-7s.05.09.08.14h0Z"/><line class="cls-17" x1="179.2" y1="244.31" x2="179.2" y2="202.17"/><path class="cls-18" d="M180,171.89a9.43,9.43,0,0,0-1,2.16,12.18,12.18,0,0,0-.62,3.26,5.4,5.4,0,0,0,.77,3.48,1.73,1.73,0,0,0,.67.54.76.76,0,0,0,.43.1.61.61,0,0,0,.35-.07,1.14,1.14,0,0,0,.52-.69,2.29,2.29,0,0,0,0-.77,2.86,2.86,0,0,0-1.16-2.62,6.05,6.05,0,0,1-.8-.93,3,3,0,0,1,0-1.58,7.83,7.83,0,0,1,.46-1.49,7.51,7.51,0,0,0,.47-1.33Q180.16,171.7,180,171.89Z"/><path class="cls-18" d="M179.19,202.88a3.44,3.44,0,0,0-1-1.57,4.88,4.88,0,0,0-1.58-1l-.35-.07a1,1,0,0,1-.65-.3c-.86-.79-1.3-2.27-1.44-4.91l0-.28.15.54a11.11,11.11,0,0,0,.86,2.18,7.28,7.28,0,0,0,2.61,3.09,1.6,1.6,0,0,0,.81.17c.41,0,.51,0,.6-.22s.06-.16.06-.51a1.69,1.69,0,0,0-.08-.65,3.75,3.75,0,0,0-.92-1.46,3.63,3.63,0,0,0-1.35-.92,3.5,3.5,0,0,0-.81-.26c-.11,0-.16,0-.34-.21a3.7,3.7,0,0,1-.38-.42,7.46,7.46,0,0,1-.94-1.84,17.93,17.93,0,0,1-.26-2.55c0-.49,0-.63.06-.43l.24.79a10.55,10.55,0,0,0,1,2.49,7.23,7.23,0,0,0,1.39,1.84,2.4,2.4,0,0,0,1.83.84c.44,0,.55-.13.57-.57a2.42,2.42,0,0,0-.38-1.4,4.23,4.23,0,0,0-.87-1.05,3.81,3.81,0,0,0-1.66-.93c-.51-.13-.56-.17-1-.76a5.62,5.62,0,0,1-1.16-3.5,13,13,0,0,1,0-1.37s.08.24.17.51a10.59,10.59,0,0,0,2.08,4.24,3.61,3.61,0,0,0,1.59,1.23,1.47,1.47,0,0,0,.54.06c.3,0,.37,0,.47,0s.22-.18.22-.63a2,2,0,0,0-.23-1,4.27,4.27,0,0,0-1-1.33,4,4,0,0,0-1.65-.9c-.51-.13-.57-.18-1.11-.93a3.63,3.63,0,0,1-.73-1.42,12.15,12.15,0,0,1-.31-2.81l0-.5.06.18.24.78a13.79,13.79,0,0,0,1,2.55,6.51,6.51,0,0,0,2.13,2.35,1.77,1.77,0,0,0,1,.22c.5,0,.53,0,.61-.22a2.27,2.27,0,0,0-.25-1.66,4.48,4.48,0,0,0-2.69-2.06,1.3,1.3,0,0,1-.32-.11,5.19,5.19,0,0,1-1.09-1.32,6,6,0,0,1-.6-2.36c0-.31-.09-1.52-.09-1.75v-.13l.05.18A14.56,14.56,0,0,0,175.5,184a7.73,7.73,0,0,0,1.24,1.66,4.2,4.2,0,0,0,1.27.93c.55.24,1,.18,1.17-.17.06-.11.06-.15.06-.49a1.55,1.55,0,0,0-.08-.62,3.64,3.64,0,0,0-.6-1.09,7.38,7.38,0,0,0-1-1,3.07,3.07,0,0,0-1.32-.62,1,1,0,0,1-.27-.08,3.07,3.07,0,0,1-.65-.72c-.81-1.08-1.05-2-1.12-4.18a2.26,2.26,0,0,1,0-.6,7.18,7.18,0,0,1,.34,1,9.66,9.66,0,0,0,2,3.9,3.52,3.52,0,0,0,1.88,1.24.62.62,0,0,0,.36,0c.35-.09.48-.3.48-.75a2.15,2.15,0,0,0-.16-.84,3.78,3.78,0,0,0-1.09-1.48,3.68,3.68,0,0,0-1.82-1,.87.87,0,0,1-.58-.36,4.59,4.59,0,0,1-1-1.58,9.13,9.13,0,0,1-.46-2.94c0-.81,0-1-.09-1.06s0,0-.05.09a11.22,11.22,0,0,0,0,2.63,7.6,7.6,0,0,1,0,1.72,7,7,0,0,0,0,1.72,7.77,7.77,0,0,1,0,1.81,7.1,7.1,0,0,0,0,1.73,7.28,7.28,0,0,1,0,1.75,7.55,7.55,0,0,0,0,1.78,7.3,7.3,0,0,1,0,1.75,7.46,7.46,0,0,0,0,1.77,7,7,0,0,1,0,1.71,7.09,7.09,0,0,0,0,1.66,9.79,9.79,0,0,1,0,1.11,22.71,22.71,0,0,0,.26,3.39,5.34,5.34,0,0,0,.31,1.54c.42,1.2,1.59,2,2.24,2.82"/><path class="cls-18" d="M182.07,173.41c0,.07,0,.12.1.68a6.38,6.38,0,0,1,.23,1.52,9.57,9.57,0,0,1-.41,2.94c-.18.67-.18.65,0,.65s.28-.07.44-.45a11.47,11.47,0,0,0,.49-2.7,7.66,7.66,0,0,0-.4-2.36,1.07,1.07,0,0,0-.09-.3s-.09,0-.2,0S182.09,173.37,182.07,173.41Z"/><path class="cls-18" d="M176.54,173.66c-.06,0-.09.17-.25.85a6.2,6.2,0,0,0-.28,1.92,5.11,5.11,0,0,0,.05.89,4.75,4.75,0,0,0,.24,1,.39.39,0,0,0,.37.08c.17,0,.17,0,.09-.49a9.82,9.82,0,0,1-.17-2.37,4.52,4.52,0,0,1,.28-1.35,4.25,4.25,0,0,0,.15-.45.22.22,0,0,0-.06-.1A.45.45,0,0,0,176.54,173.66Z"/><path class="cls-18" d="M184.68,176c0,.07-.06.37-.09.67a6.62,6.62,0,0,1-1.13,3.3l-.5.89-.3,0a2.94,2.94,0,0,0-.85.22,4.56,4.56,0,0,0-2.05,1.79,1.72,1.72,0,0,0-.27,1c0,.67,0,.82.26.92a1.91,1.91,0,0,0,1.19-.13,7,7,0,0,0,2.5-2.89,9.48,9.48,0,0,0,1.22-3.67,7.33,7.33,0,0,0,.07-2.26S184.7,175.9,184.68,176Z"/><path class="cls-18" d="M184.72,179.39a2.84,2.84,0,0,0-.13.76,7,7,0,0,1-.38,1.84,5.37,5.37,0,0,1-1.47,2.3h0a3.58,3.58,0,0,0-2,1,4,4,0,0,0-1.25,1.79c-.14.45-.06,1.05.15,1.17a1.23,1.23,0,0,0,.49,0,1.57,1.57,0,0,0,.62-.07,2,2,0,0,0,.78-.45,10.8,10.8,0,0,0,2.4-3.51,10.32,10.32,0,0,0,.8-3.25,13.28,13.28,0,0,0,0-1.61S184.73,179.38,184.72,179.39Z"/><path class="cls-18" d="M184.67,183a3.17,3.17,0,0,0,0,.47,6,6,0,0,1-.26,1.5,7.47,7.47,0,0,1-1.05,2.24c-.29.44-.37.51-.69.6a4.17,4.17,0,0,0-1.73.87,3.28,3.28,0,0,0-1.45,2.52.64.64,0,0,0,.07.39c.09.17.18.2.6.2a1.76,1.76,0,0,0,1.42-.49,10,10,0,0,0,3.14-6.38,7.62,7.62,0,0,0,.12-1.9C184.77,182.91,184.72,182.9,184.67,183Z"/><path class="cls-18" d="M184.65,186.57a1.39,1.39,0,0,0,0,.3,8.64,8.64,0,0,1-.46,2.26,7.25,7.25,0,0,1-1.23,2,1.15,1.15,0,0,1-.34.13,3.38,3.38,0,0,0-1.09.44,4.73,4.73,0,0,0-2,2.24,1.69,1.69,0,0,0,.06,1.22l.07.07h.45a1.77,1.77,0,0,0,1.42-.45,9.81,9.81,0,0,0,1.92-2.61,7.29,7.29,0,0,0,.94-2.22,12.34,12.34,0,0,0,.41-3.47C184.74,186.41,184.68,186.42,184.65,186.57Z"/><path class="cls-18" d="M184.71,189.86a3.47,3.47,0,0,0-.13.84,6.79,6.79,0,0,1-.62,2.35,9.28,9.28,0,0,1-1,1.6c-.09.09-.18.12-.47.18a4.58,4.58,0,0,0-2.73,2,2.77,2.77,0,0,0-.36,1.39c0,.29.08.41.25.49a1.81,1.81,0,0,0,1.24-.08,6.87,6.87,0,0,0,2.53-2.94,9.26,9.26,0,0,0,1.16-3.27,12,12,0,0,0,.18-1.9C184.8,189.91,184.78,189.69,184.71,189.86Z"/><path class="cls-18" d="M180.71,202.23c.76-.26,1.54-1.07,2.47-2.55a9.88,9.88,0,0,0,1.5-4.16,12.74,12.74,0,0,0,.09-2.15c0-.08-.09,0-.12.09s0,.31,0,.52a7,7,0,0,1-1.36,3.78c-.35.56-.27.5-.72.55a2.37,2.37,0,0,0-1.56.77,6.07,6.07,0,0,0-1.36,1.68,2.74,2.74,0,0,0-.17,1.11"/><path class="cls-18" d="M179.51,203.26c1.31-.81.3.36,3-2.82a12.2,12.2,0,0,0,1.15-2c0-.07,0-.09-.07,0a6.55,6.55,0,0,0-.5.74,7,7,0,0,1-2.46,2.43c-.77.52-.88.56-1.14.45"/><line class="cls-17" x1="152.85" y1="256.59" x2="152.85" y2="214.45"/><path class="cls-18" d="M153.63,184.17a9,9,0,0,0-1,2.16,11.8,11.8,0,0,0-.62,3.26,5.34,5.34,0,0,0,.76,3.48,1.69,1.69,0,0,0,.68.54.84.84,0,0,0,.43.09.56.56,0,0,0,.34-.07,1.07,1.07,0,0,0,.53-.68,2.73,2.73,0,0,0,0-.77,2.91,2.91,0,0,0-1.16-2.62,6.58,6.58,0,0,1-.8-.93,2.9,2.9,0,0,1,0-1.58,6.6,6.6,0,0,1,.46-1.49,7,7,0,0,0,.46-1.33C153.79,184.06,153.75,184,153.63,184.17Z"/><path class="cls-18" d="M152.84,215.16a3.46,3.46,0,0,0-1-1.57,4.77,4.77,0,0,0-1.58-1l-.34-.07a1,1,0,0,1-.65-.3c-.87-.79-1.3-2.27-1.45-4.91V207l.15.54a11.11,11.11,0,0,0,.86,2.18,7.17,7.17,0,0,0,2.6,3.08,1.52,1.52,0,0,0,.81.17c.41,0,.52,0,.61-.21s.06-.16.06-.51a1.91,1.91,0,0,0-.08-.65,3.78,3.78,0,0,0-.93-1.46,3.63,3.63,0,0,0-1.35-.92,2.91,2.91,0,0,0-.8-.26c-.11,0-.16,0-.34-.21a3.16,3.16,0,0,1-.39-.43,7.19,7.19,0,0,1-.93-1.83,17.93,17.93,0,0,1-.26-2.55c0-.49,0-.63.06-.43l.24.79a11,11,0,0,0,1,2.49,7.68,7.68,0,0,0,1.4,1.84,2.38,2.38,0,0,0,1.83.84c.44,0,.55-.13.57-.57a2.49,2.49,0,0,0-.38-1.4,4.32,4.32,0,0,0-.88-1.06,3.78,3.78,0,0,0-1.66-.92c-.5-.13-.55-.17-1-.77a5.64,5.64,0,0,1-1.17-3.49c0-.55-.06-1.4,0-1.37a5.24,5.24,0,0,1,.17.51,10.74,10.74,0,0,0,2.08,4.23,3.64,3.64,0,0,0,1.6,1.24,1.41,1.41,0,0,0,.53.06c.31,0,.38,0,.47,0s.23-.18.23-.63a2,2,0,0,0-.24-1,4.13,4.13,0,0,0-1-1.33A3.78,3.78,0,0,0,150,202c-.5-.13-.56-.18-1.11-.93a3.74,3.74,0,0,1-.73-1.43,12.55,12.55,0,0,1-.31-2.8v-.5l.06.18.24.77a13,13,0,0,0,1,2.56,6.59,6.59,0,0,0,2.13,2.35,1.73,1.73,0,0,0,1,.22c.51,0,.53,0,.62-.22a2.34,2.34,0,0,0-.25-1.67,4.53,4.53,0,0,0-2.69-2l-.33-.11a5.72,5.72,0,0,1-1.09-1.33,6.23,6.23,0,0,1-.6-2.35c0-.31-.09-1.53-.08-1.75v-.13l.06.18a14.76,14.76,0,0,0,1.29,3.34,6.86,6.86,0,0,0,1.24,1.65,4.09,4.09,0,0,0,1.27.94c.55.24,1,.18,1.16-.17.06-.11.07-.16.07-.49a1.55,1.55,0,0,0-.08-.62,3.85,3.85,0,0,0-.61-1.1,6.84,6.84,0,0,0-1-1,2.88,2.88,0,0,0-1.31-.62,1,1,0,0,1-.27-.08,3.06,3.06,0,0,1-.65-.72c-.81-1.08-1.06-2-1.12-4.18a2.26,2.26,0,0,1,0-.6,6.17,6.17,0,0,1,.33,1,9.76,9.76,0,0,0,2,3.91,3.51,3.51,0,0,0,1.89,1.24.62.62,0,0,0,.36,0c.35-.09.48-.3.48-.75a2.17,2.17,0,0,0-.17-.84,3.67,3.67,0,0,0-1.08-1.48,3.82,3.82,0,0,0-1.83-1,.94.94,0,0,1-.58-.35,4.82,4.82,0,0,1-1-1.58,8.9,8.9,0,0,1-.46-2.94,3.43,3.43,0,0,0-.09-1.06s0,0-.05.08a11.32,11.32,0,0,0,0,2.64,7.51,7.51,0,0,1,0,1.71,7.09,7.09,0,0,0,0,1.73,7.77,7.77,0,0,1,0,1.81,7,7,0,0,0,0,1.72,7.37,7.37,0,0,1,0,1.76,7.55,7.55,0,0,0,0,1.78,7.3,7.3,0,0,1,0,1.75,6.54,6.54,0,0,0,0,1.77,7,7,0,0,1,0,1.71,7.77,7.77,0,0,0,0,1.66,9.68,9.68,0,0,1,0,1.11,24.19,24.19,0,0,0,.26,3.39,5.27,5.27,0,0,0,.32,1.54c.42,1.2,1.58,2,2.24,2.82"/><path class="cls-18" d="M155.71,185.68c0,.08,0,.13.1.69a5.9,5.9,0,0,1,.23,1.51,9.54,9.54,0,0,1-.4,3c-.18.67-.19.65,0,.65s.29-.08.45-.45a11,11,0,0,0,.48-2.7,7.5,7.5,0,0,0-.39-2.36,1,1,0,0,0-.09-.3.43.43,0,0,0-.21,0C155.77,185.64,155.74,185.64,155.71,185.68Z"/><path class="cls-18" d="M150.18,185.94c-.05,0-.09.16-.24.85a6.2,6.2,0,0,0-.28,1.92,5.11,5.11,0,0,0,.05.89,3.83,3.83,0,0,0,.24,1,.39.39,0,0,0,.36.08c.17,0,.18,0,.1-.49a9.82,9.82,0,0,1-.17-2.37,4.52,4.52,0,0,1,.28-1.35,3.32,3.32,0,0,0,.14-.45.16.16,0,0,0,0-.1A.47.47,0,0,0,150.18,185.94Z"/><path class="cls-18" d="M158.32,188.24c0,.06,0,.36-.09.67a6.4,6.4,0,0,1-1.13,3.29l-.49.89-.31,0a2.78,2.78,0,0,0-.84.23,4.51,4.51,0,0,0-2.05,1.79,1.65,1.65,0,0,0-.27,1c0,.66,0,.82.25.92a1.94,1.94,0,0,0,1.2-.13,7,7,0,0,0,2.5-2.89,9.7,9.7,0,0,0,1.22-3.67,7.69,7.69,0,0,0,.07-2.26A.24.24,0,0,0,158.32,188.24Z"/><path class="cls-18" d="M158.37,191.67a2.84,2.84,0,0,0-.13.76,7.08,7.08,0,0,1-.39,1.84,5.26,5.26,0,0,1-1.46,2.29h0a3.63,3.63,0,0,0-2,1,4.1,4.1,0,0,0-1.25,1.79c-.13.45,0,1,.15,1.17a1.31,1.31,0,0,0,.49,0,1.57,1.57,0,0,0,.62-.07,2.16,2.16,0,0,0,.78-.45,11,11,0,0,0,2.41-3.51,10.61,10.61,0,0,0,.79-3.25,13.78,13.78,0,0,0,0-1.61S158.38,191.66,158.37,191.67Z"/><path class="cls-18" d="M158.32,195.24a3,3,0,0,0-.06.48,6,6,0,0,1-.25,1.5,8,8,0,0,1-1,2.24c-.29.44-.37.51-.7.6a4.17,4.17,0,0,0-1.73.87,3.25,3.25,0,0,0-1.44,2.52.7.7,0,0,0,.06.38c.1.17.18.21.61.21a1.8,1.8,0,0,0,1.42-.49,10,10,0,0,0,3.14-6.38,7.64,7.64,0,0,0,.12-1.9C158.41,195.18,158.36,195.17,158.32,195.24Z"/><path class="cls-18" d="M158.3,198.85a1.32,1.32,0,0,0,0,.3,8.72,8.72,0,0,1-.46,2.26,7,7,0,0,1-1.24,2,1.24,1.24,0,0,1-.33.13,3.41,3.41,0,0,0-1.1.43,4.72,4.72,0,0,0-2,2.25,1.69,1.69,0,0,0,.06,1.22l.06.07h.46a1.74,1.74,0,0,0,1.41-.45,9.59,9.59,0,0,0,1.93-2.61,7.34,7.34,0,0,0,.93-2.22,11.62,11.62,0,0,0,.41-3.47C158.39,198.68,158.33,198.7,158.3,198.85Z"/><path class="cls-18" d="M158.35,202.13a4.46,4.46,0,0,0-.13.85,6.84,6.84,0,0,1-.61,2.35,10.07,10.07,0,0,1-1,1.59c-.09.09-.18.13-.47.18a4.65,4.65,0,0,0-2.74,2,2.75,2.75,0,0,0-.35,1.38c0,.3.07.41.24.5a1.76,1.76,0,0,0,1.24-.09A6.77,6.77,0,0,0,157.1,208a9.25,9.25,0,0,0,1.15-3.27,12,12,0,0,0,.19-1.9C158.45,202.19,158.42,202,158.35,202.13Z"/><path class="cls-18" d="M154.35,214.5c.76-.25,1.54-1.06,2.48-2.54a9.86,9.86,0,0,0,1.49-4.17,12.91,12.91,0,0,0,.1-2.14c0-.09-.1,0-.12.09a3.75,3.75,0,0,0-.05.52,6.88,6.88,0,0,1-1.36,3.77c-.34.57-.26.51-.72.56a2.37,2.37,0,0,0-1.55.77,5.72,5.72,0,0,0-1.36,1.68,2.58,2.58,0,0,0-.17,1.11"/><path class="cls-18" d="M153.16,215.54c1.31-.81.3.36,2.94-2.82a11.76,11.76,0,0,0,1.16-2c0-.07,0-.09-.07-.05a6.55,6.55,0,0,0-.5.74,7,7,0,0,1-2.47,2.43c-.76.51-.88.56-1.13.44"/><line class="cls-17" x1="206.87" y1="228.77" x2="206.87" y2="186.63"/><path class="cls-18" d="M207.65,156.35a8.76,8.76,0,0,0-1,2.17,11.8,11.8,0,0,0-.62,3.26,5.36,5.36,0,0,0,.76,3.48,1.78,1.78,0,0,0,.68.54.82.82,0,0,0,.42.09.57.57,0,0,0,.35-.07,1.16,1.16,0,0,0,.53-.68,2.77,2.77,0,0,0,.05-.78,2.89,2.89,0,0,0-1.16-2.61,6,6,0,0,1-.8-.94,2.89,2.89,0,0,1,0-1.58,6.54,6.54,0,0,1,.46-1.48,8.69,8.69,0,0,0,.46-1.33C207.81,156.24,207.77,156.22,207.65,156.35Z"/><path class="cls-18" d="M206.85,187.35a3.36,3.36,0,0,0-1-1.57,4.62,4.62,0,0,0-1.58-1l-.34-.07a1.08,1.08,0,0,1-.66-.31c-.86-.79-1.29-2.26-1.44-4.9v-.28l.15.53a10.61,10.61,0,0,0,.86,2.19,7.22,7.22,0,0,0,2.6,3.08,1.62,1.62,0,0,0,.81.17c.41,0,.52,0,.61-.21s.06-.16.06-.51a2.2,2.2,0,0,0-.08-.65,3.88,3.88,0,0,0-.93-1.47,3.75,3.75,0,0,0-1.35-.92,3.45,3.45,0,0,0-.8-.26c-.12,0-.16,0-.35-.21a5,5,0,0,1-.38-.42,7.53,7.53,0,0,1-.93-1.83,16.71,16.71,0,0,1-.26-2.56c0-.49,0-.63.06-.43s.12.42.24.79a10.82,10.82,0,0,0,1,2.49,7.49,7.49,0,0,0,1.4,1.84,2.43,2.43,0,0,0,1.83.85c.44,0,.55-.14.57-.57a2.47,2.47,0,0,0-.38-1.4,4.14,4.14,0,0,0-.88-1.06,3.8,3.8,0,0,0-1.66-.93c-.5-.13-.55-.17-1-.76a5.62,5.62,0,0,1-1.17-3.49c0-.55-.06-1.41,0-1.38s.09.25.17.51a10.72,10.72,0,0,0,2.08,4.24,3.76,3.76,0,0,0,1.59,1.24,1.5,1.5,0,0,0,.54.06,1.06,1.06,0,0,0,.47-.05c.19-.09.23-.18.23-.63a1.94,1.94,0,0,0-.24-1,4.06,4.06,0,0,0-1-1.34,3.87,3.87,0,0,0-1.65-.89c-.5-.13-.56-.19-1.11-.93a3.81,3.81,0,0,1-.73-1.43,12.65,12.65,0,0,1-.31-2.81v-.49l.06.17.24.78a12.62,12.62,0,0,0,1,2.55,6.34,6.34,0,0,0,2.13,2.35,1.71,1.71,0,0,0,1,.22c.51,0,.53,0,.62-.22a2.28,2.28,0,0,0-.26-1.66,4.48,4.48,0,0,0-2.68-2,1.36,1.36,0,0,1-.33-.12,5.43,5.43,0,0,1-1.09-1.32,6.11,6.11,0,0,1-.6-2.36c0-.31-.09-1.52-.08-1.75V165l.06.18a14.56,14.56,0,0,0,1.29,3.34,6.92,6.92,0,0,0,1.24,1.66,4,4,0,0,0,1.26.93c.56.24,1,.18,1.17-.16.06-.12.07-.16.07-.5a1.61,1.61,0,0,0-.08-.62,3.67,3.67,0,0,0-.61-1.09,6.42,6.42,0,0,0-1-1,3.11,3.11,0,0,0-1.31-.62.66.66,0,0,1-.28-.08,3.21,3.21,0,0,1-.64-.71c-.81-1.09-1.06-2-1.12-4.19a2.31,2.31,0,0,1,0-.6,6.68,6.68,0,0,1,.33,1,9.83,9.83,0,0,0,2,3.91,3.63,3.63,0,0,0,1.89,1.24.86.86,0,0,0,.36,0c.34-.09.48-.31.48-.75a2.14,2.14,0,0,0-.17-.84,3.64,3.64,0,0,0-1.09-1.48,3.75,3.75,0,0,0-1.82-1,.9.9,0,0,1-.58-.36,4.72,4.72,0,0,1-1-1.58,8.81,8.81,0,0,1-.46-2.94,3.51,3.51,0,0,0-.09-1.06s0,0,0,.09a11.32,11.32,0,0,0-.05,2.64,7.51,7.51,0,0,1,0,1.71,7.1,7.1,0,0,0,0,1.73,7.68,7.68,0,0,1,0,1.8,7.1,7.1,0,0,0,0,1.73,7.28,7.28,0,0,1,0,1.75,7.54,7.54,0,0,0,0,1.78,7.39,7.39,0,0,1,0,1.76,6.47,6.47,0,0,0,0,1.76,7,7,0,0,1,0,1.72,7.68,7.68,0,0,0,0,1.65,9.89,9.89,0,0,1,0,1.12,24.28,24.28,0,0,0,.26,3.39,5.27,5.27,0,0,0,.32,1.54c.42,1.19,1.58,2,2.24,2.81"/><path class="cls-18" d="M209.73,157.87c0,.08,0,.12.1.69a5.78,5.78,0,0,1,.23,1.51,9.24,9.24,0,0,1-.41,2.94c-.17.68-.18.66,0,.66s.29-.08.45-.46a10.93,10.93,0,0,0,.48-2.7,7.53,7.53,0,0,0-.39-2.36,1.07,1.07,0,0,0-.09-.3.43.43,0,0,0-.21,0C209.79,157.82,209.76,157.83,209.73,157.87Z"/><path class="cls-18" d="M204.2,158.12s-.09.17-.24.85a6.33,6.33,0,0,0-.29,1.93,4.87,4.87,0,0,0,.06.88,3.72,3.72,0,0,0,.24,1,.39.39,0,0,0,.36.09c.17,0,.18,0,.1-.49a9.93,9.93,0,0,1-.17-2.38,4.52,4.52,0,0,1,.28-1.34,3.86,3.86,0,0,0,.14-.45.12.12,0,0,0-.06-.1A.48.48,0,0,0,204.2,158.12Z"/><path class="cls-18" d="M212.34,160.43c0,.06-.06.36-.09.66a6.4,6.4,0,0,1-1.13,3.3l-.5.89-.3,0a2.52,2.52,0,0,0-.84.23,4.53,4.53,0,0,0-2.06,1.79,1.7,1.7,0,0,0-.26,1c0,.66,0,.81.25.91a1.89,1.89,0,0,0,1.19-.12,7,7,0,0,0,2.51-2.9,9.65,9.65,0,0,0,1.22-3.67,7.7,7.7,0,0,0,.07-2.26A.24.24,0,0,0,212.34,160.43Z"/><path class="cls-18" d="M212.39,163.86a2.71,2.71,0,0,0-.13.75,7.16,7.16,0,0,1-.39,1.85,5.48,5.48,0,0,1-1.46,2.29h0a3.66,3.66,0,0,0-2,1,4.08,4.08,0,0,0-1.25,1.78c-.13.46,0,1.05.15,1.17s.15.05.49.05a1.79,1.79,0,0,0,.62-.07,2.05,2.05,0,0,0,.78-.46,10.48,10.48,0,0,0,3.2-6.75,11.6,11.6,0,0,0,0-1.62S212.4,163.85,212.39,163.86Z"/><path class="cls-18" d="M212.34,167.43a2.69,2.69,0,0,0-.06.48,6.11,6.11,0,0,1-.25,1.5,8.13,8.13,0,0,1-1.05,2.24c-.29.44-.37.51-.7.59a4.29,4.29,0,0,0-1.73.87,3.28,3.28,0,0,0-1.44,2.52.72.72,0,0,0,.06.39c.1.17.18.2.61.2a1.79,1.79,0,0,0,1.42-.48,10.09,10.09,0,0,0,3.14-6.38,7.7,7.7,0,0,0,.12-1.91C212.43,167.37,212.38,167.36,212.34,167.43Z"/><path class="cls-18" d="M212.32,171a1.45,1.45,0,0,0,0,.3,8.74,8.74,0,0,1-.45,2.27,7,7,0,0,1-1.24,2,.8.8,0,0,1-.33.13,3.67,3.67,0,0,0-1.1.44,4.66,4.66,0,0,0-2,2.24,1.64,1.64,0,0,0,.06,1.22l.06.08h.46a1.81,1.81,0,0,0,1.41-.45,9.55,9.55,0,0,0,1.92-2.61,7.44,7.44,0,0,0,.94-2.23,11.59,11.59,0,0,0,.41-3.46C212.41,170.87,212.35,170.89,212.32,171Z"/><path class="cls-18" d="M212.37,174.32a4.29,4.29,0,0,0-.13.84,6.78,6.78,0,0,1-.61,2.35,10.24,10.24,0,0,1-1,1.6c-.09.09-.19.12-.47.18a4.64,4.64,0,0,0-2.74,2,2.76,2.76,0,0,0-.35,1.39c0,.3.07.41.24.49a1.81,1.81,0,0,0,1.24-.08,6.81,6.81,0,0,0,2.54-2.94,9.26,9.26,0,0,0,1.15-3.26,12.21,12.21,0,0,0,.18-1.9C212.47,174.38,212.44,174.16,212.37,174.32Z"/><path class="cls-18" d="M208.37,186.69c.76-.26,1.54-1.06,2.48-2.55a9.87,9.87,0,0,0,1.49-4.16,13,13,0,0,0,.1-2.15c0-.08-.1,0-.12.1a3.56,3.56,0,0,0,0,.51,6.9,6.9,0,0,1-1.36,3.78c-.34.56-.26.5-.72.55a2.47,2.47,0,0,0-1.55.77,6,6,0,0,0-1.36,1.68,2.43,2.43,0,0,0-.17,1.11"/><path class="cls-18" d="M207.18,187.72c1.31-.8.3.36,2.94-2.81a12.17,12.17,0,0,0,1.15-2c0-.06,0-.09-.06-.05a6.14,6.14,0,0,0-.5.75,7,7,0,0,1-2.47,2.42c-.76.52-.88.57-1.13.45"/><line class="cls-17" x1="193.9" y1="268.47" x2="193.9" y2="226.34"/><path class="cls-18" d="M194.68,196.06a8.83,8.83,0,0,0-1,2.16,11.8,11.8,0,0,0-.62,3.26,5.4,5.4,0,0,0,.77,3.48,1.66,1.66,0,0,0,.67.54.84.84,0,0,0,.43.09.61.61,0,0,0,.35-.07,1.12,1.12,0,0,0,.52-.68,2.73,2.73,0,0,0,.05-.77,2.91,2.91,0,0,0-1.16-2.62,6.58,6.58,0,0,1-.8-.93,3,3,0,0,1,0-1.58,6.6,6.6,0,0,1,.46-1.49,7.51,7.51,0,0,0,.47-1.33Q194.86,195.86,194.68,196.06Z"/><path class="cls-18" d="M193.89,227.05a3.44,3.44,0,0,0-1-1.57,4.91,4.91,0,0,0-1.59-1l-.34-.07a1,1,0,0,1-.65-.3c-.87-.79-1.3-2.27-1.45-4.91v-.28l.15.54a11.36,11.36,0,0,0,.86,2.18,7.11,7.11,0,0,0,2.61,3.08,1.47,1.47,0,0,0,.8.17c.41,0,.52,0,.61-.21s.06-.16.06-.51a1.91,1.91,0,0,0-.08-.65,3.78,3.78,0,0,0-.93-1.46,3.59,3.59,0,0,0-1.34-.92,3.07,3.07,0,0,0-.81-.26c-.11,0-.16-.05-.34-.21a3.16,3.16,0,0,1-.39-.43,7.35,7.35,0,0,1-.93-1.83,17.93,17.93,0,0,1-.26-2.55c0-.49,0-.64.06-.43s.13.41.24.79a10.55,10.55,0,0,0,1,2.49,7.41,7.41,0,0,0,1.39,1.84,2.42,2.42,0,0,0,1.83.84c.44,0,.55-.13.57-.57a2.4,2.4,0,0,0-.38-1.4,4.1,4.1,0,0,0-.88-1.06,3.8,3.8,0,0,0-1.65-.92c-.51-.13-.56-.17-1-.77a5.64,5.64,0,0,1-1.17-3.49c0-.55-.05-1.41,0-1.37a5.24,5.24,0,0,1,.17.51,10.74,10.74,0,0,0,2.08,4.23,3.64,3.64,0,0,0,1.6,1.24,1.44,1.44,0,0,0,.54.06c.3,0,.37,0,.46-.05s.23-.18.23-.63a2,2,0,0,0-.24-1,4,4,0,0,0-1-1.33,3.73,3.73,0,0,0-1.65-.9c-.5-.13-.56-.18-1.11-.93a3.74,3.74,0,0,1-.73-1.43,12.15,12.15,0,0,1-.3-2.8l0-.5.06.18.24.77a13,13,0,0,0,1,2.56,6.59,6.59,0,0,0,2.13,2.35,1.84,1.84,0,0,0,1,.22c.51,0,.53,0,.62-.22a2.34,2.34,0,0,0-.25-1.67,4.53,4.53,0,0,0-2.69-2.05l-.33-.11a5.72,5.72,0,0,1-1.09-1.33,6.07,6.07,0,0,1-.59-2.35c0-.31-.09-1.53-.09-1.76v-.12l.06.18a14.76,14.76,0,0,0,1.29,3.34,7.13,7.13,0,0,0,1.24,1.65,4.09,4.09,0,0,0,1.27.94c.55.24,1,.18,1.17-.17a1,1,0,0,0,.06-.49,1.55,1.55,0,0,0-.08-.62,3.85,3.85,0,0,0-.61-1.1,6.84,6.84,0,0,0-1-1,2.88,2.88,0,0,0-1.31-.62,1,1,0,0,1-.27-.08A3.06,3.06,0,0,1,190,206c-.81-1.09-1.06-2-1.12-4.18a2.26,2.26,0,0,1,0-.6,6.17,6.17,0,0,1,.33,1,9.76,9.76,0,0,0,2,3.91,3.54,3.54,0,0,0,1.89,1.24.72.72,0,0,0,.36,0c.35-.09.48-.3.48-.75a2.31,2.31,0,0,0-.16-.84,3.71,3.71,0,0,0-1.09-1.48,3.78,3.78,0,0,0-1.83-1,.94.94,0,0,1-.58-.35,4.82,4.82,0,0,1-1-1.58,8.92,8.92,0,0,1-.46-3,3.39,3.39,0,0,0-.09-1s0,0,0,.08a11.32,11.32,0,0,0-.05,2.64,7.51,7.51,0,0,1,0,1.71,7.09,7.09,0,0,0,0,1.73,7.77,7.77,0,0,1,0,1.81,7,7,0,0,0,0,1.72,7.37,7.37,0,0,1,0,1.76,7.55,7.55,0,0,0,0,1.78,7.3,7.3,0,0,1,0,1.75,7.38,7.38,0,0,0,0,1.76,7,7,0,0,1,0,1.72,7.1,7.1,0,0,0,0,1.66c0,.23,0,.58,0,1.11a23.08,23.08,0,0,0,.27,3.39,5,5,0,0,0,.31,1.54c.42,1.2,1.58,2,2.24,2.82"/><path class="cls-18" d="M196.76,197.57c0,.08,0,.13.11.69a6.85,6.85,0,0,1,.23,1.51,9.59,9.59,0,0,1-.41,2.95c-.18.67-.18.65,0,.65s.29-.08.45-.46a10.93,10.93,0,0,0,.48-2.69,7.5,7.5,0,0,0-.39-2.36,1,1,0,0,0-.09-.3.39.39,0,0,0-.21,0C196.83,197.52,196.79,197.53,196.76,197.57Z"/><path class="cls-18" d="M191.23,197.82s-.09.17-.24.86a6.2,6.2,0,0,0-.28,1.92,5.11,5.11,0,0,0,0,.89,4.31,4.31,0,0,0,.24,1,.42.42,0,0,0,.36.08c.17,0,.18-.05.1-.49a9.82,9.82,0,0,1-.17-2.37,4.52,4.52,0,0,1,.28-1.35,3.32,3.32,0,0,0,.14-.45.16.16,0,0,0-.05-.1A.5.5,0,0,0,191.23,197.82Z"/><path class="cls-18" d="M199.38,200.13a6,6,0,0,0-.09.67,6.51,6.51,0,0,1-1.14,3.29l-.49.89-.3,0a2.85,2.85,0,0,0-.85.23,4.51,4.51,0,0,0-2,1.79,1.63,1.63,0,0,0-.27,1c0,.66,0,.82.26.92a1.91,1.91,0,0,0,1.19-.13,7,7,0,0,0,2.5-2.89,9.76,9.76,0,0,0,1.22-3.67,7.69,7.69,0,0,0,.07-2.26A.18.18,0,0,0,199.38,200.13Z"/><path class="cls-18" d="M199.42,203.56a2.84,2.84,0,0,0-.13.76,7.56,7.56,0,0,1-.38,1.84,5.35,5.35,0,0,1-1.47,2.29h0a3.63,3.63,0,0,0-2,1,4.23,4.23,0,0,0-1.25,1.78c-.13.46-.05,1.05.16,1.18a1.2,1.2,0,0,0,.48,0,1.51,1.51,0,0,0,.62-.07,2.16,2.16,0,0,0,.78-.45,11,11,0,0,0,2.41-3.51,10.4,10.4,0,0,0,.79-3.25,11.84,11.84,0,0,0,0-1.61S199.43,203.55,199.42,203.56Z"/><path class="cls-18" d="M199.37,207.13a3,3,0,0,0-.06.48,6,6,0,0,1-.25,1.5,7.72,7.72,0,0,1-1.05,2.24c-.29.44-.37.51-.7.6a4.23,4.23,0,0,0-1.73.87,3.28,3.28,0,0,0-1.44,2.52.7.7,0,0,0,.06.38c.1.17.18.2.61.2a1.79,1.79,0,0,0,1.42-.48,10.09,10.09,0,0,0,3.14-6.38,7.64,7.64,0,0,0,.12-1.9C199.46,207.07,199.41,207.06,199.37,207.13Z"/><path class="cls-18" d="M199.35,210.74a1.32,1.32,0,0,0,0,.3,8.72,8.72,0,0,1-.46,2.26,7,7,0,0,1-1.24,2,.8.8,0,0,1-.33.13,3.51,3.51,0,0,0-1.09.44,4.74,4.74,0,0,0-2,2.25,1.66,1.66,0,0,0,.06,1.21l.07.08h.45a1.77,1.77,0,0,0,1.42-.45,9.81,9.81,0,0,0,1.92-2.61,7.4,7.4,0,0,0,.94-2.22,11.86,11.86,0,0,0,.4-3.47C199.44,210.57,199.38,210.59,199.35,210.74Z"/><path class="cls-18" d="M199.4,214a4.46,4.46,0,0,0-.13.85,6.9,6.9,0,0,1-.61,2.35,10.07,10.07,0,0,1-1,1.59c-.09.09-.18.13-.47.18a4.64,4.64,0,0,0-2.74,2,2.79,2.79,0,0,0-.35,1.39c0,.3.07.41.24.5a1.76,1.76,0,0,0,1.24-.09,6.7,6.7,0,0,0,2.54-2.93,9.53,9.53,0,0,0,1.16-3.27,13.57,13.57,0,0,0,.18-1.9C199.5,214.08,199.47,213.86,199.4,214Z"/><path class="cls-18" d="M195.4,226.39c.76-.26,1.54-1.06,2.48-2.55a9.77,9.77,0,0,0,1.49-4.16,12.91,12.91,0,0,0,.1-2.14c0-.09-.09,0-.12.09a2.76,2.76,0,0,0,0,.52,6.9,6.9,0,0,1-1.37,3.77c-.34.57-.26.51-.71.56a2.41,2.41,0,0,0-1.56.76,6.18,6.18,0,0,0-1.36,1.68,2.62,2.62,0,0,0-.17,1.12"/><path class="cls-18" d="M194.21,227.43c1.31-.81.3.36,2.94-2.82a11.76,11.76,0,0,0,1.16-2c0-.07,0-.09-.07-.06a8.68,8.68,0,0,0-.5.75,7,7,0,0,1-2.47,2.43c-.76.51-.88.56-1.13.44"/><line class="cls-17" x1="222.43" y1="255.53" x2="222.43" y2="213.39"/><path class="cls-18" d="M223.21,183.11a9,9,0,0,0-1,2.16,11.8,11.8,0,0,0-.62,3.26,5.34,5.34,0,0,0,.77,3.48,1.66,1.66,0,0,0,.67.54.76.76,0,0,0,.43.1.56.56,0,0,0,.34-.07,1.12,1.12,0,0,0,.53-.69,2.63,2.63,0,0,0,.05-.77,2.91,2.91,0,0,0-1.16-2.62,6.05,6.05,0,0,1-.8-.93,3,3,0,0,1,0-1.58,6.6,6.6,0,0,1,.46-1.49,7.51,7.51,0,0,0,.47-1.33Q223.39,182.92,223.21,183.11Z"/><path class="cls-18" d="M222.42,214.1a3.43,3.43,0,0,0-1-1.57,4.58,4.58,0,0,0-1.58-1,1.55,1.55,0,0,0-.34-.08,1,1,0,0,1-.65-.3c-.87-.79-1.3-2.27-1.45-4.91v-.27l.15.53a11.11,11.11,0,0,0,.86,2.18,7.27,7.27,0,0,0,2.6,3.09,1.62,1.62,0,0,0,.81.17c.41,0,.52,0,.61-.22s.06-.16.06-.51a1.91,1.91,0,0,0-.08-.65,3.78,3.78,0,0,0-.93-1.46,3.59,3.59,0,0,0-1.34-.92,3.5,3.5,0,0,0-.81-.26c-.11,0-.16,0-.34-.21a3.81,3.81,0,0,1-.39-.42,7.41,7.41,0,0,1-.93-1.84,17.93,17.93,0,0,1-.26-2.55c0-.49,0-.63.06-.43l.24.79a10.55,10.55,0,0,0,1,2.49,7.23,7.23,0,0,0,1.39,1.84,2.43,2.43,0,0,0,1.83.85c.44,0,.55-.14.57-.58a2.49,2.49,0,0,0-.38-1.4,4.28,4.28,0,0,0-.88-1.05,3.7,3.7,0,0,0-1.66-.93c-.5-.13-.55-.17-1-.76a5.69,5.69,0,0,1-1.17-3.5c0-.54-.06-1.4,0-1.37a5.24,5.24,0,0,1,.17.51,10.72,10.72,0,0,0,2.08,4.24,3.68,3.68,0,0,0,1.6,1.23,1.2,1.2,0,0,0,.53.07c.31,0,.38,0,.47-.06s.23-.18.23-.63a2,2,0,0,0-.24-1,4,4,0,0,0-1-1.33,3.83,3.83,0,0,0-1.65-.9c-.5-.13-.56-.18-1.11-.93a3.77,3.77,0,0,1-.73-1.42,12.73,12.73,0,0,1-.31-2.81v-.5l.06.18.24.78a12.87,12.87,0,0,0,1,2.55,6.51,6.51,0,0,0,2.13,2.35,1.75,1.75,0,0,0,1,.22c.51,0,.53,0,.62-.22a2.32,2.32,0,0,0-.25-1.66,4.45,4.45,0,0,0-2.69-2.05,2,2,0,0,1-.33-.12,5.64,5.64,0,0,1-1.09-1.32,6.18,6.18,0,0,1-.59-2.36c0-.31-.1-1.52-.09-1.75v-.13l.06.18a14.56,14.56,0,0,0,1.29,3.34,7.41,7.41,0,0,0,1.24,1.66,4.2,4.2,0,0,0,1.27.93c.55.24,1,.18,1.16-.17.06-.11.07-.15.07-.49a1.58,1.58,0,0,0-.08-.62,3.67,3.67,0,0,0-.61-1.09,6.42,6.42,0,0,0-1-1,3,3,0,0,0-1.31-.62.72.72,0,0,1-.27-.08,2.86,2.86,0,0,1-.65-.72c-.81-1.08-1.06-2-1.12-4.18a2.26,2.26,0,0,1,0-.6,6.68,6.68,0,0,1,.33,1,9.78,9.78,0,0,0,2,3.9,3.59,3.59,0,0,0,1.89,1.25.71.71,0,0,0,.36,0c.35-.09.48-.3.48-.75a2.35,2.35,0,0,0-.16-.84,3.68,3.68,0,0,0-1.09-1.47,3.62,3.62,0,0,0-1.83-1,.92.92,0,0,1-.58-.36,4.72,4.72,0,0,1-1-1.58,8.86,8.86,0,0,1-.46-2.94,3.51,3.51,0,0,0-.09-1.06s0,0,0,.09a11.22,11.22,0,0,0-.05,2.63,7.6,7.6,0,0,1,0,1.72,7,7,0,0,0,0,1.72,7.77,7.77,0,0,1,0,1.81,7.1,7.1,0,0,0,0,1.73,7.28,7.28,0,0,1,0,1.75,7.55,7.55,0,0,0,0,1.78,7.3,7.3,0,0,1,0,1.75,7.46,7.46,0,0,0,0,1.77,7,7,0,0,1,0,1.71,7.77,7.77,0,0,0,0,1.66,9.79,9.79,0,0,1,0,1.11,23.2,23.2,0,0,0,.27,3.4,4.94,4.94,0,0,0,.31,1.53c.42,1.2,1.58,2,2.24,2.82"/><path class="cls-18" d="M225.29,184.63c0,.07,0,.12.1.68a5.91,5.91,0,0,1,.23,1.52,9.22,9.22,0,0,1-.4,2.94c-.18.68-.19.65,0,.65s.29-.07.45-.45a11,11,0,0,0,.48-2.7,7.5,7.5,0,0,0-.39-2.36,1.07,1.07,0,0,0-.09-.3.43.43,0,0,0-.21,0C225.36,184.58,225.32,184.59,225.29,184.63Z"/><path class="cls-18" d="M219.76,184.88s-.09.17-.24.85a6.2,6.2,0,0,0-.28,1.92,5.11,5.11,0,0,0,0,.89,3.72,3.72,0,0,0,.24,1,.37.37,0,0,0,.36.08c.17,0,.18,0,.1-.49a9.82,9.82,0,0,1-.17-2.37,4.52,4.52,0,0,1,.28-1.35,3.32,3.32,0,0,0,.14-.45.19.19,0,0,0-.05-.1A.47.47,0,0,0,219.76,184.88Z"/><path class="cls-18" d="M227.91,187.18c0,.07-.06.37-.1.67a6.43,6.43,0,0,1-1.13,3.3l-.49.89-.3,0a2.85,2.85,0,0,0-.85.22,4.62,4.62,0,0,0-2,1.79,1.65,1.65,0,0,0-.27,1c0,.67,0,.82.26.92a1.91,1.91,0,0,0,1.19-.13,7,7,0,0,0,2.5-2.89,9.65,9.65,0,0,0,1.22-3.67,7.69,7.69,0,0,0,.07-2.26A.18.18,0,0,0,227.91,187.18Z"/><path class="cls-18" d="M228,190.62a2.71,2.71,0,0,0-.13.75,7,7,0,0,1-.39,1.84,5.37,5.37,0,0,1-1.46,2.3h0a3.7,3.7,0,0,0-2,1,4.19,4.19,0,0,0-1.25,1.79c-.13.45-.05,1.05.16,1.17a1.2,1.2,0,0,0,.48,0,1.54,1.54,0,0,0,.62-.07,2,2,0,0,0,.78-.45,10.86,10.86,0,0,0,2.41-3.51,10.61,10.61,0,0,0,.79-3.25,11.82,11.82,0,0,0,0-1.61S228,190.6,228,190.62Z"/><path class="cls-18" d="M227.9,194.19a2.67,2.67,0,0,0-.06.47,6.11,6.11,0,0,1-.25,1.51,7.79,7.79,0,0,1-1.05,2.23c-.29.44-.37.51-.7.6a4.35,4.35,0,0,0-1.73.87,3.3,3.3,0,0,0-1.44,2.52.72.72,0,0,0,.06.39c.1.17.18.2.61.2a1.76,1.76,0,0,0,1.42-.49,10,10,0,0,0,3.14-6.38,7.61,7.61,0,0,0,.12-1.9C228,194.13,227.94,194.12,227.9,194.19Z"/><path class="cls-18" d="M227.88,197.79a1.39,1.39,0,0,0,0,.3,8.64,8.64,0,0,1-.46,2.26,7,7,0,0,1-1.24,2,1,1,0,0,1-.33.13,3.29,3.29,0,0,0-1.09.44,4.63,4.63,0,0,0-2,2.24,1.69,1.69,0,0,0,.06,1.22l.07.07h.45a1.77,1.77,0,0,0,1.42-.45,9.81,9.81,0,0,0,1.92-2.61,7.24,7.24,0,0,0,.93-2.22,11.62,11.62,0,0,0,.41-3.47C228,197.63,227.91,197.64,227.88,197.79Z"/><path class="cls-18" d="M227.93,201.08a4.13,4.13,0,0,0-.13.84,6.78,6.78,0,0,1-.61,2.35,10.74,10.74,0,0,1-1,1.6c-.09.09-.18.12-.47.18a4.6,4.6,0,0,0-2.74,2,2.76,2.76,0,0,0-.35,1.39c0,.29.07.41.24.49a1.81,1.81,0,0,0,1.24-.08,6.81,6.81,0,0,0,2.54-2.94,9.46,9.46,0,0,0,1.16-3.27,13.29,13.29,0,0,0,.18-1.9C228,201.13,228,200.91,227.93,201.08Z"/><path class="cls-18" d="M223.93,213.45c.76-.26,1.54-1.07,2.48-2.55a9.87,9.87,0,0,0,1.49-4.16,13,13,0,0,0,.1-2.15c0-.08-.09,0-.12.09a3.93,3.93,0,0,0,0,.52,6.85,6.85,0,0,1-1.36,3.78c-.34.56-.26.5-.71.55a2.37,2.37,0,0,0-1.56.77,5.89,5.89,0,0,0-1.36,1.68,2.58,2.58,0,0,0-.17,1.11"/><path class="cls-18" d="M222.74,214.48c1.31-.8.3.36,2.94-2.82a11.76,11.76,0,0,0,1.16-2c0-.07,0-.09-.07,0a6.55,6.55,0,0,0-.5.74,6.92,6.92,0,0,1-2.47,2.43c-.76.52-.88.56-1.13.45"/><line class="cls-17" x1="209.46" y1="288.33" x2="209.46" y2="246.19"/><path class="cls-18" d="M210.24,215.91a9.43,9.43,0,0,0-1,2.16,12.18,12.18,0,0,0-.62,3.26,5.4,5.4,0,0,0,.77,3.48,1.73,1.73,0,0,0,.67.54.84.84,0,0,0,.43.09.71.71,0,0,0,.35-.06,1.14,1.14,0,0,0,.52-.69,2.68,2.68,0,0,0,.05-.77,2.89,2.89,0,0,0-1.16-2.62,6.05,6.05,0,0,1-.8-.93,3,3,0,0,1,0-1.58,7.16,7.16,0,0,1,.46-1.49,7.51,7.51,0,0,0,.47-1.33Q210.42,215.72,210.24,215.91Z"/><path class="cls-18" d="M209.45,246.9a3.44,3.44,0,0,0-1-1.57,4.88,4.88,0,0,0-1.58-1l-.35-.07a1,1,0,0,1-.65-.3c-.86-.79-1.3-2.27-1.45-4.91v-.28l.15.54a11.11,11.11,0,0,0,.86,2.18,7.18,7.18,0,0,0,2.61,3.08,1.49,1.49,0,0,0,.81.18c.4,0,.51,0,.6-.22s.06-.16.06-.51a1.69,1.69,0,0,0-.08-.65,3.67,3.67,0,0,0-.93-1.46,3.51,3.51,0,0,0-1.34-.92,3.07,3.07,0,0,0-.81-.26c-.11,0-.16-.05-.34-.21a3.7,3.7,0,0,1-.38-.42,7.46,7.46,0,0,1-.94-1.84,17.93,17.93,0,0,1-.26-2.55c0-.49,0-.63.06-.43l.24.79a10.55,10.55,0,0,0,1,2.49,7.41,7.41,0,0,0,1.39,1.84,2.4,2.4,0,0,0,1.83.84c.44,0,.55-.13.57-.57a2.42,2.42,0,0,0-.38-1.4,4.28,4.28,0,0,0-.88-1.06,3.8,3.8,0,0,0-1.65-.92c-.51-.13-.56-.17-1-.76a5.62,5.62,0,0,1-1.16-3.5c0-.55-.06-1.4-.05-1.37a5.24,5.24,0,0,1,.17.51,10.72,10.72,0,0,0,2.09,4.24,3.61,3.61,0,0,0,1.59,1.23,1.44,1.44,0,0,0,.54.06c.3,0,.37,0,.47,0s.22-.18.22-.63a2,2,0,0,0-.24-1,4.09,4.09,0,0,0-1-1.33,3.92,3.92,0,0,0-1.66-.9c-.5-.13-.56-.18-1.11-.93a3.7,3.7,0,0,1-.72-1.43,11.45,11.45,0,0,1-.31-2.8l0-.5.06.18.24.77a13.64,13.64,0,0,0,1,2.56,6.51,6.51,0,0,0,2.13,2.35,1.77,1.77,0,0,0,1,.22c.5,0,.53,0,.61-.22a2.34,2.34,0,0,0-.25-1.67,4.5,4.5,0,0,0-2.69-2.05,1.3,1.3,0,0,1-.32-.11,5.37,5.37,0,0,1-1.09-1.32,6,6,0,0,1-.6-2.36c0-.31-.09-1.52-.09-1.75v-.13l.05.18a14.56,14.56,0,0,0,1.29,3.34,7.41,7.41,0,0,0,1.24,1.66,4.2,4.2,0,0,0,1.27.93c.55.24,1,.18,1.17-.17.06-.11.06-.15.06-.49a1.55,1.55,0,0,0-.08-.62,4.07,4.07,0,0,0-.6-1.1,7.44,7.44,0,0,0-1-1,3,3,0,0,0-1.31-.62,1,1,0,0,1-.27-.08,2.86,2.86,0,0,1-.65-.72c-.81-1.08-1-2-1.12-4.18a2.26,2.26,0,0,1,0-.6,6.68,6.68,0,0,1,.33,1,9.66,9.66,0,0,0,2,3.9,3.49,3.49,0,0,0,1.88,1.24.62.62,0,0,0,.36,0c.35-.09.48-.3.48-.75a2.15,2.15,0,0,0-.16-.84,3.71,3.71,0,0,0-1.09-1.48,3.78,3.78,0,0,0-1.83-1,.86.86,0,0,1-.57-.35,4.69,4.69,0,0,1-1-1.58,9.13,9.13,0,0,1-.46-2.94,3.43,3.43,0,0,0-.09-1.06s0,0,0,.09a11.22,11.22,0,0,0-.05,2.63,7.6,7.6,0,0,1,0,1.72,7,7,0,0,0,0,1.72,7.77,7.77,0,0,1,0,1.81,7.11,7.11,0,0,0,0,1.73,7.28,7.28,0,0,1,0,1.75,7.55,7.55,0,0,0,0,1.78,7.3,7.3,0,0,1,0,1.75,7.46,7.46,0,0,0,0,1.77,7,7,0,0,1,0,1.71,7.09,7.09,0,0,0,0,1.66,9.79,9.79,0,0,1,0,1.11,21.41,21.41,0,0,0,.26,3.39,5.34,5.34,0,0,0,.31,1.54c.42,1.2,1.59,2,2.24,2.82"/><path class="cls-18" d="M212.32,217.42c0,.08,0,.13.11.69a6.93,6.93,0,0,1,.23,1.52,9.57,9.57,0,0,1-.41,2.94c-.18.67-.18.65.05.65s.28-.08.44-.45a11,11,0,0,0,.48-2.7,7.5,7.5,0,0,0-.39-2.36,1,1,0,0,0-.09-.3.4.4,0,0,0-.21,0C212.39,217.38,212.35,217.38,212.32,217.42Z"/><path class="cls-18" d="M206.8,217.68c-.06,0-.1.16-.25.85a6.2,6.2,0,0,0-.28,1.92,5.11,5.11,0,0,0,0,.89,4.94,4.94,0,0,0,.24,1,.39.39,0,0,0,.37.08c.17,0,.17,0,.09-.49a9.82,9.82,0,0,1-.17-2.37,4.52,4.52,0,0,1,.28-1.35,3.32,3.32,0,0,0,.14-.45.19.19,0,0,0-.05-.1A.45.45,0,0,0,206.8,217.68Z"/><path class="cls-18" d="M214.94,220a6,6,0,0,0-.09.67,6.54,6.54,0,0,1-1.14,3.3l-.49.88-.3,0a2.58,2.58,0,0,0-.85.22,4.51,4.51,0,0,0-2,1.79,1.72,1.72,0,0,0-.27,1c0,.66,0,.82.26.92a1.91,1.91,0,0,0,1.19-.13,7,7,0,0,0,2.5-2.89,9.7,9.7,0,0,0,1.22-3.67,7.69,7.69,0,0,0,.07-2.26A.18.18,0,0,0,214.94,220Z"/><path class="cls-18" d="M215,223.41a2.84,2.84,0,0,0-.13.76,7.12,7.12,0,0,1-.38,1.84A5.26,5.26,0,0,1,213,228.3h0a3.58,3.58,0,0,0-2,1,4.14,4.14,0,0,0-1.26,1.79c-.13.45-.05,1,.16,1.17a1.23,1.23,0,0,0,.49,0,1.49,1.49,0,0,0,.61-.07,2,2,0,0,0,.78-.45,10.66,10.66,0,0,0,2.41-3.51,10.33,10.33,0,0,0,.79-3.25,11.84,11.84,0,0,0,0-1.61S215,223.4,215,223.41Z"/><path class="cls-18" d="M214.93,227a2.4,2.4,0,0,0-.05.48,6.46,6.46,0,0,1-.26,1.5,7.47,7.47,0,0,1-1.05,2.24c-.29.44-.37.51-.69.6a4.27,4.27,0,0,0-1.74.87,3.28,3.28,0,0,0-1.44,2.52.64.64,0,0,0,.07.39c.09.17.17.2.6.2a1.8,1.8,0,0,0,1.42-.49,10,10,0,0,0,3.14-6.38,7.62,7.62,0,0,0,.12-1.9C215,226.93,215,226.92,214.93,227Z"/><path class="cls-18" d="M214.91,230.59a1.39,1.39,0,0,0,0,.3,8.64,8.64,0,0,1-.46,2.26,7,7,0,0,1-1.24,2,1.24,1.24,0,0,1-.33.13,3.17,3.17,0,0,0-1.09.44,4.73,4.73,0,0,0-2,2.24,1.69,1.69,0,0,0,.06,1.22l.07.07h.45a1.77,1.77,0,0,0,1.42-.45,9.81,9.81,0,0,0,1.92-2.61,7.29,7.29,0,0,0,.94-2.22,12.34,12.34,0,0,0,.41-3.47C215,230.42,214.94,230.44,214.91,230.59Z"/><path class="cls-18" d="M215,233.88a3,3,0,0,0-.13.84,7.08,7.08,0,0,1-.62,2.35,10,10,0,0,1-1,1.6.89.89,0,0,1-.47.18,4.63,4.63,0,0,0-2.74,2,2.87,2.87,0,0,0-.35,1.39c0,.29.08.4.25.49a1.77,1.77,0,0,0,1.24-.09,6.76,6.76,0,0,0,2.53-2.93,9.46,9.46,0,0,0,1.16-3.27,13.29,13.29,0,0,0,.18-1.9C215.06,233.93,215,233.71,215,233.88Z"/><path class="cls-18" d="M211,246.25c.76-.26,1.54-1.07,2.47-2.55a9.86,9.86,0,0,0,1.49-4.17,11.88,11.88,0,0,0,.1-2.14c0-.08-.09,0-.12.09s0,.31,0,.52a7,7,0,0,1-1.36,3.78c-.35.56-.27.5-.72.55a2.37,2.37,0,0,0-1.56.77,6.07,6.07,0,0,0-1.36,1.68,2.74,2.74,0,0,0-.17,1.11"/><path class="cls-18" d="M209.77,247.28c1.31-.81.3.36,2.95-2.82a12.2,12.2,0,0,0,1.15-2c0-.07,0-.09-.07-.05a6.55,6.55,0,0,0-.5.74,6.92,6.92,0,0,1-2.47,2.43c-.76.52-.87.56-1.13.45"/><line class="cls-17" x1="244.04" y1="273.65" x2="244.04" y2="231.52"/><path class="cls-18" d="M244.82,201.23a9.56,9.56,0,0,0-1,2.17,12.18,12.18,0,0,0-.62,3.26,5.42,5.42,0,0,0,.77,3.48,1.73,1.73,0,0,0,.67.54.84.84,0,0,0,.43.09.61.61,0,0,0,.35-.07,1.12,1.12,0,0,0,.52-.68,2.36,2.36,0,0,0,0-.77,2.85,2.85,0,0,0-1.16-2.62,6,6,0,0,1-.8-.94,3,3,0,0,1,0-1.58,7.76,7.76,0,0,1,.46-1.48,7.82,7.82,0,0,0,.47-1.33C245,201.13,244.94,201.11,244.82,201.23Z"/><path class="cls-18" d="M244,232.23a3.44,3.44,0,0,0-1-1.57,4.72,4.72,0,0,0-1.58-1l-.35-.07a1,1,0,0,1-.65-.31c-.86-.78-1.3-2.26-1.44-4.9l0-.28.15.53a11.2,11.2,0,0,0,.86,2.19,7.18,7.18,0,0,0,2.61,3.08,1.6,1.6,0,0,0,.81.17c.41,0,.51,0,.6-.21s.06-.16.06-.51a1.69,1.69,0,0,0-.08-.65,4.1,4.1,0,0,0-2.27-2.39,4.07,4.07,0,0,0-.81-.26c-.11,0-.16,0-.34-.21a2.53,2.53,0,0,1-.38-.42,7.4,7.4,0,0,1-.94-1.83A18.11,18.11,0,0,1,239,221c0-.49,0-.64.06-.43s.13.41.24.78a10.8,10.8,0,0,0,1,2.49,7.29,7.29,0,0,0,1.39,1.85,2.43,2.43,0,0,0,1.83.84c.44,0,.55-.13.57-.57a2.4,2.4,0,0,0-.38-1.4,4.1,4.1,0,0,0-.87-1.06,3.91,3.91,0,0,0-1.66-.93c-.51-.13-.56-.17-1-.76a5.57,5.57,0,0,1-1.16-3.49,13.12,13.12,0,0,1,0-1.37s.08.24.17.5a10.59,10.59,0,0,0,2.08,4.24,3.65,3.65,0,0,0,1.59,1.24,1.47,1.47,0,0,0,.54.06c.3,0,.37,0,.47-.05s.22-.18.22-.63a1.93,1.93,0,0,0-.23-1,4.31,4.31,0,0,0-1-1.34,3.93,3.93,0,0,0-1.65-.89c-.51-.13-.57-.19-1.11-.93a3.6,3.6,0,0,1-.73-1.43,12.07,12.07,0,0,1-.31-2.81l0-.49.06.18.24.77a13.64,13.64,0,0,0,1,2.56,6.59,6.59,0,0,0,2.13,2.35,1.86,1.86,0,0,0,1,.22c.5,0,.53,0,.61-.22a2.29,2.29,0,0,0-.25-1.67,4.5,4.5,0,0,0-2.69-2.05,1.27,1.27,0,0,1-.32-.12,5,5,0,0,1-1.09-1.32,5.88,5.88,0,0,1-.6-2.35c0-.32-.09-1.53-.09-1.76v-.12l.05.17a14.7,14.7,0,0,0,1.29,3.35,7.67,7.67,0,0,0,1.24,1.65,4.09,4.09,0,0,0,1.27.94c.55.24,1,.18,1.17-.17.06-.11.06-.16.06-.49a1.64,1.64,0,0,0-.08-.63,3.76,3.76,0,0,0-.6-1.09,7.94,7.94,0,0,0-1-1A3,3,0,0,0,241,212a.71.71,0,0,1-.27-.09,2.94,2.94,0,0,1-.65-.71c-.81-1.09-1.05-2-1.12-4.18a2.2,2.2,0,0,1,0-.6,6.05,6.05,0,0,1,.34,1,9.7,9.7,0,0,0,2,3.91,3.52,3.52,0,0,0,1.88,1.24.71.71,0,0,0,.36,0c.35-.09.48-.3.48-.75a2.12,2.12,0,0,0-.16-.84,3.71,3.71,0,0,0-1.09-1.48,3.8,3.8,0,0,0-1.82-1,.9.9,0,0,1-.58-.35,4.79,4.79,0,0,1-1-1.58,9.19,9.19,0,0,1-.46-2.95c0-.81,0-1-.09-1.05s0,0-.05.08a11.32,11.32,0,0,0,0,2.64,7.51,7.51,0,0,1,0,1.71,7.1,7.1,0,0,0,0,1.73,7.69,7.69,0,0,1,0,1.8,7.1,7.1,0,0,0,0,1.73,7.36,7.36,0,0,1,0,1.76,7.46,7.46,0,0,0,0,1.77,7.39,7.39,0,0,1,0,1.76,7.38,7.38,0,0,0,0,1.76,7,7,0,0,1,0,1.72,7.1,7.1,0,0,0,0,1.66,9.57,9.57,0,0,1,0,1.11,22.8,22.8,0,0,0,.26,3.39,5.34,5.34,0,0,0,.31,1.54c.42,1.19,1.59,2,2.24,2.82"/><path class="cls-18" d="M246.91,202.75c0,.08,0,.13.1.69a6.31,6.31,0,0,1,.23,1.51,9.53,9.53,0,0,1-.41,2.94c-.18.68-.18.66,0,.66s.28-.08.44-.46a11.37,11.37,0,0,0,.49-2.69,7.7,7.7,0,0,0-.4-2.37,1.21,1.21,0,0,0-.09-.3.49.49,0,0,0-.2,0C247,202.7,246.93,202.71,246.91,202.75Z"/><path class="cls-18" d="M241.38,203c-.06,0-.09.17-.25.86a6.16,6.16,0,0,0-.28,1.92,5.19,5.19,0,0,0,.05.89,4.58,4.58,0,0,0,.24,1,.42.42,0,0,0,.37.09c.17,0,.17-.05.09-.49a10.36,10.36,0,0,1-.17-2.37,4.52,4.52,0,0,1,.28-1.35,4.25,4.25,0,0,0,.15-.45.18.18,0,0,0-.06-.1A.48.48,0,0,0,241.38,203Z"/><path class="cls-18" d="M249.52,205.31a6,6,0,0,0-.09.67,6.58,6.58,0,0,1-1.13,3.29l-.5.89-.3,0a2.93,2.93,0,0,0-.85.23,4.51,4.51,0,0,0-2.05,1.79,1.7,1.7,0,0,0-.27,1c0,.66,0,.81.26.92a1.91,1.91,0,0,0,1.19-.13,7,7,0,0,0,2.5-2.89,9.59,9.59,0,0,0,1.22-3.67,7.4,7.4,0,0,0,.07-2.27S249.54,205.24,249.52,205.31Z"/><path class="cls-18" d="M249.56,208.74a2.84,2.84,0,0,0-.13.76,7.21,7.21,0,0,1-.38,1.84,5.32,5.32,0,0,1-1.47,2.29h0a3.68,3.68,0,0,0-2,1,4.05,4.05,0,0,0-1.25,1.78c-.14.46-.06,1.05.15,1.17.06,0,.14,0,.49,0a1.79,1.79,0,0,0,.62-.07,2.16,2.16,0,0,0,.78-.45,10.8,10.8,0,0,0,2.4-3.51,10.39,10.39,0,0,0,.8-3.25,13.43,13.43,0,0,0,0-1.62S249.57,208.73,249.56,208.74Z"/><path class="cls-18" d="M249.51,212.31a3.39,3.39,0,0,0,0,.48,6,6,0,0,1-.26,1.5,7.47,7.47,0,0,1-1,2.24c-.29.44-.37.51-.69.59a4.19,4.19,0,0,0-1.73.88,3.27,3.27,0,0,0-1.45,2.52.61.61,0,0,0,.07.38c.09.17.18.2.6.2a1.79,1.79,0,0,0,1.42-.48,10.58,10.58,0,0,0,2.29-3.2,10.41,10.41,0,0,0,.85-3.18,7.64,7.64,0,0,0,.12-1.9C249.61,212.25,249.56,212.24,249.51,212.31Z"/><path class="cls-18" d="M249.49,215.92a1.32,1.32,0,0,0,0,.3,8.72,8.72,0,0,1-.46,2.26,7.18,7.18,0,0,1-1.23,2,.93.93,0,0,1-.34.13,3.62,3.62,0,0,0-1.09.44,4.78,4.78,0,0,0-2,2.24,1.69,1.69,0,0,0,.06,1.22l.07.08h.45a1.81,1.81,0,0,0,1.42-.45,9.81,9.81,0,0,0,1.92-2.61,7.34,7.34,0,0,0,.94-2.23,12.31,12.31,0,0,0,.41-3.46C249.58,215.75,249.52,215.77,249.49,215.92Z"/><path class="cls-18" d="M249.55,219.2a3.61,3.61,0,0,0-.13.85,6.91,6.91,0,0,1-.62,2.35,8.77,8.77,0,0,1-1,1.59c-.09.09-.18.13-.47.18a4.62,4.62,0,0,0-2.73,2,2.77,2.77,0,0,0-.36,1.39c0,.3.08.41.25.5a1.77,1.77,0,0,0,1.24-.09,6.74,6.74,0,0,0,2.53-2.94,9.21,9.21,0,0,0,1.16-3.26,12.21,12.21,0,0,0,.18-1.9C249.64,219.26,249.62,219,249.55,219.2Z"/><path class="cls-18" d="M245.55,231.57c.76-.26,1.54-1.06,2.47-2.55a9.88,9.88,0,0,0,1.5-4.16,12.62,12.62,0,0,0,.09-2.14c0-.09-.09,0-.12.09s0,.3,0,.51a7,7,0,0,1-1.36,3.78c-.35.57-.27.51-.72.56a2.41,2.41,0,0,0-1.56.76,6.1,6.1,0,0,0-1.35,1.68,2.61,2.61,0,0,0-.18,1.12"/><path class="cls-18" d="M244.35,232.61c1.31-.81.3.35,3-2.82a12.63,12.63,0,0,0,1.15-2c0-.07,0-.1-.07-.06a8.68,8.68,0,0,0-.5.75,7.13,7.13,0,0,1-2.46,2.43c-.77.51-.88.56-1.14.44"/><line class="cls-17" x1="276.9" y1="254.66" x2="276.9" y2="212.53"/><path class="cls-18" d="M277.67,182.25a9.09,9.09,0,0,0-1,2.16,11.82,11.82,0,0,0-.63,3.26,5.4,5.4,0,0,0,.77,3.48,1.69,1.69,0,0,0,.68.54.78.78,0,0,0,.42.09.57.57,0,0,0,.35-.07,1.17,1.17,0,0,0,.53-.68,2.52,2.52,0,0,0,0-.77,2.86,2.86,0,0,0-1.16-2.62,7.37,7.37,0,0,1-.8-.93,2.94,2.94,0,0,1,0-1.58,7.06,7.06,0,0,1,.45-1.49,7.51,7.51,0,0,0,.47-1.33C277.84,182.14,277.8,182.12,277.67,182.25Z"/><path class="cls-18" d="M276.88,213.24a3.36,3.36,0,0,0-1-1.57,4.88,4.88,0,0,0-1.58-1l-.35-.07a1,1,0,0,1-.65-.3c-.86-.79-1.29-2.27-1.44-4.91l0-.28.16.54a10.2,10.2,0,0,0,.86,2.18,7.1,7.1,0,0,0,2.6,3.08,1.5,1.5,0,0,0,.81.17c.41,0,.52,0,.61-.21s.06-.16.05-.51a2,2,0,0,0-.07-.65,3.78,3.78,0,0,0-.93-1.46,3.63,3.63,0,0,0-1.35-.92,3,3,0,0,0-.81-.26c-.11,0-.15-.05-.34-.21a3.08,3.08,0,0,1-.38-.43,7,7,0,0,1-.93-1.83,17.57,17.57,0,0,1-.27-2.55c0-.49,0-.64.07-.43l.23.79a11.47,11.47,0,0,0,1,2.49,7.93,7.93,0,0,0,1.39,1.84,2.41,2.41,0,0,0,1.83.84c.45,0,.56-.13.57-.57a2.33,2.33,0,0,0-.38-1.4,4.27,4.27,0,0,0-.87-1.06,3.89,3.89,0,0,0-1.66-.92c-.5-.13-.56-.17-1-.77a5.63,5.63,0,0,1-1.16-3.49c0-.55-.06-1.41,0-1.37l.17.51a10.74,10.74,0,0,0,2.08,4.23,3.68,3.68,0,0,0,1.59,1.24,1.47,1.47,0,0,0,.54.06c.3,0,.37,0,.47-.05s.23-.18.23-.63a2.06,2.06,0,0,0-.24-1,4.13,4.13,0,0,0-1-1.33,3.78,3.78,0,0,0-1.65-.9c-.5-.13-.57-.18-1.11-.93a3.74,3.74,0,0,1-.73-1.43,12.63,12.63,0,0,1-.31-2.8l0-.5.06.18c0,.09.14.45.25.77a12.41,12.41,0,0,0,1,2.56,6.49,6.49,0,0,0,2.12,2.35,1.86,1.86,0,0,0,1,.22c.51,0,.53,0,.61-.22a2.24,2.24,0,0,0-.25-1.67,4.5,4.5,0,0,0-2.69-2.05l-.32-.11a5.48,5.48,0,0,1-1.09-1.33,5.88,5.88,0,0,1-.6-2.35c0-.31-.09-1.53-.08-1.76v-.12l0,.18a14.64,14.64,0,0,0,1.3,3.34,7.1,7.1,0,0,0,1.23,1.65,4.21,4.21,0,0,0,1.27.94c.55.24,1,.18,1.17-.17.06-.11.07-.16.07-.49a1.38,1.38,0,0,0-.09-.62,3.82,3.82,0,0,0-.6-1.1,7.94,7.94,0,0,0-1-1,3,3,0,0,0-1.31-.62,1.07,1.07,0,0,1-.28-.08,3.35,3.35,0,0,1-.64-.72c-.82-1.09-1.06-2-1.13-4.18a1.9,1.9,0,0,1,0-.6,6.17,6.17,0,0,1,.33,1,9.76,9.76,0,0,0,2,3.91,3.51,3.51,0,0,0,1.89,1.24.72.72,0,0,0,.36,0c.34-.09.48-.3.47-.75a2,2,0,0,0-.16-.84,3.71,3.71,0,0,0-1.09-1.48,3.75,3.75,0,0,0-1.82-1,.9.9,0,0,1-.58-.35,4.85,4.85,0,0,1-1-1.58,9.19,9.19,0,0,1-.46-3c0-.8,0-1-.08-1s0,0-.06.08a12.54,12.54,0,0,0-.05,2.64,7,7,0,0,1,0,1.71,7.09,7.09,0,0,0,0,1.73,6.81,6.81,0,0,1,0,1.81,7,7,0,0,0,0,1.72,6.45,6.45,0,0,1,0,1.76,7.55,7.55,0,0,0,0,1.78,6.4,6.4,0,0,1,0,1.75,7.46,7.46,0,0,0,0,1.77,6.08,6.08,0,0,1,0,1.71,7.69,7.69,0,0,0,0,1.66,9.68,9.68,0,0,1,0,1.11,24.19,24.19,0,0,0,.26,3.39,5.34,5.34,0,0,0,.31,1.54c.43,1.2,1.59,2,2.25,2.82"/><path class="cls-18" d="M279.76,183.76c-.05.08,0,.13.1.69a5.9,5.9,0,0,1,.23,1.51,9.59,9.59,0,0,1-.41,2.95c-.18.67-.18.65.05.65s.29-.08.45-.46a12,12,0,0,0,.48-2.69,7.5,7.5,0,0,0-.39-2.36,2.52,2.52,0,0,0-.09-.3.39.39,0,0,0-.21,0C279.82,183.71,279.78,183.72,279.76,183.76Z"/><path class="cls-18" d="M274.23,184c-.05,0-.09.17-.24.86a6.89,6.89,0,0,0-.24,2.81,4.94,4.94,0,0,0,.24,1,.45.45,0,0,0,.37.08c.17,0,.18-.05.1-.49a9.89,9.89,0,0,1-.18-2.37,4.53,4.53,0,0,1,.29-1.35c.07-.22.14-.42.14-.45a.18.18,0,0,0-.06-.1A.48.48,0,0,0,274.23,184Z"/><path class="cls-18" d="M282.37,186.32a6,6,0,0,0-.09.67,6.49,6.49,0,0,1-1.13,3.29l-.5.89-.3,0a2.93,2.93,0,0,0-.85.23,4.56,4.56,0,0,0-2.05,1.79,1.7,1.7,0,0,0-.27,1c0,.66,0,.82.26.92a1.91,1.91,0,0,0,1.19-.13,7,7,0,0,0,2.51-2.89,9.75,9.75,0,0,0,1.21-3.67,7.86,7.86,0,0,0,.08-2.26S282.39,186.26,282.37,186.32Z"/><path class="cls-18" d="M282.42,189.75a2.29,2.29,0,0,0-.14.76,6.72,6.72,0,0,1-.38,1.84,5.26,5.26,0,0,1-1.47,2.29h0a3.61,3.61,0,0,0-2,1,4.05,4.05,0,0,0-1.25,1.78c-.14.46-.06,1.05.15,1.18a1.27,1.27,0,0,0,.49,0,1.57,1.57,0,0,0,.62-.07,2.16,2.16,0,0,0,.78-.45,10.8,10.8,0,0,0,2.4-3.51,10.39,10.39,0,0,0,.8-3.25,11.48,11.48,0,0,0,0-1.61S282.43,189.74,282.42,189.75Z"/><path class="cls-18" d="M282.37,193.32a2.14,2.14,0,0,0-.06.48,6,6,0,0,1-.26,1.5,7.69,7.69,0,0,1-1,2.24c-.3.44-.38.51-.7.6a4.17,4.17,0,0,0-1.73.87,3.25,3.25,0,0,0-1.44,2.52.7.7,0,0,0,.06.38c.09.17.18.2.61.2a1.82,1.82,0,0,0,1.42-.48,10.51,10.51,0,0,0,2.28-3.19,10.84,10.84,0,0,0,.86-3.19,7.46,7.46,0,0,0,.11-1.9C282.46,193.26,282.41,193.25,282.37,193.32Z"/><path class="cls-18" d="M282.34,196.93a2.33,2.33,0,0,0,0,.3,8.67,8.67,0,0,1-.45,2.26,7.18,7.18,0,0,1-1.24,2,.87.87,0,0,1-.33.13,3.67,3.67,0,0,0-1.1.44,4.72,4.72,0,0,0-2,2.25,1.62,1.62,0,0,0,0,1.21l.07.08h.45a1.76,1.76,0,0,0,1.42-.45,9.6,9.6,0,0,0,1.92-2.61,7.4,7.4,0,0,0,.94-2.22,12,12,0,0,0,.41-3.47C282.43,196.76,282.38,196.78,282.34,196.93Z"/><path class="cls-18" d="M282.4,200.21a3.72,3.72,0,0,0-.13.85,6.91,6.91,0,0,1-.62,2.35,9.42,9.42,0,0,1-1,1.59.81.81,0,0,1-.47.18,4.61,4.61,0,0,0-2.74,2,2.68,2.68,0,0,0-.35,1.39c0,.3.07.41.24.5a1.77,1.77,0,0,0,1.24-.09,6.83,6.83,0,0,0,2.54-2.93,9.31,9.31,0,0,0,1.15-3.27,12.21,12.21,0,0,0,.18-1.9C282.5,200.27,282.47,200.05,282.4,200.21Z"/><path class="cls-18" d="M278.4,212.58c.76-.26,1.54-1.06,2.48-2.55a9.91,9.91,0,0,0,1.49-4.16,12.91,12.91,0,0,0,.1-2.14c0-.09-.1,0-.13.09s0,.3,0,.52a6.88,6.88,0,0,1-1.36,3.77c-.34.57-.27.51-.72.56a2.37,2.37,0,0,0-1.56.77,6,6,0,0,0-1.35,1.67,2.63,2.63,0,0,0-.18,1.12"/><path class="cls-18" d="M277.2,213.62c1.31-.81.3.36,2.95-2.82a12.2,12.2,0,0,0,1.15-2c0-.07,0-.09-.06-.06a6.7,6.7,0,0,0-.5.75,7,7,0,0,1-2.47,2.43c-.76.51-.88.56-1.14.44"/><line class="cls-17" x1="249.23" y1="240.85" x2="249.23" y2="198.72"/><path class="cls-18" d="M250,168.44a9,9,0,0,0-1,2.16,11.8,11.8,0,0,0-.62,3.26,5.4,5.4,0,0,0,.77,3.48,1.66,1.66,0,0,0,.67.54.84.84,0,0,0,.43.09.61.61,0,0,0,.35-.07,1.12,1.12,0,0,0,.52-.68,2.73,2.73,0,0,0,0-.77,2.91,2.91,0,0,0-1.16-2.62,6.58,6.58,0,0,1-.8-.93,3,3,0,0,1,0-1.58,7.16,7.16,0,0,1,.46-1.49,7.51,7.51,0,0,0,.47-1.33Q250.19,168.25,250,168.44Z"/><path class="cls-18" d="M249.22,199.43a3.44,3.44,0,0,0-1-1.57,5,5,0,0,0-1.58-1l-.35-.07a1,1,0,0,1-.65-.3c-.87-.79-1.3-2.27-1.45-4.91v-.28l.15.54a11.36,11.36,0,0,0,.86,2.18,7.11,7.11,0,0,0,2.61,3.08,1.47,1.47,0,0,0,.8.17c.41,0,.52,0,.61-.21s.06-.16.06-.51a1.91,1.91,0,0,0-.08-.65,3.67,3.67,0,0,0-.93-1.46,3.59,3.59,0,0,0-1.34-.92,3.07,3.07,0,0,0-.81-.26c-.11,0-.16-.05-.34-.21a3.16,3.16,0,0,1-.39-.43,7.35,7.35,0,0,1-.93-1.83,17.93,17.93,0,0,1-.26-2.55c0-.49,0-.63.06-.43l.24.79a10.55,10.55,0,0,0,1,2.49,7.41,7.41,0,0,0,1.39,1.84,2.38,2.38,0,0,0,1.83.84c.44,0,.55-.13.57-.57a2.42,2.42,0,0,0-.38-1.4,4.1,4.1,0,0,0-.88-1.06,3.8,3.8,0,0,0-1.65-.92c-.51-.13-.56-.17-1-.77a5.64,5.64,0,0,1-1.17-3.49c0-.55,0-1.41,0-1.37a5.24,5.24,0,0,1,.17.51,10.74,10.74,0,0,0,2.08,4.23,3.64,3.64,0,0,0,1.6,1.24,1.44,1.44,0,0,0,.54.06c.3,0,.37,0,.46-.05s.23-.18.23-.63a2,2,0,0,0-.24-1,4,4,0,0,0-1-1.33,3.73,3.73,0,0,0-1.65-.9c-.5-.13-.56-.18-1.11-.93a3.88,3.88,0,0,1-.73-1.43,12.15,12.15,0,0,1-.3-2.8l0-.5.06.18.24.77a13,13,0,0,0,1,2.56,6.59,6.59,0,0,0,2.13,2.35,1.84,1.84,0,0,0,1,.22c.51,0,.53,0,.62-.22a2.34,2.34,0,0,0-.25-1.67,4.53,4.53,0,0,0-2.69-2.05l-.33-.11a5.72,5.72,0,0,1-1.09-1.33,6.07,6.07,0,0,1-.59-2.35c0-.31-.09-1.53-.09-1.75v-.13l.06.18a14.76,14.76,0,0,0,1.29,3.34,7.13,7.13,0,0,0,1.24,1.65,4.09,4.09,0,0,0,1.27.94c.55.24,1,.18,1.17-.17a1,1,0,0,0,.06-.49,1.55,1.55,0,0,0-.08-.62,3.85,3.85,0,0,0-.61-1.1,6.84,6.84,0,0,0-1-1,2.88,2.88,0,0,0-1.31-.62,1,1,0,0,1-.27-.08,3.06,3.06,0,0,1-.65-.72c-.81-1.09-1.06-2-1.12-4.18a2.26,2.26,0,0,1,0-.6,6.17,6.17,0,0,1,.33,1,9.76,9.76,0,0,0,2,3.91,3.54,3.54,0,0,0,1.89,1.24.72.72,0,0,0,.36,0c.35-.09.48-.3.48-.75a2.31,2.31,0,0,0-.16-.84,3.71,3.71,0,0,0-1.09-1.48,3.78,3.78,0,0,0-1.83-1,.94.94,0,0,1-.58-.35,4.82,4.82,0,0,1-1-1.58,8.92,8.92,0,0,1-.46-3,3.39,3.39,0,0,0-.09-1s0,0-.05.08a11.32,11.32,0,0,0,0,2.64,7.51,7.51,0,0,1,0,1.71,7.09,7.09,0,0,0,0,1.73,7.77,7.77,0,0,1,0,1.81,7,7,0,0,0,0,1.72,7.37,7.37,0,0,1,0,1.76,7.55,7.55,0,0,0,0,1.78,7.3,7.3,0,0,1,0,1.75,7.46,7.46,0,0,0,0,1.77,7,7,0,0,1,0,1.71,7.1,7.1,0,0,0,0,1.66c0,.23,0,.58,0,1.11a21.41,21.41,0,0,0,.26,3.39,5,5,0,0,0,.31,1.54c.42,1.2,1.58,2,2.24,2.82"/><path class="cls-18" d="M252.09,170c0,.08,0,.13.11.69a6.94,6.94,0,0,1,.23,1.51,9.59,9.59,0,0,1-.41,2.95c-.18.67-.18.65,0,.65s.28-.08.44-.46a10.93,10.93,0,0,0,.48-2.69,7.5,7.5,0,0,0-.39-2.36,1,1,0,0,0-.09-.3.43.43,0,0,0-.21,0C252.16,169.91,252.12,169.91,252.09,170Z"/><path class="cls-18" d="M246.56,170.2c-.05,0-.09.17-.24.86A6.2,6.2,0,0,0,246,173a5.11,5.11,0,0,0,.05.89,4.31,4.31,0,0,0,.24,1,.42.42,0,0,0,.36.08c.17,0,.18-.05.1-.49a9.82,9.82,0,0,1-.17-2.37,4.52,4.52,0,0,1,.28-1.35,3.32,3.32,0,0,0,.14-.45.16.16,0,0,0,0-.1A.5.5,0,0,0,246.56,170.2Z"/><path class="cls-18" d="M254.71,172.51a6,6,0,0,0-.09.67,6.51,6.51,0,0,1-1.14,3.29l-.49.89-.3,0a2.85,2.85,0,0,0-.85.23,4.51,4.51,0,0,0-2.05,1.79,1.63,1.63,0,0,0-.27,1c0,.66,0,.82.26.92a1.91,1.91,0,0,0,1.19-.13,7,7,0,0,0,2.5-2.89,9.76,9.76,0,0,0,1.22-3.67,7.69,7.69,0,0,0,.07-2.26A.18.18,0,0,0,254.71,172.51Z"/><path class="cls-18" d="M254.75,175.94a2.84,2.84,0,0,0-.13.76,7.56,7.56,0,0,1-.38,1.84,5.35,5.35,0,0,1-1.47,2.29h0a3.63,3.63,0,0,0-2,1,4.23,4.23,0,0,0-1.25,1.78c-.13.46-.05,1.05.16,1.18a1.2,1.2,0,0,0,.48,0,1.51,1.51,0,0,0,.62-.07,2.16,2.16,0,0,0,.78-.45,11,11,0,0,0,2.41-3.51,10.4,10.4,0,0,0,.79-3.25,11.84,11.84,0,0,0,0-1.61S254.76,175.93,254.75,175.94Z"/><path class="cls-18" d="M254.7,179.51a3,3,0,0,0-.06.48,6,6,0,0,1-.25,1.5,7.72,7.72,0,0,1-1,2.24c-.29.44-.37.51-.7.6a4.23,4.23,0,0,0-1.73.87,3.28,3.28,0,0,0-1.44,2.52.7.7,0,0,0,.06.38c.1.17.18.2.61.2a1.79,1.79,0,0,0,1.42-.48,10,10,0,0,0,3.14-6.38,7.64,7.64,0,0,0,.12-1.9C254.79,179.45,254.74,179.44,254.7,179.51Z"/><path class="cls-18" d="M254.68,183.12a1.32,1.32,0,0,0,0,.3,8.72,8.72,0,0,1-.46,2.26,7,7,0,0,1-1.24,2,.8.8,0,0,1-.33.13,3.51,3.51,0,0,0-1.09.44,4.74,4.74,0,0,0-2,2.25,1.7,1.7,0,0,0,.06,1.22l.07.07h.45a1.77,1.77,0,0,0,1.42-.45,9.81,9.81,0,0,0,1.92-2.61,7.4,7.4,0,0,0,.94-2.22,11.86,11.86,0,0,0,.4-3.47C254.77,183,254.71,183,254.68,183.12Z"/><path class="cls-18" d="M254.73,186.4a4.46,4.46,0,0,0-.13.85,6.9,6.9,0,0,1-.61,2.35,10.07,10.07,0,0,1-1,1.59c-.09.09-.18.13-.47.18a4.64,4.64,0,0,0-2.74,2,2.79,2.79,0,0,0-.35,1.39c0,.3.07.41.24.5a1.76,1.76,0,0,0,1.24-.09,6.7,6.7,0,0,0,2.54-2.93,9.53,9.53,0,0,0,1.16-3.27,13.57,13.57,0,0,0,.18-1.9C254.83,186.46,254.8,186.24,254.73,186.4Z"/><path class="cls-18" d="M250.73,198.77c.76-.26,1.54-1.06,2.48-2.55a9.77,9.77,0,0,0,1.49-4.16,12.91,12.91,0,0,0,.1-2.14c0-.09-.09,0-.12.09a2.76,2.76,0,0,0,0,.52,6.9,6.9,0,0,1-1.37,3.77c-.34.57-.26.51-.71.56a2.37,2.37,0,0,0-1.56.77,6,6,0,0,0-1.36,1.67,2.62,2.62,0,0,0-.17,1.12"/><path class="cls-18" d="M249.54,199.81c1.31-.81.3.36,2.94-2.82a11.76,11.76,0,0,0,1.16-2c0-.07,0-.09-.07-.06a8.68,8.68,0,0,0-.5.75,7,7,0,0,1-2.47,2.43c-.76.51-.88.56-1.13.44"/><line class="cls-11" x1="212.93" y1="299.74" x2="213.8" y2="211.7"/><line class="cls-11" x1="302.44" y1="168.32" x2="214.25" y2="211.48"/><line class="cls-11" x1="124.75" y1="167.68" x2="213.8" y2="211.7"/></svg>